{
.appVersion = "939";
classes = (
{

glyphs = (
{
glyphname = A;
lastChange = "2016-11-22 21:40:43 +0000";
layers = (
{
anchors = (
{
name = ogonek;
position = "{526, 0}";
},
{
name = top;
position = "{277, 637}";
}
);
background = {
paths = (
{
closed = 1;
nodes = (
"347 641 LINE",
"247 641 LINE",
"13 0 LINE",
"99 0 LINE",
"115 70 LINE",
"291 554 LINE",
"298 554 LINE",
"456 66 LINE",
"471 0 LINE",
"559 0 LINE"
);
},
{
closed = 1;
nodes = (
"445 244 LINE",
"287 241 LINE",
"129 244 LINE",
"129 170 LINE",
"280 173 LINE",
"445 170 LINE"
);
}
);
};
layerId = UUID0;
paths = (
{
closed = 1;
nodes = (
"293 637 LINE",
"273 637 LINE",
"19 0 LINE",
"43 0 LINE",
"57 43 LINE",
"280 603 LINE",
"284 603 LINE",
"490 43 LINE",
"503 0 LINE",
"526 0 LINE"
);
},
{
closed = 1;
nodes = (
"432 233 LINE",
"273 233 LINE",
"120 233 LINE",
"115 213 LINE",
"269 213 LINE",
"438 213 LINE"
);
}
);
width = 554;
},
{
anchors = (
{
name = ogonek;
position = "{595, 10}";
},
{
name = top;
position = "{291, 641}";
}
);
layerId = "FC8172F8-A6F4-4E62-B6CE-F5E7C4B552CE";
paths = (
{
closed = 1;
nodes = (
"347 641 LINE",
"247 641 LINE",
"13 0 LINE",
"99 0 LINE",
"115 70 LINE",
"291 554 LINE",
"298 554 LINE",
"456 66 LINE",
"471 0 LINE",
"559 0 LINE"
);
},
{
closed = 1;
nodes = (
"445 244 LINE",
"287 241 LINE",
"129 244 LINE",
"129 170 LINE",
"280 173 LINE",
"445 170 LINE"
);
}
);
width = 580;
},
{
anchors = (
{
name = ogonek;
position = "{617, 0}";
},
{
name = top;
position = "{315, 647}";
}
);
background = {
paths = (
{
closed = 1;
nodes = (
"347 641 LINE",
"247 641 LINE",
"13 0 LINE",
"99 0 LINE",
"115 70 LINE",
"291 554 LINE",
"298 554 LINE",
"456 66 LINE",
"471 0 LINE",
"559 0 LINE"
);
},
{
closed = 1;
nodes = (
"445 244 LINE",
"287 241 LINE",
"129 244 LINE",
"129 170 LINE",
"280 173 LINE",
"445 170 LINE"
);
}
);
};
layerId = "2DCE43FE-4436-4BBF-8775-653F8291D466";
paths = (
{
closed = 1;
nodes = (
"440 647 LINE",
"198 647 LINE",
"2 0 LINE",
"198 0 LINE",
"217 119 LINE",
"309 468 LINE",
"321 468 LINE",
"396 107 LINE",
"414 0 LINE",
"617 0 LINE"
);
},
{
closed = 1;
nodes = (
"412 257 LINE",
"309 255 LINE",
"187 258 LINE",
"187 107 LINE",
"297 112 LINE",
"412 110 LINE"
);
}
);
width = 627;
}
);
leftKerningGroup = A;
rightKerningGroup = A;
unicode = 0041;
},
{
glyphname = Aacute;
lastChange = "2016-11-22 21:40:43 +0000";
layers = (
{
background = {
paths = (
{
closed = 1;
nodes = (
"347 641 LINE",
"247 641 LINE",
"13 0 LINE",
"99 0 LINE",
"115 70 LINE",
"291 554 LINE",
"298 554 LINE",
"456 66 LINE",
"471 0 LINE",
"559 0 LINE"
);
},
{
closed = 1;
nodes = (
"445 244 LINE",
"287 241 LINE",
"129 244 LINE",
"129 170 LINE",
"280 173 LINE",
"445 170 LINE"
);
},
{
closed = 1;
nodes = (
"392 866 LINE",
"325 826 OFFCURVE",
"263 794 OFFCURVE",
"199 762 CURVE",
"214 724 LINE",
"223 720 LINE",
"289 747 OFFCURVE",
"352 773 OFFCURVE",
"421 805 CURVE",
"424 814 LINE",
"402 864 LINE"
);
}
);
};
components = (
{
name = A;
},
{
name = acutecomb.case;
transform = "{1, 0, 0, 1, 493, 185}";
}
);
layerId = UUID0;
width = 554;
},
{
components = (
{
name = A;
},
{
name = acutecomb.case;
transform = "{1, 0, 0, 1, 506, 182}";
}
);
layerId = "FC8172F8-A6F4-4E62-B6CE-F5E7C4B552CE";
width = 580;
},
{
background = {
paths = (
{
closed = 1;
nodes = (
"347 641 LINE",
"247 641 LINE",
"13 0 LINE",
"99 0 LINE",
"115 70 LINE",
"291 554 LINE",
"298 554 LINE",
"456 66 LINE",
"471 0 LINE",
"559 0 LINE"
);
},
{
closed = 1;
nodes = (
"445 244 LINE",
"287 241 LINE",
"129 244 LINE",
"129 170 LINE",
"280 173 LINE",
"445 170 LINE"
);
},
{
closed = 1;
nodes = (
"392 866 LINE",
"325 826 OFFCURVE",
"263 794 OFFCURVE",
"199 762 CURVE",
"214 724 LINE",
"223 720 LINE",
"289 747 OFFCURVE",
"352 773 OFFCURVE",
"421 805 CURVE",
"424 814 LINE",
"402 864 LINE"
);
}
);
};
components = (
{
name = A;
},
{
name = acutecomb.case;
transform = "{1, 0, 0, 1, 528, 175}";
}
);
layerId = "2DCE43FE-4436-4BBF-8775-653F8291D466";
width = 627;
}
);
leftKerningGroup = A;
rightKerningGroup = A;
unicode = 00C1;
},
{
glyphname = Abreve;
lastChange = "2016-11-22 21:42:25 +0000";
layers = (
{
background = {
paths = (
{
closed = 1;
nodes = (
"347 641 LINE",
"247 641 LINE",
"13 0 LINE",
"99 0 LINE",
"115 70 LINE",
"291 554 LINE",
"298 554 LINE",
"456 66 LINE",
"471 0 LINE",
"559 0 LINE"
);
},
{
closed = 1;
nodes = (
"445 244 LINE",
"287 241 LINE",
"129 244 LINE",
"129 170 LINE",
"280 173 LINE",
"445 170 LINE"
);
},
{
closed = 1;
nodes = (
"398 845 LINE",
"385 845 LINE",
"370 807 OFFCURVE",
"338 785 OFFCURVE",
"292 785 CURVE SMOOTH",
"246 785 OFFCURVE",
"213 807 OFFCURVE",
"199 845 CURVE",
"186 845 LINE",
"163 816 LINE",
"182 757 OFFCURVE",
"227 724 OFFCURVE",
"290 724 CURVE SMOOTH",
"353 724 OFFCURVE",
"400 757 OFFCURVE",
"420 816 CURVE"
);
}
);
};
components = (
{
name = A;
},
{
name = brevecomb.case;
transform = "{1, 0, 0, 1, 472, 185}";
}
);
layerId = UUID0;
width = 554;
},
{
components = (
{
name = A;
},
{
name = brevecomb.case;
transform = "{1, 0, 0, 1, 486, 182}";
}
);
layerId = "FC8172F8-A6F4-4E62-B6CE-F5E7C4B552CE";
width = 580;
},
{
background = {
paths = (
{
closed = 1;
nodes = (
"347 641 LINE",
"247 641 LINE",
"13 0 LINE",
"99 0 LINE",
"115 70 LINE",
"291 554 LINE",
"298 554 LINE",
"456 66 LINE",
"471 0 LINE",
"559 0 LINE"
);
},
{
closed = 1;
nodes = (
"445 244 LINE",
"287 241 LINE",
"129 244 LINE",
"129 170 LINE",
"280 173 LINE",
"445 170 LINE"
);
},
{
closed = 1;
nodes = (
"398 845 LINE",
"385 845 LINE",
"370 807 OFFCURVE",
"338 785 OFFCURVE",
"292 785 CURVE SMOOTH",
"246 785 OFFCURVE",
"213 807 OFFCURVE",
"199 845 CURVE",
"186 845 LINE",
"163 816 LINE",
"182 757 OFFCURVE",
"227 724 OFFCURVE",
"290 724 CURVE SMOOTH",
"353 724 OFFCURVE",
"400 757 OFFCURVE",
"420 816 CURVE"
);
}
);
};
components = (
{
name = A;
},
{
name = brevecomb.case;
transform = "{1, 0, 0, 1, 510, 175}";
}
);
layerId = "2DCE43FE-4436-4BBF-8775-653F8291D466";
width = 627;
}
);
leftKerningGroup = A;
rightKerningGroup = A;
unicode = 0102;
},
{
glyphname = Abreveacute;
lastChange = "2016-11-22 21:42:25 +0000";
layers = (
{
background = {
paths = (
{
closed = 1;
nodes = (
"346 954 LINE",
"338 953 LINE",
"309 915 OFFCURVE",
"281 879 OFFCURVE",
"250 843 CURVE",
"279 819 LINE",
"288 820 LINE",
"321 853 OFFCURVE",
"354 885 OFFCURVE",
"386 919 CURVE",
"386 927 LINE"
);
},
{
closed = 1;
nodes = (
"347 641 LINE",
"247 641 LINE",
"13 0 LINE",
"99 0 LINE",
"115 70 LINE",
"291 554 LINE",
"298 554 LINE",
"456 66 LINE",
"471 0 LINE",
"559 0 LINE"
);
},
{
closed = 1;
nodes = (
"445 244 LINE",
"287 241 LINE",
"129 244 LINE",
"129 170 LINE",
"280 173 LINE",
"445 170 LINE"
);
},
{
closed = 1;
nodes = (
"397 825 LINE",
"384 825 LINE",
"369 787 OFFCURVE",
"337 765 OFFCURVE",
"291 765 CURVE SMOOTH",
"245 765 OFFCURVE",
"212 787 OFFCURVE",
"198 825 CURVE",
"185 825 LINE",
"162 796 LINE",
"181 737 OFFCURVE",
"226 704 OFFCURVE",
"289 704 CURVE SMOOTH",
"352 704 OFFCURVE",
"399 737 OFFCURVE",
"419 796 CURVE"
);
}
);
};
components = (
{
name = A;
},
{
name = brevecomb_acutecomb;
transform = "{1, 0, 0, 1, 472, 185}";
}
);
layerId = UUID0;
width = 554;
},
{
components = (
{
name = A;
},
{
name = brevecomb.case;
transform = "{1, 0, 0, 1, 485, 162}";
}
);
layerId = "FC8172F8-A6F4-4E62-B6CE-F5E7C4B552CE";
paths = (
{
closed = 1;
nodes = (
"346 954 LINE",
"338 953 LINE",
"309 915 OFFCURVE",
"281 879 OFFCURVE",
"250 843 CURVE",
"279 819 LINE",
"288 820 LINE",
"321 853 OFFCURVE",
"354 885 OFFCURVE",
"386 919 CURVE",
"386 927 LINE"
);
}
);
width = 580;
},
{
background = {
paths = (
{
closed = 1;
nodes = (
"346 954 LINE",
"338 953 LINE",
"309 915 OFFCURVE",
"281 879 OFFCURVE",
"250 843 CURVE",
"279 819 LINE",
"288 820 LINE",
"321 853 OFFCURVE",
"354 885 OFFCURVE",
"386 919 CURVE",
"386 927 LINE"
);
},
{
closed = 1;
nodes = (
"347 641 LINE",
"247 641 LINE",
"13 0 LINE",
"99 0 LINE",
"115 70 LINE",
"291 554 LINE",
"298 554 LINE",
"456 66 LINE",
"471 0 LINE",
"559 0 LINE"
);
},
{
closed = 1;
nodes = (
"445 244 LINE",
"287 241 LINE",
"129 244 LINE",
"129 170 LINE",
"280 173 LINE",
"445 170 LINE"
);
},
{
closed = 1;
nodes = (
"397 825 LINE",
"384 825 LINE",
"369 787 OFFCURVE",
"337 765 OFFCURVE",
"291 765 CURVE SMOOTH",
"245 765 OFFCURVE",
"212 787 OFFCURVE",
"198 825 CURVE",
"185 825 LINE",
"162 796 LINE",
"181 737 OFFCURVE",
"226 704 OFFCURVE",
"289 704 CURVE SMOOTH",
"352 704 OFFCURVE",
"399 737 OFFCURVE",
"419 796 CURVE"
);
}
);
};
components = (
{
name = A;
},
{
name = brevecomb_acutecomb;
transform = "{1, 0, 0, 1, 509, 175}";
}
);
layerId = "2DCE43FE-4436-4BBF-8775-653F8291D466";
width = 627;
}
);
leftKerningGroup = A;
rightKerningGroup = A;
unicode = 1EAE;
},
{
glyphname = Abrevedotbelow;
lastChange = "2016-11-22 21:42:25 +0000";
layers = (
{
background = {
paths = (
{
closed = 1;
nodes = (
"397 844 LINE",
"384 844 LINE",
"369 806 OFFCURVE",
"337 784 OFFCURVE",
"291 784 CURVE SMOOTH",
"245 784 OFFCURVE",
"212 806 OFFCURVE",
"198 844 CURVE",
"185 844 LINE",
"162 815 LINE",
"181 756 OFFCURVE",
"226 723 OFFCURVE",
"289 723 CURVE SMOOTH",
"352 723 OFFCURVE",
"399 756 OFFCURVE",
"419 815 CURVE"
);
},
{
closed = 1;
nodes = (
"347 641 LINE",
"247 641 LINE",
"13 0 LINE",
"99 0 LINE",
"115 70 LINE",
"291 554 LINE",
"298 554 LINE",
"456 66 LINE",
"471 0 LINE",
"559 0 LINE"
);
},
{
closed = 1;
nodes = (
"445 244 LINE",
"287 241 LINE",
"129 244 LINE",
"129 170 LINE",
"280 173 LINE",
"445 170 LINE"
);
},
{
closed = 1;
nodes = (
"257 -68 OFFCURVE",
"238 -88 OFFCURVE",
"238 -118 CURVE SMOOTH",
"238 -148 OFFCURVE",
"255 -166 OFFCURVE",
"285 -166 CURVE SMOOTH",
"315 -166 OFFCURVE",
"334 -146 OFFCURVE",
"334 -115 CURVE SMOOTH",
"334 -86 OFFCURVE",
"317 -68 OFFCURVE",
"288 -68 CURVE SMOOTH"
);
}
);
};
components = (
{
name = A;
},
{
name = brevecomb.case;
transform = "{1, 0, 0, 1, 472, 185}";
},
{
name = period;
transform = "{1, 0, 0, 1, 0, -126}";
}
);
layerId = UUID0;
width = 554;
},
{
components = (
{
name = brevecomb.case;
transform = "{1, 0, 0, 1, 485, 181}";
},
{
name = A;
},
{
name = period;
transform = "{1, 0, 0, 1, 172, -161}";
}
);
layerId = "FC8172F8-A6F4-4E62-B6CE-F5E7C4B552CE";
width = 580;
},
{
background = {
paths = (
{
closed = 1;
nodes = (
"397 844 LINE",
"384 844 LINE",
"369 806 OFFCURVE",
"337 784 OFFCURVE",
"291 784 CURVE SMOOTH",
"245 784 OFFCURVE",
"212 806 OFFCURVE",
"198 844 CURVE",
"185 844 LINE",
"162 815 LINE",
"181 756 OFFCURVE",
"226 723 OFFCURVE",
"289 723 CURVE SMOOTH",
"352 723 OFFCURVE",
"399 756 OFFCURVE",
"419 815 CURVE"
);
},
{
closed = 1;
nodes = (
"347 641 LINE",
"247 641 LINE",
"13 0 LINE",
"99 0 LINE",
"115 70 LINE",
"291 554 LINE",
"298 554 LINE",
"456 66 LINE",
"471 0 LINE",
"559 0 LINE"
);
},
{
closed = 1;
nodes = (
"445 244 LINE",
"287 241 LINE",
"129 244 LINE",
"129 170 LINE",
"280 173 LINE",
"445 170 LINE"
);
},
{
closed = 1;
nodes = (
"257 -68 OFFCURVE",
"238 -88 OFFCURVE",
"238 -118 CURVE SMOOTH",
"238 -148 OFFCURVE",
"255 -166 OFFCURVE",
"285 -166 CURVE SMOOTH",
"315 -166 OFFCURVE",
"334 -146 OFFCURVE",
"334 -115 CURVE SMOOTH",
"334 -86 OFFCURVE",
"317 -68 OFFCURVE",
"288 -68 CURVE SMOOTH"
);
}
);
};
components = (
{
name = A;
},
{
name = brevecomb.case;
transform = "{1, 0, 0, 1, 510, 175}";
},
{
name = period;
transform = "{1, 0, 0, 1, 6, -222}";
}
);
layerId = "2DCE43FE-4436-4BBF-8775-653F8291D466";
width = 627;
}
);
leftKerningGroup = A;
rightKerningGroup = A;
unicode = 1EB6;
},
{
glyphname = Abrevegrave;
lastChange = "2016-11-22 21:42:25 +0000";
layers = (
{
background = {
paths = (
{
closed = 1;
nodes = (
"233 954 LINE",
"194 927 LINE",
"194 919 LINE",
"225 885 OFFCURVE",
"258 853 OFFCURVE",
"292 820 CURVE",
"300 819 LINE",
"329 843 LINE",
"299 879 OFFCURVE",
"270 915 OFFCURVE",
"241 953 CURVE"
);
},
{
closed = 1;
nodes = (
"347 641 LINE",
"247 641 LINE",
"13 0 LINE",
"99 0 LINE",
"115 70 LINE",
"291 554 LINE",
"298 554 LINE",
"456 66 LINE",
"471 0 LINE",
"559 0 LINE"
);
},
{
closed = 1;
nodes = (
"445 244 LINE",
"287 241 LINE",
"129 244 LINE",
"129 170 LINE",
"280 173 LINE",
"445 170 LINE"
);
},
{
closed = 1;
nodes = (
"397 825 LINE",
"384 825 LINE",
"369 787 OFFCURVE",
"337 765 OFFCURVE",
"291 765 CURVE SMOOTH",
"245 765 OFFCURVE",
"212 787 OFFCURVE",
"198 825 CURVE",
"185 825 LINE",
"162 796 LINE",
"181 737 OFFCURVE",
"226 704 OFFCURVE",
"289 704 CURVE SMOOTH",
"352 704 OFFCURVE",
"399 737 OFFCURVE",
"419 796 CURVE"
);
}
);
};
components = (
{
name = A;
},
{
name = brevecomb_gravecomb;
transform = "{1, 0, 0, 1, 472, 185}";
}
);
layerId = UUID0;
width = 554;
},
{
components = (
{
name = A;
},
{
name = brevecomb.case;
transform = "{1, 0, 0, 1, 485, 162}";
}
);
layerId = "FC8172F8-A6F4-4E62-B6CE-F5E7C4B552CE";
paths = (
{
closed = 1;
nodes = (
"233 954 LINE",
"194 927 LINE",
"194 919 LINE",
"225 885 OFFCURVE",
"258 853 OFFCURVE",
"292 820 CURVE",
"300 819 LINE",
"329 843 LINE",
"299 879 OFFCURVE",
"270 915 OFFCURVE",
"241 953 CURVE"
);
}
);
width = 580;
},
{
background = {
paths = (
{
closed = 1;
nodes = (
"233 954 LINE",
"194 927 LINE",
"194 919 LINE",
"225 885 OFFCURVE",
"258 853 OFFCURVE",
"292 820 CURVE",
"300 819 LINE",
"329 843 LINE",
"299 879 OFFCURVE",
"270 915 OFFCURVE",
"241 953 CURVE"
);
},
{
closed = 1;
nodes = (
"347 641 LINE",
"247 641 LINE",
"13 0 LINE",
"99 0 LINE",
"115 70 LINE",
"291 554 LINE",
"298 554 LINE",
"456 66 LINE",
"471 0 LINE",
"559 0 LINE"
);
},
{
closed = 1;
nodes = (
"445 244 LINE",
"287 241 LINE",
"129 244 LINE",
"129 170 LINE",
"280 173 LINE",
"445 170 LINE"
);
},
{
closed = 1;
nodes = (
"397 825 LINE",
"384 825 LINE",
"369 787 OFFCURVE",
"337 765 OFFCURVE",
"291 765 CURVE SMOOTH",
"245 765 OFFCURVE",
"212 787 OFFCURVE",
"198 825 CURVE",
"185 825 LINE",
"162 796 LINE",
"181 737 OFFCURVE",
"226 704 OFFCURVE",
"289 704 CURVE SMOOTH",
"352 704 OFFCURVE",
"399 737 OFFCURVE",
"419 796 CURVE"
);
}
);
};
components = (
{
name = A;
},
{
name = brevecomb_gravecomb;
transform = "{1, 0, 0, 1, 509, 175}";
}
);
layerId = "2DCE43FE-4436-4BBF-8775-653F8291D466";
width = 627;
}
);
leftKerningGroup = A;
rightKerningGroup = A;
unicode = 1EB0;
},
{
glyphname = Abrevehookabove;
lastChange = "2016-11-22 21:42:25 +0000";
layers = (
{
background = {
paths = (
{
closed = 1;
nodes = (
"347 641 LINE",
"247 641 LINE",
"13 0 LINE",
"99 0 LINE",
"115 70 LINE",
"291 554 LINE",
"298 554 LINE",
"456 66 LINE",
"471 0 LINE",
"559 0 LINE"
);
},
{
closed = 1;
nodes = (
"445 244 LINE",
"287 241 LINE",
"129 244 LINE",
"129 170 LINE",
"280 173 LINE",
"445 170 LINE"
);
},
{
closed = 1;
nodes = (
"397 825 LINE",
"384 825 LINE",
"369 787 OFFCURVE",
"337 765 OFFCURVE",
"291 765 CURVE SMOOTH",
"245 765 OFFCURVE",
"212 787 OFFCURVE",
"198 825 CURVE",
"185 825 LINE",
"162 796 LINE",
"181 737 OFFCURVE",
"226 704 OFFCURVE",
"289 704 CURVE SMOOTH",
"352 704 OFFCURVE",
"399 737 OFFCURVE",
"419 796 CURVE"
);
},
{
closed = 1;
nodes = (
"258 998 OFFCURVE",
"226 983 OFFCURVE",
"200 957 CURVE",
"216 931 LINE",
"235 947 OFFCURVE",
"258 956 OFFCURVE",
"275 956 CURVE SMOOTH",
"292 956 OFFCURVE",
"303 948 OFFCURVE",
"303 934 CURVE SMOOTH",
"303 917 OFFCURVE",
"284 892 OFFCURVE",
"251 870 CURVE",
"284 814 LINE",
"318 833 LINE",
"298 867 LINE",
"335 897 OFFCURVE",
"351 919 OFFCURVE",
"351 942 CURVE SMOOTH",
"351 974 OFFCURVE",
"324 998 OFFCURVE",
"287 998 CURVE SMOOTH"
);
}
);
};
components = (
{
name = A;
},
{
name = brevecomb.case;
transform = "{1, 0, 0, 1, 472, 165}";
},
{
name = hookabovecomb;
transform = "{1, 0, 0, 1, 411, 277}";
}
);
layerId = UUID0;
width = 554;
},
{
components = (
{
name = A;
},
{
name = brevecomb.case;
transform = "{1, 0, 0, 1, 485, 162}";
},
{
name = hookabovecomb;
transform = "{1, 0, 0, 1, 485, 309}";
}
);
layerId = "FC8172F8-A6F4-4E62-B6CE-F5E7C4B552CE";
width = 580;
},
{
background = {
paths = (
{
closed = 1;
nodes = (
"347 641 LINE",
"247 641 LINE",
"13 0 LINE",
"99 0 LINE",
"115 70 LINE",
"291 554 LINE",
"298 554 LINE",
"456 66 LINE",
"471 0 LINE",
"559 0 LINE"
);
},
{
closed = 1;
nodes = (
"445 244 LINE",
"287 241 LINE",
"129 244 LINE",
"129 170 LINE",
"280 173 LINE",
"445 170 LINE"
);
},
{
closed = 1;
nodes = (
"397 825 LINE",
"384 825 LINE",
"369 787 OFFCURVE",
"337 765 OFFCURVE",
"291 765 CURVE SMOOTH",
"245 765 OFFCURVE",
"212 787 OFFCURVE",
"198 825 CURVE",
"185 825 LINE",
"162 796 LINE",
"181 737 OFFCURVE",
"226 704 OFFCURVE",
"289 704 CURVE SMOOTH",
"352 704 OFFCURVE",
"399 737 OFFCURVE",
"419 796 CURVE"
);
},
{
closed = 1;
nodes = (
"258 998 OFFCURVE",
"226 983 OFFCURVE",
"200 957 CURVE",
"216 931 LINE",
"235 947 OFFCURVE",
"258 956 OFFCURVE",
"275 956 CURVE SMOOTH",
"292 956 OFFCURVE",
"303 948 OFFCURVE",
"303 934 CURVE SMOOTH",
"303 917 OFFCURVE",
"284 892 OFFCURVE",
"251 870 CURVE",
"284 814 LINE",
"318 833 LINE",
"298 867 LINE",
"335 897 OFFCURVE",
"351 919 OFFCURVE",
"351 942 CURVE SMOOTH",
"351 974 OFFCURVE",
"324 998 OFFCURVE",
"287 998 CURVE SMOOTH"
);
}
);
};
components = (
{
name = A;
},
{
name = brevecomb.case;
transform = "{1, 0, 0, 1, 509, 155}";
},
{
name = hookabovecomb;
transform = "{0.9091, 0, 0, 0.9091, 440, 405}";
}
);
layerId = "2DCE43FE-4436-4BBF-8775-653F8291D466";
width = 627;
}
);
leftKerningGroup = A;
rightKerningGroup = A;
unicode = 1EB2;
},
{
glyphname = Abrevetilde;
lastChange = "2016-11-22 21:42:25 +0000";
layers = (
{
background = {
paths = (
{
closed = 1;
nodes = (
"347 641 LINE",
"247 641 LINE",
"13 0 LINE",
"99 0 LINE",
"115 70 LINE",
"291 554 LINE",
"298 554 LINE",
"456 66 LINE",
"471 0 LINE",
"559 0 LINE"
);
},
{
closed = 1;
nodes = (
"445 244 LINE",
"287 241 LINE",
"129 244 LINE",
"129 170 LINE",
"280 173 LINE",
"445 170 LINE"
);
},
{
closed = 1;
nodes = (
"406 822 LINE",
"394 822 LINE",
"379 785 OFFCURVE",
"348 764 OFFCURVE",
"303 764 CURVE SMOOTH",
"258 764 OFFCURVE",
"226 785 OFFCURVE",
"212 822 CURVE",
"200 822 LINE",
"177 794 LINE",
"196 736 OFFCURVE",
"240 704 OFFCURVE",
"301 704 CURVE SMOOTH",
"362 704 OFFCURVE",
"408 736 OFFCURVE",
"428 794 CURVE"
);
},
{
closed = 1;
nodes = (
"416 968 LINE",
"409 968 LINE",
"385 944 OFFCURVE",
"370 924 OFFCURVE",
"355 924 CURVE",
"332 924 OFFCURVE",
"252 953 OFFCURVE",
"213 958 CURVE",
"203 955 LINE",
"146 888 LINE",
"146 880 LINE",
"170 854 LINE",
"178 854 LINE",
"201 878 OFFCURVE",
"216 899 OFFCURVE",
"231 899 CURVE",
"255 899 OFFCURVE",
"335 869 OFFCURVE",
"374 864 CURVE",
"383 868 LINE",
"440 935 LINE",
"440 943 LINE"
);
}
);
};
components = (
{
name = A;
},
{
name = brevecomb.case;
transform = "{1, 0, 0, 1, 472, 165}";
},
{
name = tildecomb;
transform = "{0.952, 0, 0, 1, 481, 277}";
}
);
layerId = UUID0;
width = 554;
},
{
components = (
{
name = A;
},
{
name = brevecomb.case;
transform = "{0.9747, 0, 0, 0.9747, 492, 176}";
},
{
name = tilde;
transform = "{0.9208, 0, 0, 0.9515, 114, 330}";
}
);
layerId = "FC8172F8-A6F4-4E62-B6CE-F5E7C4B552CE";
width = 580;
},
{
background = {
paths = (
{
closed = 1;
nodes = (
"347 641 LINE",
"247 641 LINE",
"13 0 LINE",
"99 0 LINE",
"115 70 LINE",
"291 554 LINE",
"298 554 LINE",
"456 66 LINE",
"471 0 LINE",
"559 0 LINE"
);
},
{
closed = 1;
nodes = (
"445 244 LINE",
"287 241 LINE",
"129 244 LINE",
"129 170 LINE",
"280 173 LINE",
"445 170 LINE"
);
},
{
closed = 1;
nodes = (
"406 822 LINE",
"394 822 LINE",
"379 785 OFFCURVE",
"348 764 OFFCURVE",
"303 764 CURVE SMOOTH",
"258 764 OFFCURVE",
"226 785 OFFCURVE",
"212 822 CURVE",
"200 822 LINE",
"177 794 LINE",
"196 736 OFFCURVE",
"240 704 OFFCURVE",
"301 704 CURVE SMOOTH",
"362 704 OFFCURVE",
"408 736 OFFCURVE",
"428 794 CURVE"
);
},
{
closed = 1;
nodes = (
"416 968 LINE",
"409 968 LINE",
"385 944 OFFCURVE",
"370 924 OFFCURVE",
"355 924 CURVE",
"332 924 OFFCURVE",
"252 953 OFFCURVE",
"213 958 CURVE",
"203 955 LINE",
"146 888 LINE",
"146 880 LINE",
"170 854 LINE",
"178 854 LINE",
"201 878 OFFCURVE",
"216 899 OFFCURVE",
"231 899 CURVE",
"255 899 OFFCURVE",
"335 869 OFFCURVE",
"374 864 CURVE",
"383 868 LINE",
"440 935 LINE",
"440 943 LINE"
);
}
);
};
components = (
{
name = A;
},
{
name = brevecomb.case;
transform = "{0.93, 0, 0, 0.93, 524, 193}";
},
{
name = tildecomb;
transform = "{0.86, 0, 0, 0.8657, 538, 426}";
}
);
layerId = "2DCE43FE-4436-4BBF-8775-653F8291D466";
width = 627;
}
);
leftKerningGroup = A;
rightKerningGroup = A;
unicode = 1EB4;
},
{
glyphname = Acaron;
lastChange = "2016-11-22 21:42:25 +0000";
layers = (
{
background = {
paths = (
{
closed = 1;
nodes = (
"347 641 LINE",
"247 641 LINE",
"13 0 LINE",
"99 0 LINE",
"115 70 LINE",
"291 554 LINE",
"298 554 LINE",
"456 66 LINE",
"471 0 LINE",
"559 0 LINE"
);
},
{
closed = 1;
nodes = (
"445 244 LINE",
"287 241 LINE",
"129 244 LINE",
"129 170 LINE",
"280 173 LINE",
"445 170 LINE"
);
},
{
closed = 1;
nodes = (
"404 851 LINE",
"395 851 LINE",
"359 829 OFFCURVE",
"325 808 OFFCURVE",
"291 785 CURVE",
"257 808 OFFCURVE",
"223 829 OFFCURVE",
"188 851 CURVE",
"178 851 LINE",
"162 815 LINE",
"204 786 OFFCURVE",
"243 755 OFFCURVE",
"281 723 CURVE",
"303 723 LINE",
"339 755 OFFCURVE",
"379 786 OFFCURVE",
"421 815 CURVE"
);
}
);
};
components = (
{
name = A;
},
{
name = caroncomb.case;
transform = "{1, 0, 0, 1, 472, 185}";
}
);
layerId = UUID0;
width = 554;
},
{
components = (
{
name = A;
},
{
name = caroncomb.case;
transform = "{1, 0, 0, 1, 486, 182}";
}
);
layerId = "FC8172F8-A6F4-4E62-B6CE-F5E7C4B552CE";
width = 580;
},
{
background = {
paths = (
{
closed = 1;
nodes = (
"347 641 LINE",
"247 641 LINE",
"13 0 LINE",
"99 0 LINE",
"115 70 LINE",
"291 554 LINE",
"298 554 LINE",
"456 66 LINE",
"471 0 LINE",
"559 0 LINE"
);
},
{
closed = 1;
nodes = (
"445 244 LINE",
"287 241 LINE",
"129 244 LINE",
"129 170 LINE",
"280 173 LINE",
"445 170 LINE"
);
},
{
closed = 1;
nodes = (
"404 851 LINE",
"395 851 LINE",
"359 829 OFFCURVE",
"325 808 OFFCURVE",
"291 785 CURVE",
"257 808 OFFCURVE",
"223 829 OFFCURVE",
"188 851 CURVE",
"178 851 LINE",
"162 815 LINE",
"204 786 OFFCURVE",
"243 755 OFFCURVE",
"281 723 CURVE",
"303 723 LINE",
"339 755 OFFCURVE",
"379 786 OFFCURVE",
"421 815 CURVE"
);
}
);
};
components = (
{
name = A;
},
{
name = caroncomb.case;
transform = "{1, 0, 0, 1, 510, 175}";
}
);
layerId = "2DCE43FE-4436-4BBF-8775-653F8291D466";
width = 627;
}
);
leftKerningGroup = A;
rightKerningGroup = A;
unicode = 01CD;
},
{
glyphname = Acircumflex;
lastChange = "2016-11-22 21:42:25 +0000";
layers = (
{
background = {
paths = (
{
closed = 1;
nodes = (
"347 641 LINE",
"247 641 LINE",
"13 0 LINE",
"99 0 LINE",
"115 70 LINE",
"291 554 LINE",
"298 554 LINE",
"456 66 LINE",
"471 0 LINE",
"559 0 LINE"
);
},
{
closed = 1;
nodes = (
"445 244 LINE",
"287 241 LINE",
"129 244 LINE",
"129 170 LINE",
"280 173 LINE",
"445 170 LINE"
);
},
{
closed = 1;
nodes = (
"957 733 LINE",
"966 733 LINE",
"1002 755 OFFCURVE",
"1036 776 OFFCURVE",
"1070 799 CURVE",
"1104 776 OFFCURVE",
"1138 755 OFFCURVE",
"1173 733 CURVE",
"1183 733 LINE",
"1199 769 LINE",
"1157 798 OFFCURVE",
"1118 829 OFFCURVE",
"1080 861 CURVE",
"1058 861 LINE",
"1022 829 OFFCURVE",
"982 798 OFFCURVE",
"940 769 CURVE"
);
}
);
};
components = (
{
name = A;
},
{
name = caroncomb.case;
transform = "{-1, 0, 0, -1, 862, 1372}";
}
);
layerId = UUID0;
width = 554;
},
{
components = (
{
name = A;
},
{
name = caroncomb.case;
transform = "{-1, 0, 0, -1, 875, 1402}";
}
);
layerId = "FC8172F8-A6F4-4E62-B6CE-F5E7C4B552CE";
width = 580;
},
{
background = {
paths = (
{
closed = 1;
nodes = (
"347 641 LINE",
"247 641 LINE",
"13 0 LINE",
"99 0 LINE",
"115 70 LINE",
"291 554 LINE",
"298 554 LINE",
"456 66 LINE",
"471 0 LINE",
"559 0 LINE"
);
},
{
closed = 1;
nodes = (
"445 244 LINE",
"287 241 LINE",
"129 244 LINE",
"129 170 LINE",
"280 173 LINE",
"445 170 LINE"
);
},
{
closed = 1;
nodes = (
"957 733 LINE",
"966 733 LINE",
"1002 755 OFFCURVE",
"1036 776 OFFCURVE",
"1070 799 CURVE",
"1104 776 OFFCURVE",
"1138 755 OFFCURVE",
"1173 733 CURVE",
"1183 733 LINE",
"1199 769 LINE",
"1157 798 OFFCURVE",
"1118 829 OFFCURVE",
"1080 861 CURVE",
"1058 861 LINE",
"1022 829 OFFCURVE",
"982 798 OFFCURVE",
"940 769 CURVE"
);
}
);
};
components = (
{
name = A;
},
{
name = caroncomb.case;
transform = "{-1, 0, 0, -1, 898, 1453}";
}
);
layerId = "2DCE43FE-4436-4BBF-8775-653F8291D466";
width = 627;
}
);
leftKerningGroup = A;
rightKerningGroup = A;
unicode = 00C2;
},
{
glyphname = Acircumflexacute;
lastChange = "2016-11-22 21:42:25 +0000";
layers = (
{
background = {
paths = (
{
closed = 1;
nodes = (
"416 948 LINE",
"408 946 LINE",
"344 851 LINE",
"375 827 LINE",
"383 827 LINE",
"459 918 LINE",
"457 926 LINE"
);
},
{
closed = 1;
nodes = (
"347 641 LINE",
"247 641 LINE",
"13 0 LINE",
"99 0 LINE",
"115 70 LINE",
"291 554 LINE",
"298 554 LINE",
"456 66 LINE",
"471 0 LINE",
"559 0 LINE"
);
},
{
closed = 1;
nodes = (
"445 244 LINE",
"287 241 LINE",
"129 244 LINE",
"129 170 LINE",
"280 173 LINE",
"445 170 LINE"
);
},
{
closed = 1;
nodes = (
"956 713 LINE",
"965 713 LINE",
"1001 735 OFFCURVE",
"1035 756 OFFCURVE",
"1069 779 CURVE",
"1103 756 OFFCURVE",
"1137 735 OFFCURVE",
"1172 713 CURVE",
"1182 713 LINE",
"1198 749 LINE",
"1156 778 OFFCURVE",
"1117 809 OFFCURVE",
"1079 841 CURVE",
"1057 841 LINE",
"1021 809 OFFCURVE",
"981 778 OFFCURVE",
"939 749 CURVE"
);
}
);
};
components = (
{
name = A;
},
{
name = circumflexcomb_acutecomb;
transform = "{1, 0, 0, 1, 472, 185}";
}
);
layerId = UUID0;
width = 554;
},
{
components = (
{
name = A;
},
{
name = caroncomb.case;
transform = "{-1, 0, 0, -1, 874, 1382}";
}
);
layerId = "FC8172F8-A6F4-4E62-B6CE-F5E7C4B552CE";
paths = (
{
closed = 1;
nodes = (
"416 948 LINE",
"408 946 LINE",
"344 851 LINE",
"375 827 LINE",
"383 827 LINE",
"459 918 LINE",
"457 926 LINE"
);
}
);
width = 580;
},
{
background = {
paths = (
{
closed = 1;
nodes = (
"416 948 LINE",
"408 946 LINE",
"344 851 LINE",
"375 827 LINE",
"383 827 LINE",
"459 918 LINE",
"457 926 LINE"
);
},
{
closed = 1;
nodes = (
"347 641 LINE",
"247 641 LINE",
"13 0 LINE",
"99 0 LINE",
"115 70 LINE",
"291 554 LINE",
"298 554 LINE",
"456 66 LINE",
"471 0 LINE",
"559 0 LINE"
);
},
{
closed = 1;
nodes = (
"445 244 LINE",
"287 241 LINE",
"129 244 LINE",
"129 170 LINE",
"280 173 LINE",
"445 170 LINE"
);
},
{
closed = 1;
nodes = (
"956 713 LINE",
"965 713 LINE",
"1001 735 OFFCURVE",
"1035 756 OFFCURVE",
"1069 779 CURVE",
"1103 756 OFFCURVE",
"1137 735 OFFCURVE",
"1172 713 CURVE",
"1182 713 LINE",
"1198 749 LINE",
"1156 778 OFFCURVE",
"1117 809 OFFCURVE",
"1079 841 CURVE",
"1057 841 LINE",
"1021 809 OFFCURVE",
"981 778 OFFCURVE",
"939 749 CURVE"
);
}
);
};
components = (
{
name = A;
},
{
name = circumflexcomb_acutecomb;
transform = "{1, 0, 0, 1, 509, 175}";
}
);
layerId = "2DCE43FE-4436-4BBF-8775-653F8291D466";
width = 627;
}
);
leftKerningGroup = A;
rightKerningGroup = A;
unicode = 1EA4;
},
{
glyphname = Acircumflexdotbelow;
lastChange = "2016-11-22 21:42:25 +0000";
layers = (
{
background = {
paths = (
{
closed = 1;
nodes = (
"347 641 LINE",
"247 641 LINE",
"13 0 LINE",
"99 0 LINE",
"115 70 LINE",
"291 554 LINE",
"298 554 LINE",
"456 66 LINE",
"471 0 LINE",
"559 0 LINE"
);
},
{
closed = 1;
nodes = (
"445 244 LINE",
"287 241 LINE",
"129 244 LINE",
"129 170 LINE",
"280 173 LINE",
"445 170 LINE"
);
},
{
closed = 1;
nodes = (
"956 732 LINE",
"965 732 LINE",
"1001 754 OFFCURVE",
"1035 775 OFFCURVE",
"1069 798 CURVE",
"1103 775 OFFCURVE",
"1137 754 OFFCURVE",
"1172 732 CURVE",
"1182 732 LINE",
"1198 768 LINE",
"1156 797 OFFCURVE",
"1117 828 OFFCURVE",
"1079 860 CURVE",
"1057 860 LINE",
"1021 828 OFFCURVE",
"981 797 OFFCURVE",
"939 768 CURVE"
);
},
{
closed = 1;
nodes = (
"257 -68 OFFCURVE",
"238 -88 OFFCURVE",
"238 -118 CURVE SMOOTH",
"238 -148 OFFCURVE",
"255 -166 OFFCURVE",
"285 -166 CURVE SMOOTH",
"315 -166 OFFCURVE",
"334 -146 OFFCURVE",
"334 -115 CURVE SMOOTH",
"334 -86 OFFCURVE",
"317 -68 OFFCURVE",
"288 -68 CURVE SMOOTH"
);
}
);
};
components = (
{
name = A;
},
{
name = caroncomb.case;
transform = "{-1, 0, 0, -1, 862, 1372}";
},
{
name = period;
transform = "{1, 0, 0, 1, 0, -126}";
}
);
layerId = UUID0;
width = 554;
},
{
components = (
{
name = A;
},
{
name = caroncomb.case;
transform = "{-1, 0, 0, -1, 874, 1401}";
},
{
name = period;
transform = "{1, 0, 0, 1, 172, -161}";
}
);
layerId = "FC8172F8-A6F4-4E62-B6CE-F5E7C4B552CE";
width = 580;
},
{
background = {
paths = (
{
closed = 1;
nodes = (
"347 641 LINE",
"247 641 LINE",
"13 0 LINE",
"99 0 LINE",
"115 70 LINE",
"291 554 LINE",
"298 554 LINE",
"456 66 LINE",
"471 0 LINE",
"559 0 LINE"
);
},
{
closed = 1;
nodes = (
"445 244 LINE",
"287 241 LINE",
"129 244 LINE",
"129 170 LINE",
"280 173 LINE",
"445 170 LINE"
);
},
{
closed = 1;
nodes = (
"956 732 LINE",
"965 732 LINE",
"1001 754 OFFCURVE",
"1035 775 OFFCURVE",
"1069 798 CURVE",
"1103 775 OFFCURVE",
"1137 754 OFFCURVE",
"1172 732 CURVE",
"1182 732 LINE",
"1198 768 LINE",
"1156 797 OFFCURVE",
"1117 828 OFFCURVE",
"1079 860 CURVE",
"1057 860 LINE",
"1021 828 OFFCURVE",
"981 797 OFFCURVE",
"939 768 CURVE"
);
},
{
closed = 1;
nodes = (
"257 -68 OFFCURVE",
"238 -88 OFFCURVE",
"238 -118 CURVE SMOOTH",
"238 -148 OFFCURVE",
"255 -166 OFFCURVE",
"285 -166 CURVE SMOOTH",
"315 -166 OFFCURVE",
"334 -146 OFFCURVE",
"334 -115 CURVE SMOOTH",
"334 -86 OFFCURVE",
"317 -68 OFFCURVE",
"288 -68 CURVE SMOOTH"
);
}
);
};
components = (
{
name = A;
},
{
name = caroncomb.case;
transform = "{-1, 0, 0, -1, 898, 1453}";
},
{
name = period;
transform = "{1, 0, 0, 1, 6, -222}";
}
);
layerId = "2DCE43FE-4436-4BBF-8775-653F8291D466";
width = 627;
}
);
leftKerningGroup = A;
rightKerningGroup = A;
unicode = 1EAC;
},
{
glyphname = Acircumflexgrave;
lastChange = "2016-11-22 21:42:25 +0000";
layers = (
{
background = {
paths = (
{
closed = 1;
nodes = (
"393 827 LINE",
"401 827 LINE",
"432 851 LINE",
"367 946 LINE",
"359 948 LINE",
"318 926 LINE",
"317 918 LINE"
);
},
{
closed = 1;
nodes = (
"347 641 LINE",
"247 641 LINE",
"13 0 LINE",
"99 0 LINE",
"115 70 LINE",
"291 554 LINE",
"298 554 LINE",
"456 66 LINE",
"471 0 LINE",
"559 0 LINE"
);
},
{
closed = 1;
nodes = (
"445 244 LINE",
"287 241 LINE",
"129 244 LINE",
"129 170 LINE",
"280 173 LINE",
"445 170 LINE"
);
},
{
closed = 1;
nodes = (
"956 713 LINE",
"965 713 LINE",
"1001 735 OFFCURVE",
"1035 756 OFFCURVE",
"1069 779 CURVE",
"1103 756 OFFCURVE",
"1137 735 OFFCURVE",
"1172 713 CURVE",
"1182 713 LINE",
"1198 749 LINE",
"1156 778 OFFCURVE",
"1117 809 OFFCURVE",
"1079 841 CURVE",
"1057 841 LINE",
"1021 809 OFFCURVE",
"981 778 OFFCURVE",
"939 749 CURVE"
);
}
);
};
components = (
{
name = A;
},
{
name = circumflexcomb_gravecomb;
transform = "{1, 0, 0, 1, 472, 185}";
}
);
layerId = UUID0;
width = 554;
},
{
components = (
{
name = A;
},
{
name = caroncomb.case;
transform = "{-1, 0, 0, -1, 874, 1382}";
}
);
layerId = "FC8172F8-A6F4-4E62-B6CE-F5E7C4B552CE";
paths = (
{
closed = 1;
nodes = (
"393 827 LINE",
"401 827 LINE",
"432 851 LINE",
"367 946 LINE",
"359 948 LINE",
"318 926 LINE",
"317 918 LINE"
);
}
);
width = 580;
},
{
background = {
paths = (
{
closed = 1;
nodes = (
"393 827 LINE",
"401 827 LINE",
"432 851 LINE",
"367 946 LINE",
"359 948 LINE",
"318 926 LINE",
"317 918 LINE"
);
},
{
closed = 1;
nodes = (
"347 641 LINE",
"247 641 LINE",
"13 0 LINE",
"99 0 LINE",
"115 70 LINE",
"291 554 LINE",
"298 554 LINE",
"456 66 LINE",
"471 0 LINE",
"559 0 LINE"
);
},
{
closed = 1;
nodes = (
"445 244 LINE",
"287 241 LINE",
"129 244 LINE",
"129 170 LINE",
"280 173 LINE",
"445 170 LINE"
);
},
{
closed = 1;
nodes = (
"956 713 LINE",
"965 713 LINE",
"1001 735 OFFCURVE",
"1035 756 OFFCURVE",
"1069 779 CURVE",
"1103 756 OFFCURVE",
"1137 735 OFFCURVE",
"1172 713 CURVE",
"1182 713 LINE",
"1198 749 LINE",
"1156 778 OFFCURVE",
"1117 809 OFFCURVE",
"1079 841 CURVE",
"1057 841 LINE",
"1021 809 OFFCURVE",
"981 778 OFFCURVE",
"939 749 CURVE"
);
}
);
};
components = (
{
name = A;
},
{
name = circumflexcomb_gravecomb;
transform = "{1, 0, 0, 1, 509, 175}";
}
);
layerId = "2DCE43FE-4436-4BBF-8775-653F8291D466";
width = 627;
}
);
leftKerningGroup = A;
rightKerningGroup = A;
unicode = 1EA6;
},
{
glyphname = Acircumflexhookabove;
lastChange = "2016-11-22 21:42:25 +0000";
layers = (
{
background = {
paths = (
{
closed = 1;
nodes = (
"347 641 LINE",
"247 641 LINE",
"13 0 LINE",
"99 0 LINE",
"115 70 LINE",
"291 554 LINE",
"298 554 LINE",
"456 66 LINE",
"471 0 LINE",
"559 0 LINE"
);
},
{
closed = 1;
nodes = (
"445 244 LINE",
"287 241 LINE",
"129 244 LINE",
"129 170 LINE",
"280 173 LINE",
"445 170 LINE"
);
},
{
closed = 1;
nodes = (
"368 995 OFFCURVE",
"337 981 OFFCURVE",
"313 956 CURVE",
"328 931 LINE",
"346 946 OFFCURVE",
"368 955 OFFCURVE",
"384 955 CURVE SMOOTH",
"400 955 OFFCURVE",
"411 947 OFFCURVE",
"411 934 CURVE SMOOTH",
"411 918 OFFCURVE",
"393 894 OFFCURVE",
"361 873 CURVE",
"393 820 LINE",
"425 838 LINE",
"406 870 LINE",
"441 899 OFFCURVE",
"456 920 OFFCURVE",
"456 942 CURVE SMOOTH",
"456 972 OFFCURVE",
"431 995 OFFCURVE",
"396 995 CURVE SMOOTH"
);
},
{
closed = 1;
nodes = (
"956 713 LINE",
"965 713 LINE",
"1001 735 OFFCURVE",
"1035 756 OFFCURVE",
"1069 779 CURVE",
"1103 756 OFFCURVE",
"1137 735 OFFCURVE",
"1172 713 CURVE",
"1182 713 LINE",
"1198 749 LINE",
"1156 778 OFFCURVE",
"1117 809 OFFCURVE",
"1079 841 CURVE",
"1057 841 LINE",
"1021 809 OFFCURVE",
"981 778 OFFCURVE",
"939 749 CURVE"
);
}
);
};
components = (
{
name = A;
},
{
name = hookabovecomb;
transform = "{0.952, 0, 0, 0.952, 518, 331}";
},
{
name = caroncomb.case;
transform = "{-1, 0, 0, -1, 862, 1372}";
}
);
layerId = UUID0;
width = 554;
},
{
components = (
{
name = A;
},
{
name = hookabovecomb;
transform = "{0.952, 0, 0, 0.952, 584, 339}";
},
{
name = caroncomb.case;
transform = "{-1, 0, 0, -1, 874, 1382}";
}
);
layerId = "FC8172F8-A6F4-4E62-B6CE-F5E7C4B552CE";
width = 580;
},
{
background = {
paths = (
{
closed = 1;
nodes = (
"347 641 LINE",
"247 641 LINE",
"13 0 LINE",
"99 0 LINE",
"115 70 LINE",
"291 554 LINE",
"298 554 LINE",
"456 66 LINE",
"471 0 LINE",
"559 0 LINE"
);
},
{
closed = 1;
nodes = (
"445 244 LINE",
"287 241 LINE",
"129 244 LINE",
"129 170 LINE",
"280 173 LINE",
"445 170 LINE"
);
},
{
closed = 1;
nodes = (
"368 995 OFFCURVE",
"337 981 OFFCURVE",
"313 956 CURVE",
"328 931 LINE",
"346 946 OFFCURVE",
"368 955 OFFCURVE",
"384 955 CURVE SMOOTH",
"400 955 OFFCURVE",
"411 947 OFFCURVE",
"411 934 CURVE SMOOTH",
"411 918 OFFCURVE",
"393 894 OFFCURVE",
"361 873 CURVE",
"393 820 LINE",
"425 838 LINE",
"406 870 LINE",
"441 899 OFFCURVE",
"456 920 OFFCURVE",
"456 942 CURVE SMOOTH",
"456 972 OFFCURVE",
"431 995 OFFCURVE",
"396 995 CURVE SMOOTH"
);
},
{
closed = 1;
nodes = (
"956 713 LINE",
"965 713 LINE",
"1001 735 OFFCURVE",
"1035 756 OFFCURVE",
"1069 779 CURVE",
"1103 756 OFFCURVE",
"1137 735 OFFCURVE",
"1172 713 CURVE",
"1182 713 LINE",
"1198 749 LINE",
"1156 778 OFFCURVE",
"1117 809 OFFCURVE",
"1079 841 CURVE",
"1057 841 LINE",
"1021 809 OFFCURVE",
"981 778 OFFCURVE",
"939 749 CURVE"
);
}
);
};
components = (
{
name = A;
},
{
name = hookabovecomb;
transform = "{0.952, 0, 0, 0.952, 572, 386}";
},
{
name = caroncomb.case;
transform = "{-1, 0, 0, -1, 897, 1453}";
}
);
layerId = "2DCE43FE-4436-4BBF-8775-653F8291D466";
width = 627;
}
);
leftKerningGroup = A;
rightKerningGroup = A;
unicode = 1EA8;
},
{
glyphname = Acircumflextilde;
lastChange = "2016-11-22 21:42:25 +0000";
layers = (
{
background = {
paths = (
{
closed = 1;
nodes = (
"347 641 LINE",
"247 641 LINE",
"13 0 LINE",
"99 0 LINE",
"115 70 LINE",
"291 554 LINE",
"298 554 LINE",
"456 66 LINE",
"471 0 LINE",
"559 0 LINE"
);
},
{
closed = 1;
nodes = (
"445 244 LINE",
"287 241 LINE",
"129 244 LINE",
"129 170 LINE",
"280 173 LINE",
"445 170 LINE"
);
},
{
closed = 1;
nodes = (
"424 1001 LINE",
"416 1001 LINE",
"390 975 OFFCURVE",
"374 954 OFFCURVE",
"358 954 CURVE",
"333 954 OFFCURVE",
"246 986 OFFCURVE",
"204 991 CURVE",
"194 987 LINE",
"131 916 LINE",
"131 908 LINE",
"157 881 LINE",
"166 881 LINE",
"191 906 OFFCURVE",
"207 928 OFFCURVE",
"223 928 CURVE",
"249 928 OFFCURVE",
"335 896 OFFCURVE",
"377 891 CURVE",
"387 894 LINE",
"450 966 LINE",
"450 974 LINE"
);
},
{
closed = 1;
nodes = (
"957 733 LINE",
"966 733 LINE",
"1002 755 OFFCURVE",
"1036 776 OFFCURVE",
"1070 799 CURVE",
"1104 776 OFFCURVE",
"1138 755 OFFCURVE",
"1173 733 CURVE",
"1183 733 LINE",
"1199 769 LINE",
"1157 798 OFFCURVE",
"1118 829 OFFCURVE",
"1080 861 CURVE",
"1058 861 LINE",
"1022 829 OFFCURVE",
"982 798 OFFCURVE",
"940 769 CURVE"
);
}
);
};
components = (
{
name = A;
},
{
name = tildecomb;
transform = "{1, 0, 0, 1, 472, 297}";
},
{
name = caroncomb.case;
transform = "{-1, 0, 0, -1, 862, 1372}";
}
);
layerId = UUID0;
width = 554;
},
{
components = (
{
name = A;
},
{
name = tildecomb;
transform = "{1, 0, 0, 1, 485, 330}";
},
{
name = caroncomb.case;
transform = "{-1, 0, 0, -1, 875, 1402}";
}
);
layerId = "FC8172F8-A6F4-4E62-B6CE-F5E7C4B552CE";
width = 580;
},
{
background = {
paths = (
{
closed = 1;
nodes = (
"347 641 LINE",
"247 641 LINE",
"13 0 LINE",
"99 0 LINE",
"115 70 LINE",
"291 554 LINE",
"298 554 LINE",
"456 66 LINE",
"471 0 LINE",
"559 0 LINE"
);
},
{
closed = 1;
nodes = (
"445 244 LINE",
"287 241 LINE",
"129 244 LINE",
"129 170 LINE",
"280 173 LINE",
"445 170 LINE"
);
},
{
closed = 1;
nodes = (
"424 1001 LINE",
"416 1001 LINE",
"390 975 OFFCURVE",
"374 954 OFFCURVE",
"358 954 CURVE",
"333 954 OFFCURVE",
"246 986 OFFCURVE",
"204 991 CURVE",
"194 987 LINE",
"131 916 LINE",
"131 908 LINE",
"157 881 LINE",
"166 881 LINE",
"191 906 OFFCURVE",
"207 928 OFFCURVE",
"223 928 CURVE",
"249 928 OFFCURVE",
"335 896 OFFCURVE",
"377 891 CURVE",
"387 894 LINE",
"450 966 LINE",
"450 974 LINE"
);
},
{
closed = 1;
nodes = (
"957 733 LINE",
"966 733 LINE",
"1002 755 OFFCURVE",
"1036 776 OFFCURVE",
"1070 799 CURVE",
"1104 776 OFFCURVE",
"1138 755 OFFCURVE",
"1173 733 CURVE",
"1183 733 LINE",
"1199 769 LINE",
"1157 798 OFFCURVE",
"1118 829 OFFCURVE",
"1080 861 CURVE",
"1058 861 LINE",
"1022 829 OFFCURVE",
"982 798 OFFCURVE",
"940 769 CURVE"
);
}
);
};
components = (
{
name = A;
},
{
name = tildecomb;
transform = "{1, 0, 0, 1, 510, 385}";
},
{
name = caroncomb.case;
transform = "{-1, 0, 0, -1, 899, 1453}";
}
);
layerId = "2DCE43FE-4436-4BBF-8775-653F8291D466";
width = 627;
}
);
leftKerningGroup = A;
rightKerningGroup = A;
unicode = 1EAA;
},
{
glyphname = Adblgrave;
lastChange = "2016-11-22 21:42:25 +0000";
layers = (
{
background = {
paths = (
{
closed = 1;
nodes = (
"347 641 LINE",
"247 641 LINE",
"13 0 LINE",
"99 0 LINE",
"115 70 LINE",
"291 554 LINE",
"298 554 LINE",
"456 66 LINE",
"471 0 LINE",
"559 0 LINE"
);
},
{
closed = 1;
nodes = (
"445 244 LINE",
"287 241 LINE",
"129 244 LINE",
"129 170 LINE",
"280 173 LINE",
"445 170 LINE"
);
},
{
closed = 1;
nodes = (
"262 743 LINE",
"225 784 OFFCURVE",
"188 823 OFFCURVE",
"153 865 CURVE",
"145 866 LINE",
"106 839 LINE",
"105 830 LINE",
"144 792 OFFCURVE",
"184 756 OFFCURVE",
"225 719 CURVE",
"233 718 LINE"
);
},
{
closed = 1;
nodes = (
"406 743 LINE",
"368 784 OFFCURVE",
"332 823 OFFCURVE",
"297 865 CURVE",
"289 866 LINE",
"250 839 LINE",
"249 830 LINE",
"288 792 OFFCURVE",
"328 756 OFFCURVE",
"368 719 CURVE",
"377 718 LINE"
);
}
);
};
components = (
{
name = A;
},
{
name = dblgravecomb.case;
transform = "{1, 0, 0, 1, 432, 185}";
}
);
layerId = UUID0;
width = 554;
},
{
components = (
{
name = A;
},
{
name = dblgravecomb.case;
transform = "{1, 0, 0, 1, 450, 182}";
}
);
layerId = "FC8172F8-A6F4-4E62-B6CE-F5E7C4B552CE";
width = 580;
},
{
background = {
paths = (
{
closed = 1;
nodes = (
"347 641 LINE",
"247 641 LINE",
"13 0 LINE",
"99 0 LINE",
"115 70 LINE",
"291 554 LINE",
"298 554 LINE",
"456 66 LINE",
"471 0 LINE",
"559 0 LINE"
);
},
{
closed = 1;
nodes = (
"445 244 LINE",
"287 241 LINE",
"129 244 LINE",
"129 170 LINE",
"280 173 LINE",
"445 170 LINE"
);
},
{
closed = 1;
nodes = (
"262 743 LINE",
"225 784 OFFCURVE",
"188 823 OFFCURVE",
"153 865 CURVE",
"145 866 LINE",
"106 839 LINE",
"105 830 LINE",
"144 792 OFFCURVE",
"184 756 OFFCURVE",
"225 719 CURVE",
"233 718 LINE"
);
},
{
closed = 1;
nodes = (
"406 743 LINE",
"368 784 OFFCURVE",
"332 823 OFFCURVE",
"297 865 CURVE",
"289 866 LINE",
"250 839 LINE",
"249 830 LINE",
"288 792 OFFCURVE",
"328 756 OFFCURVE",
"368 719 CURVE",
"377 718 LINE"
);
}
);
};
components = (
{
name = A;
},
{
name = dblgravecomb.case;
transform = "{1, 0, 0, 1, 479, 175}";
}
);
layerId = "2DCE43FE-4436-4BBF-8775-653F8291D466";
width = 627;
}
);
unicode = 0200;
},
{
glyphname = Adieresis;
lastChange = "2016-11-22 21:42:25 +0000";
layers = (
{
background = {
paths = (
{
closed = 1;
nodes = (
"347 641 LINE",
"247 641 LINE",
"13 0 LINE",
"99 0 LINE",
"115 70 LINE",
"291 554 LINE",
"298 554 LINE",
"456 66 LINE",
"471 0 LINE",
"559 0 LINE"
);
},
{
closed = 1;
nodes = (
"445 244 LINE",
"287 241 LINE",
"129 244 LINE",
"129 170 LINE",
"280 173 LINE",
"445 170 LINE"
);
},
{
closed = 1;
nodes = (
"185 837 OFFCURVE",
"167 818 OFFCURVE",
"167 789 CURVE SMOOTH",
"167 760 OFFCURVE",
"183 743 OFFCURVE",
"212 743 CURVE SMOOTH",
"240 743 OFFCURVE",
"258 762 OFFCURVE",
"258 792 CURVE SMOOTH",
"258 819 OFFCURVE",
"242 837 OFFCURVE",
"215 837 CURVE SMOOTH"
);
},
{
closed = 1;
nodes = (
"344 837 OFFCURVE",
"326 818 OFFCURVE",
"326 789 CURVE SMOOTH",
"326 760 OFFCURVE",
"342 743 OFFCURVE",
"371 743 CURVE SMOOTH",
"399 743 OFFCURVE",
"417 762 OFFCURVE",
"417 792 CURVE SMOOTH",
"417 819 OFFCURVE",
"401 837 OFFCURVE",
"374 837 CURVE SMOOTH"
);
}
);
};
components = (
{
name = A;
},
{
name = dieresiscomb;
transform = "{1, 0, 0, 1, 473, 185}";
}
);
layerId = UUID0;
width = 554;
},
{
components = (
{
name = A;
},
{
name = dieresiscomb;
transform = "{1, 0, 0, 1, 486, 182}";
}
);
layerId = "FC8172F8-A6F4-4E62-B6CE-F5E7C4B552CE";
width = 580;
},
{
background = {
paths = (
{
closed = 1;
nodes = (
"347 641 LINE",
"247 641 LINE",
"13 0 LINE",
"99 0 LINE",
"115 70 LINE",
"291 554 LINE",
"298 554 LINE",
"456 66 LINE",
"471 0 LINE",
"559 0 LINE"
);
},
{
closed = 1;
nodes = (
"445 244 LINE",
"287 241 LINE",
"129 244 LINE",
"129 170 LINE",
"280 173 LINE",
"445 170 LINE"
);
},
{
closed = 1;
nodes = (
"185 837 OFFCURVE",
"167 818 OFFCURVE",
"167 789 CURVE SMOOTH",
"167 760 OFFCURVE",
"183 743 OFFCURVE",
"212 743 CURVE SMOOTH",
"240 743 OFFCURVE",
"258 762 OFFCURVE",
"258 792 CURVE SMOOTH",
"258 819 OFFCURVE",
"242 837 OFFCURVE",
"215 837 CURVE SMOOTH"
);
},
{
closed = 1;
nodes = (
"344 837 OFFCURVE",
"326 818 OFFCURVE",
"326 789 CURVE SMOOTH",
"326 760 OFFCURVE",
"342 743 OFFCURVE",
"371 743 CURVE SMOOTH",
"399 743 OFFCURVE",
"417 762 OFFCURVE",
"417 792 CURVE SMOOTH",
"417 819 OFFCURVE",
"401 837 OFFCURVE",
"374 837 CURVE SMOOTH"
);
}
);
};
components = (
{
name = A;
},
{
name = dieresiscomb;
transform = "{1, 0, 0, 1, 508, 175}";
}
);
layerId = "2DCE43FE-4436-4BBF-8775-653F8291D466";
width = 627;
}
);
leftKerningGroup = A;
rightKerningGroup = A;
unicode = 00C4;
},
{
glyphname = Adotbelow;
lastChange = "2016-11-22 21:42:23 +0000";
layers = (
{
background = {
paths = (
{
closed = 1;
nodes = (
"347 641 LINE",
"247 641 LINE",
"13 0 LINE",
"99 0 LINE",
"115 70 LINE",
"291 554 LINE",
"298 554 LINE",
"456 66 LINE",
"471 0 LINE",
"559 0 LINE"
);
},
{
closed = 1;
nodes = (
"445 244 LINE",
"287 241 LINE",
"129 244 LINE",
"129 170 LINE",
"280 173 LINE",
"445 170 LINE"
);
},
{
closed = 1;
nodes = (
"257 -68 OFFCURVE",
"238 -88 OFFCURVE",
"238 -118 CURVE SMOOTH",
"238 -148 OFFCURVE",
"255 -166 OFFCURVE",
"285 -166 CURVE SMOOTH",
"315 -166 OFFCURVE",
"334 -146 OFFCURVE",
"334 -115 CURVE SMOOTH",
"334 -86 OFFCURVE",
"317 -68 OFFCURVE",
"288 -68 CURVE SMOOTH"
);
}
);
};
components = (
{
name = A;
},
{
name = period;
transform = "{1, 0, 0, 1, 160, -126}";
}
);
layerId = UUID0;
width = 554;
},
{
components = (
{
name = A;
},
{
name = period;
transform = "{1, 0, 0, 1, 172, -161}";
}
);
layerId = "FC8172F8-A6F4-4E62-B6CE-F5E7C4B552CE";
width = 580;
},
{
background = {
paths = (
{
closed = 1;
nodes = (
"347 641 LINE",
"247 641 LINE",
"13 0 LINE",
"99 0 LINE",
"115 70 LINE",
"291 554 LINE",
"298 554 LINE",
"456 66 LINE",
"471 0 LINE",
"559 0 LINE"
);
},
{
closed = 1;
nodes = (
"445 244 LINE",
"287 241 LINE",
"129 244 LINE",
"129 170 LINE",
"280 173 LINE",
"445 170 LINE"
);
},
{
closed = 1;
nodes = (
"257 -68 OFFCURVE",
"238 -88 OFFCURVE",
"238 -118 CURVE SMOOTH",
"238 -148 OFFCURVE",
"255 -166 OFFCURVE",
"285 -166 CURVE SMOOTH",
"315 -166 OFFCURVE",
"334 -146 OFFCURVE",
"334 -115 CURVE SMOOTH",
"334 -86 OFFCURVE",
"317 -68 OFFCURVE",
"288 -68 CURVE SMOOTH"
);
}
);
};
components = (
{
name = A;
},
{
name = period;
transform = "{1, 0, 0, 1, 194, -222}";
}
);
layerId = "2DCE43FE-4436-4BBF-8775-653F8291D466";
width = 627;
}
);
leftKerningGroup = A;
rightKerningGroup = A;
unicode = 1EA0;
},
{
glyphname = Agrave;
lastChange = "2016-11-22 21:40:43 +0000";
layers = (
{
background = {
paths = (
{
closed = 1;
nodes = (
"347 641 LINE",
"247 641 LINE",
"13 0 LINE",
"99 0 LINE",
"115 70 LINE",
"291 554 LINE",
"298 554 LINE",
"456 66 LINE",
"471 0 LINE",
"559 0 LINE"
);
},
{
closed = 1;
nodes = (
"445 244 LINE",
"287 241 LINE",
"129 244 LINE",
"129 170 LINE",
"280 173 LINE",
"445 170 LINE"
);
},
{
closed = 1;
nodes = (
"988 866 LINE",
"1055 826 OFFCURVE",
"1117 794 OFFCURVE",
"1181 762 CURVE",
"1166 724 LINE",
"1157 720 LINE",
"1091 747 OFFCURVE",
"1028 773 OFFCURVE",
"959 805 CURVE",
"956 814 LINE",
"978 864 LINE"
);
}
);
};
components = (
{
name = A;
},
{
name = gravecomb.case;
transform = "{1, 0, 0, 1, 471, 185}";
}
);
layerId = UUID0;
width = 554;
},
{
components = (
{
name = A;
},
{
name = acutecomb.case;
transform = "{-1, 0, 0, 1, 874, 182}";
}
);
layerId = "FC8172F8-A6F4-4E62-B6CE-F5E7C4B552CE";
width = 580;
},
{
background = {
paths = (
{
closed = 1;
nodes = (
"347 641 LINE",
"247 641 LINE",
"13 0 LINE",
"99 0 LINE",
"115 70 LINE",
"291 554 LINE",
"298 554 LINE",
"456 66 LINE",
"471 0 LINE",
"559 0 LINE"
);
},
{
closed = 1;
nodes = (
"445 244 LINE",
"287 241 LINE",
"129 244 LINE",
"129 170 LINE",
"280 173 LINE",
"445 170 LINE"
);
},
{
closed = 1;
nodes = (
"988 866 LINE",
"1055 826 OFFCURVE",
"1117 794 OFFCURVE",
"1181 762 CURVE",
"1166 724 LINE",
"1157 720 LINE",
"1091 747 OFFCURVE",
"1028 773 OFFCURVE",
"959 805 CURVE",
"956 814 LINE",
"978 864 LINE"
);
}
);
};
components = (
{
name = A;
},
{
name = gravecomb.case;
transform = "{1, 0, 0, 1, 508, 175}";
}
);
layerId = "2DCE43FE-4436-4BBF-8775-653F8291D466";
width = 627;
}
);
leftKerningGroup = A;
rightKerningGroup = A;
unicode = 00C0;
},
{
glyphname = Ahookabove;
lastChange = "2016-11-22 21:42:23 +0000";
layers = (
{
background = {
paths = (
{
closed = 1;
nodes = (
"347 641 LINE",
"247 641 LINE",
"13 0 LINE",
"99 0 LINE",
"115 70 LINE",
"291 554 LINE",
"298 554 LINE",
"456 66 LINE",
"471 0 LINE",
"559 0 LINE"
);
},
{
closed = 1;
nodes = (
"445 244 LINE",
"287 241 LINE",
"129 244 LINE",
"129 170 LINE",
"280 173 LINE",
"445 170 LINE"
);
},
{
closed = 1;
nodes = (
"258 871 OFFCURVE",
"226 856 OFFCURVE",
"200 830 CURVE",
"216 804 LINE",
"235 820 OFFCURVE",
"258 829 OFFCURVE",
"275 829 CURVE SMOOTH",
"292 829 OFFCURVE",
"303 821 OFFCURVE",
"303 807 CURVE SMOOTH",
"303 790 OFFCURVE",
"284 765 OFFCURVE",
"251 743 CURVE",
"284 687 LINE",
"318 706 LINE",
"298 740 LINE",
"335 770 OFFCURVE",
"351 792 OFFCURVE",
"351 815 CURVE SMOOTH",
"351 847 OFFCURVE",
"324 871 OFFCURVE",
"287 871 CURVE SMOOTH"
);
}
);
};
components = (
{
name = A;
},
{
name = hookabovecomb;
transform = "{1, 0, 0, 1, 411, 185}";
}
);
layerId = UUID0;
width = 554;
},
{
components = (
{
name = A;
},
{
name = hookabovecomb;
transform = "{1, 0, 0, 1, 485, 182}";
}
);
layerId = "FC8172F8-A6F4-4E62-B6CE-F5E7C4B552CE";
width = 580;
},
{
background = {
paths = (
{
closed = 1;
nodes = (
"347 641 LINE",
"247 641 LINE",
"13 0 LINE",
"99 0 LINE",
"115 70 LINE",
"291 554 LINE",
"298 554 LINE",
"456 66 LINE",
"471 0 LINE",
"559 0 LINE"
);
},
{
closed = 1;
nodes = (
"445 244 LINE",
"287 241 LINE",
"129 244 LINE",
"129 170 LINE",
"280 173 LINE",
"445 170 LINE"
);
},
{
closed = 1;
nodes = (
"258 871 OFFCURVE",
"226 856 OFFCURVE",
"200 830 CURVE",
"216 804 LINE",
"235 820 OFFCURVE",
"258 829 OFFCURVE",
"275 829 CURVE SMOOTH",
"292 829 OFFCURVE",
"303 821 OFFCURVE",
"303 807 CURVE SMOOTH",
"303 790 OFFCURVE",
"284 765 OFFCURVE",
"251 743 CURVE",
"284 687 LINE",
"318 706 LINE",
"298 740 LINE",
"335 770 OFFCURVE",
"351 792 OFFCURVE",
"351 815 CURVE SMOOTH",
"351 847 OFFCURVE",
"324 871 OFFCURVE",
"287 871 CURVE SMOOTH"
);
}
);
};
components = (
{
name = A;
},
{
name = hookabovecomb;
transform = "{1, 0, 0, 1, 429, 175}";
}
);
layerId = "2DCE43FE-4436-4BBF-8775-653F8291D466";
width = 627;
}
);
leftKerningGroup = A;
rightKerningGroup = A;
unicode = 1EA2;
},
{
glyphname = Ainvertedbreve;
lastChange = "2016-11-22 21:42:25 +0000";
layers = (
{
background = {
paths = (
{
closed = 1;
nodes = (
"347 641 LINE",
"247 641 LINE",
"13 0 LINE",
"99 0 LINE",
"115 70 LINE",
"291 554 LINE",
"298 554 LINE",
"456 66 LINE",
"471 0 LINE",
"559 0 LINE"
);
},
{
closed = 1;
nodes = (
"445 244 LINE",
"287 241 LINE",
"129 244 LINE",
"129 170 LINE",
"280 173 LINE",
"445 170 LINE"
);
},
{
closed = 1;
nodes = (
"962 722 LINE",
"975 722 LINE",
"988 780 OFFCURVE",
"1019 808 OFFCURVE",
"1068 808 CURVE SMOOTH",
"1116 808 OFFCURVE",
"1148 780 OFFCURVE",
"1161 722 CURVE",
"1174 722 LINE",
"1197 753 LINE",
"1182 822 OFFCURVE",
"1143 869 OFFCURVE",
"1070 869 CURVE SMOOTH",
"997 869 OFFCURVE",
"956 824 OFFCURVE",
"939 753 CURVE"
);
}
);
};
components = (
{
name = A;
},
{
name = brevecomb;
transform = "{-1, 0, 0, -1, 862, 1357}";
}
);
layerId = UUID0;
width = 554;
},
{
components = (
{
name = A;
},
{
name = brevecomb;
transform = "{-1, 0, 0, -1, 874, 1396}";
}
);
layerId = "FC8172F8-A6F4-4E62-B6CE-F5E7C4B552CE";
width = 580;
},
{
background = {
paths = (
{
closed = 1;
nodes = (
"347 641 LINE",
"247 641 LINE",
"13 0 LINE",
"99 0 LINE",
"115 70 LINE",
"291 554 LINE",
"298 554 LINE",
"456 66 LINE",
"471 0 LINE",
"559 0 LINE"
);
},
{
closed = 1;
nodes = (
"445 244 LINE",
"287 241 LINE",
"129 244 LINE",
"129 170 LINE",
"280 173 LINE",
"445 170 LINE"
);
},
{
closed = 1;
nodes = (
"962 722 LINE",
"975 722 LINE",
"988 780 OFFCURVE",
"1019 808 OFFCURVE",
"1068 808 CURVE SMOOTH",
"1116 808 OFFCURVE",
"1148 780 OFFCURVE",
"1161 722 CURVE",
"1174 722 LINE",
"1197 753 LINE",
"1182 822 OFFCURVE",
"1143 869 OFFCURVE",
"1070 869 CURVE SMOOTH",
"997 869 OFFCURVE",
"956 824 OFFCURVE",
"939 753 CURVE"
);
}
);
};
components = (
{
name = A;
},
{
name = brevecomb;
transform = "{-1, 0, 0, -1, 897, 1463}";
}
);
layerId = "2DCE43FE-4436-4BBF-8775-653F8291D466";
width = 627;
}
);
unicode = 0202;
},
{
glyphname = Amacron;
lastChange = "2016-11-22 21:42:25 +0000";
layers = (
{
background = {
paths = (
{
closed = 1;
nodes = (
"347 641 LINE",
"247 641 LINE",
"13 0 LINE",
"99 0 LINE",
"115 70 LINE",
"291 554 LINE",
"298 554 LINE",
"456 66 LINE",
"471 0 LINE",
"559 0 LINE"
);
},
{
closed = 1;
nodes = (
"445 244 LINE",
"287 241 LINE",
"129 244 LINE",
"129 170 LINE",
"280 173 LINE",
"445 170 LINE"
);
},
{
closed = 1;
nodes = (
"431 819 LINE",
"148 819 LINE",
"144 770 LINE",
"150 763 LINE",
"433 763 LINE",
"438 813 LINE"
);
}
);
};
components = (
{
name = A;
},
{
name = macroncomb;
transform = "{1, 0, 0, 1, 472, 185}";
}
);
layerId = UUID0;
width = 554;
},
{
components = (
{
name = A;
},
{
name = macroncomb;
transform = "{1, 0, 0, 1, 485, 182}";
}
);
layerId = "FC8172F8-A6F4-4E62-B6CE-F5E7C4B552CE";
width = 580;
},
{
background = {
paths = (
{
closed = 1;
nodes = (
"347 641 LINE",
"247 641 LINE",
"13 0 LINE",
"99 0 LINE",
"115 70 LINE",
"291 554 LINE",
"298 554 LINE",
"456 66 LINE",
"471 0 LINE",
"559 0 LINE"
);
},
{
closed = 1;
nodes = (
"445 244 LINE",
"287 241 LINE",
"129 244 LINE",
"129 170 LINE",
"280 173 LINE",
"445 170 LINE"
);
},
{
closed = 1;
nodes = (
"431 819 LINE",
"148 819 LINE",
"144 770 LINE",
"150 763 LINE",
"433 763 LINE",
"438 813 LINE"
);
}
);
};
components = (
{
name = A;
},
{
name = macroncomb;
transform = "{1, 0, 0, 1, 508, 175}";
}
);
layerId = "2DCE43FE-4436-4BBF-8775-653F8291D466";
width = 627;
}
);
leftKerningGroup = A;
rightKerningGroup = A;
unicode = 0100;
},
{
glyphname = Aogonek;
lastChange = "2016-11-22 21:42:25 +0000";
layers = (
{
background = {
paths = (
{
closed = 1;
nodes = (
"486 0 LINE",
"445 -58 OFFCURVE",
"433 -87 OFFCURVE",
"433 -118 CURVE SMOOTH",
"433 -167 OFFCURVE",
"464 -197 OFFCURVE",
"511 -197 CURVE SMOOTH",
"548 -197 OFFCURVE",
"580 -178 OFFCURVE",
"612 -144 CURVE",
"601 -104 LINE",
"596 -104 LINE",
"573 -126 OFFCURVE",
"547 -140 OFFCURVE",
"522 -140 CURVE SMOOTH",
"500 -140 OFFCURVE",
"489 -129 OFFCURVE",
"489 -106 CURVE SMOOTH",
"489 -83 OFFCURVE",
"500 -56 OFFCURVE",
"539 1 CURVE"
);
},
{
closed = 1;
nodes = (
"347 641 LINE",
"247 641 LINE",
"13 0 LINE",
"99 0 LINE",
"115 70 LINE",
"291 554 LINE",
"298 554 LINE",
"456 66 LINE",
"471 0 LINE",
"559 0 LINE"
);
},
{
closed = 1;
nodes = (
"445 244 LINE",
"287 241 LINE",
"129 244 LINE",
"129 170 LINE",
"280 173 LINE",
"445 170 LINE"
);
}
);
};
components = (
{
name = A;
},
{
name = ogonekcomb.i;
transform = "{1, 0, 0, 1, 608, 0}";
}
);
layerId = UUID0;
width = 554;
},
{
components = (
{
name = A;
}
);
layerId = "FC8172F8-A6F4-4E62-B6CE-F5E7C4B552CE";
paths = (
{
closed = 1;
nodes = (
"486 0 LINE",
"445 -58 OFFCURVE",
"433 -87 OFFCURVE",
"433 -118 CURVE SMOOTH",
"433 -167 OFFCURVE",
"464 -197 OFFCURVE",
"511 -197 CURVE SMOOTH",
"548 -197 OFFCURVE",
"580 -178 OFFCURVE",
"612 -144 CURVE",
"601 -104 LINE",
"596 -104 LINE",
"573 -126 OFFCURVE",
"547 -140 OFFCURVE",
"522 -140 CURVE SMOOTH",
"500 -140 OFFCURVE",
"489 -129 OFFCURVE",
"489 -106 CURVE SMOOTH",
"489 -83 OFFCURVE",
"500 -56 OFFCURVE",
"539 1 CURVE"
);
}
);
width = 580;
},
{
background = {
paths = (
{
closed = 1;
nodes = (
"486 0 LINE",
"445 -58 OFFCURVE",
"433 -87 OFFCURVE",
"433 -118 CURVE SMOOTH",
"433 -167 OFFCURVE",
"464 -197 OFFCURVE",
"511 -197 CURVE SMOOTH",
"548 -197 OFFCURVE",
"580 -178 OFFCURVE",
"612 -144 CURVE",
"601 -104 LINE",
"596 -104 LINE",
"573 -126 OFFCURVE",
"547 -140 OFFCURVE",
"522 -140 CURVE SMOOTH",
"500 -140 OFFCURVE",
"489 -129 OFFCURVE",
"489 -106 CURVE SMOOTH",
"489 -83 OFFCURVE",
"500 -56 OFFCURVE",
"539 1 CURVE"
);
},
{
closed = 1;
nodes = (
"347 641 LINE",
"247 641 LINE",
"13 0 LINE",
"99 0 LINE",
"115 70 LINE",
"291 554 LINE",
"298 554 LINE",
"456 66 LINE",
"471 0 LINE",
"559 0 LINE"
);
},
{
closed = 1;
nodes = (
"445 244 LINE",
"287 241 LINE",
"129 244 LINE",
"129 170 LINE",
"280 173 LINE",
"445 170 LINE"
);
}
);
};
components = (
{
name = A;
},
{
name = ogonekcomb.i;
transform = "{1, 0, 0, 1, 664, 0}";
}
);
layerId = "2DCE43FE-4436-4BBF-8775-653F8291D466";
width = 627;
}
);
unicode = 0104;
},
{
glyphname = Aring;
lastChange = "2016-11-22 21:42:25 +0000";
layers = (
{
background = {
paths = (
{
closed = 1;
nodes = (
"347 641 LINE",
"247 641 LINE",
"13 0 LINE",
"99 0 LINE",
"115 70 LINE",
"291 554 LINE",
"298 554 LINE",
"456 66 LINE",
"471 0 LINE",
"559 0 LINE"
);
},
{
closed = 1;
nodes = (
"445 244 LINE",
"287 241 LINE",
"129 244 LINE",
"129 170 LINE",
"280 173 LINE",
"445 170 LINE"
);
},
{
closed = 1;
nodes = (
"237 882 OFFCURVE",
"205 849 OFFCURVE",
"205 798 CURVE SMOOTH",
"205 744 OFFCURVE",
"240 714 OFFCURVE",
"288 714 CURVE SMOOTH",
"337 714 OFFCURVE",
"375 745 OFFCURVE",
"375 800 CURVE SMOOTH",
"375 847 OFFCURVE",
"346 882 OFFCURVE",
"291 882 CURVE SMOOTH"
);
},
{
closed = 1;
nodes = (
"320 841 OFFCURVE",
"335 823 OFFCURVE",
"335 797 CURVE SMOOTH",
"335 768 OFFCURVE",
"316 754 OFFCURVE",
"290 754 CURVE SMOOTH",
"263 754 OFFCURVE",
"245 769 OFFCURVE",
"245 799 CURVE SMOOTH",
"245 825 OFFCURVE",
"260 841 OFFCURVE",
"289 841 CURVE SMOOTH"
);
}
);
};
components = (
{
name = A;
},
{
name = ringcomb;
transform = "{1, 0, 0, 1, 472, 185}";
}
);
layerId = UUID0;
width = 554;
},
{
components = (
{
name = A;
},
{
name = ringcomb;
transform = "{1, 0, 0, 1, 485, 182}";
}
);
layerId = "FC8172F8-A6F4-4E62-B6CE-F5E7C4B552CE";
width = 580;
},
{
background = {
paths = (
{
closed = 1;
nodes = (
"347 641 LINE",
"247 641 LINE",
"13 0 LINE",
"99 0 LINE",
"115 70 LINE",
"291 554 LINE",
"298 554 LINE",
"456 66 LINE",
"471 0 LINE",
"559 0 LINE"
);
},
{
closed = 1;
nodes = (
"445 244 LINE",
"287 241 LINE",
"129 244 LINE",
"129 170 LINE",
"280 173 LINE",
"445 170 LINE"
);
},
{
closed = 1;
nodes = (
"237 882 OFFCURVE",
"205 849 OFFCURVE",
"205 798 CURVE SMOOTH",
"205 744 OFFCURVE",
"240 714 OFFCURVE",
"288 714 CURVE SMOOTH",
"337 714 OFFCURVE",
"375 745 OFFCURVE",
"375 800 CURVE SMOOTH",
"375 847 OFFCURVE",
"346 882 OFFCURVE",
"291 882 CURVE SMOOTH"
);
},
{
closed = 1;
nodes = (
"320 841 OFFCURVE",
"335 823 OFFCURVE",
"335 797 CURVE SMOOTH",
"335 768 OFFCURVE",
"316 754 OFFCURVE",
"290 754 CURVE SMOOTH",
"263 754 OFFCURVE",
"245 769 OFFCURVE",
"245 799 CURVE SMOOTH",
"245 825 OFFCURVE",
"260 841 OFFCURVE",
"289 841 CURVE SMOOTH"
);
}
);
};
components = (
{
name = A;
},
{
name = ringcomb;
transform = "{1, 0, 0, 1, 509, 175}";
}
);
layerId = "2DCE43FE-4436-4BBF-8775-653F8291D466";
width = 627;
}
);
leftKerningGroup = A;
rightKerningGroup = A;
unicode = 00C5;
},
{
glyphname = Aringacute;
lastChange = "2016-11-22 21:42:25 +0000";
layers = (
{
anchors = (
{
name = _top;
position = "{285, 540}";
},
{
name = top;
position = "{305, 855}";
}
);
background = {
paths = (
{
closed = 1;
nodes = (
"341 639 LINE",
"252 639 LINE",
"13 0 LINE",
"99 0 LINE",
"115 69 LINE",
"291 548 LINE",
"298 548 LINE",
"456 65 LINE",
"471 0 LINE",
"559 0 LINE"
);
},
{
closed = 1;
nodes = (
"445 242 LINE",
"287 239 LINE",
"129 242 LINE",
"129 168 LINE",
"280 171 LINE",
"445 168 LINE"
);
},
{
closed = 1;
nodes = (
"296 294 LINE"
);
},
{
closed = 1;
nodes = (
"244 768 OFFCURVE",
"212 735 OFFCURVE",
"212 684 CURVE SMOOTH",
"212 630 OFFCURVE",
"247 600 OFFCURVE",
"295 600 CURVE SMOOTH",
"344 600 OFFCURVE",
"382 631 OFFCURVE",
"382 686 CURVE SMOOTH",
"382 733 OFFCURVE",
"353 768 OFFCURVE",
"298 768 CURVE SMOOTH"
);
},
{
closed = 1;
nodes = (
"327 727 OFFCURVE",
"342 709 OFFCURVE",
"342 683 CURVE SMOOTH",
"342 654 OFFCURVE",
"323 640 OFFCURVE",
"297 640 CURVE SMOOTH",
"270 640 OFFCURVE",
"252 655 OFFCURVE",
"252 685 CURVE SMOOTH",
"252 711 OFFCURVE",
"267 727 OFFCURVE",
"296 727 CURVE SMOOTH"
);
},
{
closed = 1;
nodes = (
"306 944 LINE",
"240 905 OFFCURVE",
"179 873 OFFCURVE",
"116 841 CURVE",
"131 804 LINE",
"140 800 LINE",
"205 827 OFFCURVE",
"267 852 OFFCURVE",
"335 884 CURVE",
"338 893 LINE",
"316 942 LINE"
);
}
);
};
layerId = UUID0;
paths = (
{
closed = 1;
nodes = (
"294 634 LINE",
"272 634 LINE",
"19 0 LINE",
"43 0 LINE",
"57 43 LINE",
"280 603 LINE",
"284 603 LINE",
"490 43 LINE",
"503 0 LINE",
"526 0 LINE"
);
},
{
closed = 1;
nodes = (
"432 233 LINE",
"273 233 LINE",
"120 233 LINE",
"115 213 LINE",
"269 213 LINE",
"438 213 LINE"
);
},
{
closed = 1;
nodes = (
"308 297 LINE"
);
},
{
closed = 1;
nodes = (
"283 756 LINE",
"241 756 OFFCURVE",
"213 726 OFFCURVE",
"213 687 CURVE SMOOTH",
"213 643 OFFCURVE",
"248 617 OFFCURVE",
"283 617 CURVE SMOOTH",
"318 617 OFFCURVE",
"354 642 OFFCURVE",
"354 686 CURVE SMOOTH",
"354 721 OFFCURVE",
"329 756 OFFCURVE",
"283 756 CURVE SMOOTH"
);
},
{
closed = 1;
nodes = (
"283 736 LINE",
"317 736 OFFCURVE",
"334 713 OFFCURVE",
"334 686 CURVE SMOOTH",
"334 654 OFFCURVE",
"310 637 OFFCURVE",
"283 637 CURVE SMOOTH",
"256 637 OFFCURVE",
"233 655 OFFCURVE",
"233 687 CURVE SMOOTH",
"233 716 OFFCURVE",
"252 736 OFFCURVE",
"283 736 CURVE SMOOTH"
);
},
{
closed = 1;
nodes = (
"395 855 LINE",
"323 828 OFFCURVE",
"263 809 OFFCURVE",
"205 793 CURVE",
"210 777 LINE",
"214 773 LINE",
"277 792 OFFCURVE",
"338 811 OFFCURVE",
"402 834 CURVE",
"404 839 LINE",
"400 852 LINE"
);
}
);
width = 554;
},
{
components = (
{
name = ringcomb;
transform = "{1, 0, 0, 1, 492, 68}";
},
{
name = acutecomb.case;
transform = "{0.987, 0, 0, 0.987, 419, 269}";
}
);
layerId = "FC8172F8-A6F4-4E62-B6CE-F5E7C4B552CE";
paths = (
{
closed = 1;
nodes = (
"341 639 LINE",
"252 639 LINE",
"13 0 LINE",
"99 0 LINE",
"115 69 LINE",
"291 548 LINE",
"298 548 LINE",
"456 65 LINE",
"471 0 LINE",
"559 0 LINE"
);
},
{
closed = 1;
nodes = (
"445 242 LINE",
"287 239 LINE",
"129 242 LINE",
"129 168 LINE",
"280 171 LINE",
"445 168 LINE"
);
},
{
closed = 1;
nodes = (
"296 294 LINE"
);
}
);
width = 580;
},
{
anchors = (
{
name = _top;
position = "{319, 506}";
},
{
name = top;
position = "{344, 980}";
}
);
background = {
paths = (
{
closed = 1;
nodes = (
"341 639 LINE",
"252 639 LINE",
"13 0 LINE",
"99 0 LINE",
"115 69 LINE",
"291 548 LINE",
"298 548 LINE",
"456 65 LINE",
"471 0 LINE",
"559 0 LINE"
);
},
{
closed = 1;
nodes = (
"445 242 LINE",
"287 239 LINE",
"129 242 LINE",
"129 168 LINE",
"280 171 LINE",
"445 168 LINE"
);
},
{
closed = 1;
nodes = (
"296 294 LINE"
);
},
{
closed = 1;
nodes = (
"244 768 OFFCURVE",
"212 735 OFFCURVE",
"212 684 CURVE SMOOTH",
"212 630 OFFCURVE",
"247 600 OFFCURVE",
"295 600 CURVE SMOOTH",
"344 600 OFFCURVE",
"382 631 OFFCURVE",
"382 686 CURVE SMOOTH",
"382 733 OFFCURVE",
"353 768 OFFCURVE",
"298 768 CURVE SMOOTH"
);
},
{
closed = 1;
nodes = (
"327 727 OFFCURVE",
"342 709 OFFCURVE",
"342 683 CURVE SMOOTH",
"342 654 OFFCURVE",
"323 640 OFFCURVE",
"297 640 CURVE SMOOTH",
"270 640 OFFCURVE",
"252 655 OFFCURVE",
"252 685 CURVE SMOOTH",
"252 711 OFFCURVE",
"267 727 OFFCURVE",
"296 727 CURVE SMOOTH"
);
},
{
closed = 1;
nodes = (
"306 944 LINE",
"240 905 OFFCURVE",
"179 873 OFFCURVE",
"116 841 CURVE",
"131 804 LINE",
"140 800 LINE",
"205 827 OFFCURVE",
"267 852 OFFCURVE",
"335 884 CURVE",
"338 893 LINE",
"316 942 LINE"
);
}
);
};
layerId = "2DCE43FE-4436-4BBF-8775-653F8291D466";
paths = (
{
closed = 1;
nodes = (
"423 647 LINE",
"216 647 LINE",
"2 0 LINE",
"198 0 LINE",
"217 115 LINE",
"309 450 LINE",
"321 450 LINE",
"396 103 LINE",
"414 0 LINE",
"617 0 LINE"
);
},
{
closed = 1;
nodes = (
"412 248 LINE",
"309 246 LINE",
"187 248 LINE",
"187 103 LINE",
"297 108 LINE",
"412 106 LINE"
);
},
{
closed = 1;
nodes = (
"274 288 LINE"
);
},
{
closed = 1;
nodes = (
"324 789 LINE",
"249 789 OFFCURVE",
"210 751 OFFCURVE",
"210 678 CURVE SMOOTH",
"210 607 OFFCURVE",
"246 571 OFFCURVE",
"316 571 CURVE SMOOTH",
"391 571 OFFCURVE",
"430 612 OFFCURVE",
"430 685 CURVE SMOOTH",
"430 754 OFFCURVE",
"395 789 OFFCURVE",
"324 789 CURVE SMOOTH"
);
},
{
closed = 1;
nodes = (
"319 711 LINE",
"345 711 OFFCURVE",
"355 702 OFFCURVE",
"355 678 CURVE SMOOTH",
"355 655 OFFCURVE",
"346 647 OFFCURVE",
"321 647 CURVE SMOOTH",
"295 647 OFFCURVE",
"285 656 OFFCURVE",
"285 681 CURVE SMOOTH",
"285 703 OFFCURVE",
"294 711 OFFCURVE",
"319 711 CURVE SMOOTH"
);
},
{
closed = 1;
nodes = (
"440 980 LINE",
"363 948 OFFCURVE",
"288 919 OFFCURVE",
"200 889 CURVE",
"218 807 LINE",
"235 801 LINE",
"314 810 OFFCURVE",
"391 821 OFFCURVE",
"480 836 CURVE",
"488 851 LINE",
"456 974 LINE"
);
}
);
width = 627;
}
);
leftKerningGroup = A;
rightKerningGroup = A;
unicode = 01FA;
},
{
glyphname = Atilde;
lastChange = "2016-11-22 21:40:43 +0000";
layers = (
{
background = {
paths = (
{
closed = 1;
nodes = (
"347 641 LINE",
"247 641 LINE",
"13 0 LINE",
"99 0 LINE",
"115 70 LINE",
"291 554 LINE",
"298 554 LINE",
"456 66 LINE",
"471 0 LINE",
"559 0 LINE"
);
},
{
closed = 1;
nodes = (
"445 244 LINE",
"287 241 LINE",
"129 244 LINE",
"129 170 LINE",
"280 173 LINE",
"445 170 LINE"
);
},
{
closed = 1;
nodes = (
"424 853 LINE",
"416 853 LINE",
"390 827 OFFCURVE",
"374 806 OFFCURVE",
"358 806 CURVE",
"333 806 OFFCURVE",
"246 837 OFFCURVE",
"203 842 CURVE",
"193 839 LINE",
"131 768 LINE",
"131 760 LINE",
"157 733 LINE",
"166 733 LINE",
"191 758 OFFCURVE",
"207 780 OFFCURVE",
"223 780 CURVE",
"249 780 OFFCURVE",
"336 748 OFFCURVE",
"378 743 CURVE",
"388 747 LINE",
"450 818 LINE",
"450 826 LINE"
);
}
);
};
components = (
{
name = A;
},
{
name = tilde;
transform = "{1, 0, 0, 1, 82, 185}";
}
);
layerId = UUID0;
width = 554;
},
{
components = (
{
name = A;
},
{
name = tilde;
transform = "{1, 0, 0, 1, 96, 182}";
}
);
layerId = "FC8172F8-A6F4-4E62-B6CE-F5E7C4B552CE";
width = 580;
},
{
background = {
paths = (
{
closed = 1;
nodes = (
"347 641 LINE",
"247 641 LINE",
"13 0 LINE",
"99 0 LINE",
"115 70 LINE",
"291 554 LINE",
"298 554 LINE",
"456 66 LINE",
"471 0 LINE",
"559 0 LINE"
);
},
{
closed = 1;
nodes = (
"445 244 LINE",
"287 241 LINE",
"129 244 LINE",
"129 170 LINE",
"280 173 LINE",
"445 170 LINE"
);
},
{
closed = 1;
nodes = (
"424 853 LINE",
"416 853 LINE",
"390 827 OFFCURVE",
"374 806 OFFCURVE",
"358 806 CURVE",
"333 806 OFFCURVE",
"246 837 OFFCURVE",
"203 842 CURVE",
"193 839 LINE",
"131 768 LINE",
"131 760 LINE",
"157 733 LINE",
"166 733 LINE",
"191 758 OFFCURVE",
"207 780 OFFCURVE",
"223 780 CURVE",
"249 780 OFFCURVE",
"336 748 OFFCURVE",
"378 743 CURVE",
"388 747 LINE",
"450 818 LINE",
"450 826 LINE"
);
}
);
};
components = (
{
name = A;
},
{
name = tilde;
transform = "{1, 0, 0, 1, 121, 175}";
}
);
layerId = "2DCE43FE-4436-4BBF-8775-653F8291D466";
width = 627;
}
);
leftKerningGroup = A;
rightKerningGroup = A;
unicode = 00C3;
},
{
glyphname = AE;
lastChange = "2016-11-22 21:40:43 +0000";
layers = (
{
anchors = (
{
name = top;
position = "{493, 637}";
}
);
background = {
paths = (
{
closed = 1;
nodes = (
"699 641 LINE",
"319 641 LINE",
"-16 0 LINE",
"72 0 LINE",
"98 70 LINE",
"352 554 LINE",
"358 554 LINE",
"430 66 LINE",
"435 0 LINE",
"787 0 LINE",
"794 67 LINE",
"788 75 LINE",
"624 69 LINE",
"512 69 LINE",
"440 571 LINE",
"536 571 LINE",
"697 566 LINE",
"705 633 LINE"
);
},
{
closed = 1;
nodes = (
"686 386 LINE",
"457 337 LINE",
"148 268 LINE",
"123 191 LINE",
"464 270 LINE",
"698 318 LINE",
"693 380 LINE"
);
}
);
};
layerId = UUID0;
paths = (
{
closed = 1;
nodes = (
"654 637 LINE",
"353 637 LINE",
"-15 0 LINE",
"12 0 LINE",
"33 43 LINE",
"355 602 LINE",
"358 602 LINE",
"453 43 LINE",
"458 0 LINE",
"762 0 LINE",
"766 16 LINE",
"764 20 LINE",
"600 20 LINE",
"477 20 LINE",
"377 617 LINE",
"485 617 LINE",
"652 617 LINE",
"657 633 LINE"
);
},
{
closed = 1;
nodes = (
"664 352 LINE",
"422 312 LINE",
"141 266 LINE",
"128 243 LINE",
"420 292 LINE",
"664 332 LINE",
"667 349 LINE"
);
}
);
width = 791;
},
{
anchors = (
{
name = top;
position = "{498, 641}";
}
);
layerId = "FC8172F8-A6F4-4E62-B6CE-F5E7C4B552CE";
paths = (
{
closed = 1;
nodes = (
"699 641 LINE",
"319 641 LINE",
"-16 0 LINE",
"72 0 LINE",
"98 70 LINE",
"352 554 LINE",
"358 554 LINE",
"430 66 LINE",
"435 0 LINE",
"787 0 LINE",
"794 67 LINE",
"788 75 LINE",
"624 69 LINE",
"512 69 LINE",
"440 571 LINE",
"536 571 LINE",
"697 566 LINE",
"705 633 LINE"
);
},
{
closed = 1;
nodes = (
"686 386 LINE",
"457 337 LINE",
"148 268 LINE",
"123 191 LINE",
"464 270 LINE",
"698 318 LINE",
"693 380 LINE"
);
}
);
width = 809;
},
{
anchors = (
{
name = top;
position = "{507, 647}";
}
);
background = {
paths = (
{
closed = 1;
nodes = (
"699 641 LINE",
"319 641 LINE",
"-16 0 LINE",
"72 0 LINE",
"98 70 LINE",
"352 554 LINE",
"358 554 LINE",
"430 66 LINE",
"435 0 LINE",
"787 0 LINE",
"794 67 LINE",
"788 75 LINE",
"624 69 LINE",
"512 69 LINE",
"440 571 LINE",
"536 571 LINE",
"697 566 LINE",
"705 633 LINE"
);
},
{
closed = 1;
nodes = (
"686 386 LINE",
"457 337 LINE",
"148 268 LINE",
"123 191 LINE",
"464 270 LINE",
"698 318 LINE",
"693 380 LINE"
);
}
);
};
layerId = "2DCE43FE-4436-4BBF-8775-653F8291D466";
paths = (
{
closed = 1;
nodes = (
"776 647 LINE",
"256 647 LINE",
"-20 0 LINE",
"176 0 LINE",
"210 119 LINE",
"345 468 LINE",
"357 468 LINE",
"387 107 LINE",
"392 0 LINE",
"828 0 LINE",
"840 146 LINE",
"829 160 LINE",
"664 154 LINE",
"573 154 LINE",
"549 493 LINE",
"625 493 LINE",
"774 487 LINE",
"787 633 LINE"
);
},
{
closed = 1;
nodes = (
"726 433 LINE",
"521 368 LINE",
"161 258 LINE",
"115 92 LINE",
"542 222 LINE",
"758 284 LINE",
"740 422 LINE"
);
}
);
width = 840;
}
);
leftKerningGroup = A;
rightKerningGroup = AE;
unicode = 00C6;
},
{
glyphname = AEacute;
lastChange = "2016-11-22 21:40:43 +0000";
layers = (
{
background = {
paths = (
{
closed = 1;
nodes = (
"699 641 LINE",
"319 641 LINE",
"-16 0 LINE",
"72 0 LINE",
"98 70 LINE",
"352 554 LINE",
"358 554 LINE",
"430 66 LINE",
"435 0 LINE",
"787 0 LINE",
"794 67 LINE",
"788 75 LINE",
"624 69 LINE",
"512 69 LINE",
"440 571 LINE",
"536 571 LINE",
"697 566 LINE",
"705 633 LINE"
);
},
{
closed = 1;
nodes = (
"686 386 LINE",
"457 337 LINE",
"148 268 LINE",
"123 191 LINE",
"464 270 LINE",
"698 318 LINE",
"693 380 LINE"
);
},
{
closed = 1;
nodes = (
"599 866 LINE",
"532 826 OFFCURVE",
"470 794 OFFCURVE",
"406 762 CURVE",
"421 724 LINE",
"430 720 LINE",
"496 747 OFFCURVE",
"559 773 OFFCURVE",
"628 805 CURVE",
"631 814 LINE",
"609 864 LINE"
);
}
);
};
components = (
{
name = AE;
},
{
name = acutecomb.case;
transform = "{1, 0, 0, 1, 709, 185}";
}
);
layerId = UUID0;
width = 791;
},
{
components = (
{
name = AE;
},
{
name = acutecomb.case;
transform = "{1, 0, 0, 1, 713, 182}";
}
);
layerId = "FC8172F8-A6F4-4E62-B6CE-F5E7C4B552CE";
width = 809;
},
{
background = {
paths = (
{
closed = 1;
nodes = (
"699 641 LINE",
"319 641 LINE",
"-16 0 LINE",
"72 0 LINE",
"98 70 LINE",
"352 554 LINE",
"358 554 LINE",
"430 66 LINE",
"435 0 LINE",
"787 0 LINE",
"794 67 LINE",
"788 75 LINE",
"624 69 LINE",
"512 69 LINE",
"440 571 LINE",
"536 571 LINE",
"697 566 LINE",
"705 633 LINE"
);
},
{
closed = 1;
nodes = (
"686 386 LINE",
"457 337 LINE",
"148 268 LINE",
"123 191 LINE",
"464 270 LINE",
"698 318 LINE",
"693 380 LINE"
);
},
{
closed = 1;
nodes = (
"599 866 LINE",
"532 826 OFFCURVE",
"470 794 OFFCURVE",
"406 762 CURVE",
"421 724 LINE",
"430 720 LINE",
"496 747 OFFCURVE",
"559 773 OFFCURVE",
"628 805 CURVE",
"631 814 LINE",
"609 864 LINE"
);
}
);
};
components = (
{
name = AE;
},
{
name = acutecomb.case;
transform = "{1, 0, 0, 1, 720, 175}";
}
);
layerId = "2DCE43FE-4436-4BBF-8775-653F8291D466";
width = 840;
}
);
leftKerningGroup = A;
rightKerningGroup = AE;
unicode = 01FC;
},
{
glyphname = B;
lastChange = "2016-11-22 21:40:43 +0000";
layers = (
{
background = {
paths = (
{
closed = 1;
nodes = (
"92 641 LINE",
"136 571 LINE",
"179 572 OFFCURVE",
"222 572 OFFCURVE",
"257 572 CURVE SMOOTH",
"342 572 OFFCURVE",
"376 544 OFFCURVE",
"376 476 CURVE SMOOTH",
"376 410 OFFCURVE",
"344 374 OFFCURVE",
"284 360 CURVE",
"124 364 LINE",
"124 291 LINE",
"296 293 LINE",
"374 283 OFFCURVE",
"416 248 OFFCURVE",
"416 184 CURVE SMOOTH",
"416 108 OFFCURVE",
"356 67 OFFCURVE",
"250 67 CURVE SMOOTH",
"221 67 OFFCURVE",
"173 70 OFFCURVE",
"141 74 CURVE",
"92 0 LINE",
"133 -3 OFFCURVE",
"215 -4 OFFCURVE",
"237 -4 CURVE SMOOTH",
"414 -4 OFFCURVE",
"503 58 OFFCURVE",
"503 179 CURVE SMOOTH",
"503 264 OFFCURVE",
"459 316 OFFCURVE",
"368 334 CURVE",
"429 360 OFFCURVE",
"464 413 OFFCURVE",
"464 486 CURVE SMOOTH",
"464 589 OFFCURVE",
"394 642 OFFCURVE",
"275 642 CURVE"
);
},
{
closed = 1;
nodes = (
"179 641 LINE",
"91 641 LINE",
"97 193 LINE",
"91 0 LINE",
"178 0 LINE",
"174 200 LINE"
);
}
);
};
layerId = UUID0;
paths = (
{
closed = 1;
nodes = (
"110 637 LINE",
"116 618 LINE",
"157 618 OFFCURVE",
"200 618 OFFCURVE",
"240 618 CURVE SMOOTH",
"323 618 OFFCURVE",
"376 569 OFFCURVE",
"376 491 CURVE SMOOTH",
"376 409 OFFCURVE",
"335 355 OFFCURVE",
"260 340 CURVE",
"120 343 LINE",
"120 320 LINE",
"269 320 LINE",
"370 312 OFFCURVE",
"427 262 OFFCURVE",
"427 176 CURVE SMOOTH",
"427 76 OFFCURVE",
"351 17 OFFCURVE",
"215 17 CURVE SMOOTH",
"182 17 OFFCURVE",
"146 18 OFFCURVE",
"117 21 CURVE",
"110 0 LINE",
"144 -2 OFFCURVE",
"188 -3 OFFCURVE",
"219 -3 CURVE SMOOTH",
"366 -3 OFFCURVE",
"447 63 OFFCURVE",
"447 176 CURVE SMOOTH",
"447 270 OFFCURVE",
"390 321 OFFCURVE",
"301 334 CURVE",
"361 358 OFFCURVE",
"397 409 OFFCURVE",
"397 491 CURVE SMOOTH",
"397 586 OFFCURVE",
"338 639 OFFCURVE",
"233 639 CURVE"
);
},
{
closed = 1;
nodes = (
"130 637 LINE",
"110 637 LINE",
"110 195 LINE",
"110 0 LINE",
"130 0 LINE",
"130 195 LINE"
);
}
);
width = 492;
},
{
layerId = "FC8172F8-A6F4-4E62-B6CE-F5E7C4B552CE";
paths = (
{
closed = 1;
nodes = (
"92 641 LINE",
"136 571 LINE",
"179 572 OFFCURVE",
"222 572 OFFCURVE",
"257 572 CURVE SMOOTH",
"342 572 OFFCURVE",
"376 544 OFFCURVE",
"376 476 CURVE SMOOTH",
"376 410 OFFCURVE",
"344 374 OFFCURVE",
"284 360 CURVE",
"124 364 LINE",
"124 291 LINE",
"296 293 LINE",
"374 283 OFFCURVE",
"416 248 OFFCURVE",
"416 184 CURVE SMOOTH",
"416 108 OFFCURVE",
"356 67 OFFCURVE",
"250 67 CURVE SMOOTH",
"221 67 OFFCURVE",
"173 70 OFFCURVE",
"141 74 CURVE",
"92 0 LINE",
"133 -3 OFFCURVE",
"215 -4 OFFCURVE",
"237 -4 CURVE SMOOTH",
"414 -4 OFFCURVE",
"503 58 OFFCURVE",
"503 179 CURVE SMOOTH",
"503 264 OFFCURVE",
"459 316 OFFCURVE",
"368 334 CURVE",
"429 360 OFFCURVE",
"464 413 OFFCURVE",
"464 486 CURVE SMOOTH",
"464 589 OFFCURVE",
"394 642 OFFCURVE",
"275 642 CURVE"
);
},
{
closed = 1;
nodes = (
"179 641 LINE",
"91 641 LINE",
"97 193 LINE",
"91 0 LINE",
"178 0 LINE",
"174 200 LINE"
);
}
);
width = 541;
},
{
background = {
paths = (
{
closed = 1;
nodes = (
"92 641 LINE",
"136 571 LINE",
"179 572 OFFCURVE",
"222 572 OFFCURVE",
"257 572 CURVE SMOOTH",
"342 572 OFFCURVE",
"376 544 OFFCURVE",
"376 476 CURVE SMOOTH",
"376 410 OFFCURVE",
"344 374 OFFCURVE",
"284 360 CURVE",
"124 364 LINE",
"124 291 LINE",
"296 293 LINE",
"374 283 OFFCURVE",
"416 248 OFFCURVE",
"416 184 CURVE SMOOTH",
"416 108 OFFCURVE",
"356 67 OFFCURVE",
"250 67 CURVE SMOOTH",
"221 67 OFFCURVE",
"173 70 OFFCURVE",
"141 74 CURVE",
"92 0 LINE",
"133 -3 OFFCURVE",
"215 -4 OFFCURVE",
"237 -4 CURVE SMOOTH",
"414 -4 OFFCURVE",
"503 58 OFFCURVE",
"503 179 CURVE SMOOTH",
"503 264 OFFCURVE",
"459 316 OFFCURVE",
"368 334 CURVE",
"429 360 OFFCURVE",
"464 413 OFFCURVE",
"464 486 CURVE SMOOTH",
"464 589 OFFCURVE",
"394 642 OFFCURVE",
"275 642 CURVE"
);
},
{
closed = 1;
nodes = (
"179 641 LINE",
"91 641 LINE",
"97 193 LINE",
"91 0 LINE",
"178 0 LINE",
"174 200 LINE"
);
}
);
};
layerId = "2DCE43FE-4436-4BBF-8775-653F8291D466";
paths = (
{
closed = 1;
nodes = (
"60 647 LINE",
"170 511 LINE",
"216 514 OFFCURVE",
"236 515 OFFCURVE",
"263 515 CURVE SMOOTH",
"353 515 OFFCURVE",
"379 500 OFFCURVE",
"379 453 CURVE SMOOTH",
"379 413 OFFCURVE",
"362 392 OFFCURVE",
"325 380 CURVE",
"129 389 LINE",
"129 252 LINE",
"344 256 LINE",
"384 243 OFFCURVE",
"401 226 OFFCURVE",
"401 195 CURVE SMOOTH",
"401 149 OFFCURVE",
"367 125 OFFCURVE",
"313 125 CURVE",
"284 125 OFFCURVE",
"219 131 OFFCURVE",
"180 139 CURVE",
"60 0 LINE",
"131 -4 OFFCURVE",
"225 -7 OFFCURVE",
"275 -7 CURVE SMOOTH",
"489 -7 OFFCURVE",
"604 50 OFFCURVE",
"604 187 CURVE SMOOTH",
"604 262 OFFCURVE",
"569 309 OFFCURVE",
"484 333 CURVE",
"548 363 OFFCURVE",
"583 416 OFFCURVE",
"583 482 CURVE SMOOTH",
"583 591 OFFCURVE",
"493 648 OFFCURVE",
"349 648 CURVE SMOOTH"
);
},
{
closed = 1;
nodes = (
"257 647 LINE",
"60 647 LINE",
"70 190 LINE",
"60 0 LINE",
"254 0 LINE",
"246 210 LINE"
);
}
);
width = 629;
}
);
leftKerningGroup = B;
rightKerningGroup = B;
unicode = 0042;
},
{
glyphname = C;
lastChange = "2016-11-22 21:40:43 +0000";
layers = (
{
anchors = (
{
name = bottom;
position = "{302, 0}";
},
{
name = top;
position = "{313, 637}";
}
);
background = {
paths = (
{
closed = 1;
nodes = (
"142 647 OFFCURVE",
"37 528 OFFCURVE",
"37 315 CURVE SMOOTH",
"37 108 OFFCURVE",
"137 -7 OFFCURVE",
"310 -7 CURVE SMOOTH",
"375 -7 OFFCURVE",
"430 9 OFFCURVE",
"486 39 CURVE",
"493 121 LINE",
"483 126 LINE",
"436 88 OFFCURVE",
"377 66 OFFCURVE",
"317 66 CURVE SMOOTH",
"197 66 OFFCURVE",
"126 154 OFFCURVE",
"126 323 CURVE SMOOTH",
"126 490 OFFCURVE",
"196 575 OFFCURVE",
"319 575 CURVE SMOOTH",
"380 575 OFFCURVE",
"430 554 OFFCURVE",
"472 519 CURVE",
"481 521 LINE",
"498 600 LINE",
"450 630 OFFCURVE",
"391 647 OFFCURVE",
"323 647 CURVE SMOOTH"
);
}
);
};
layerId = UUID0;
paths = (
{
closed = 1;
nodes = (
"313 641 LINE",
"142 641 OFFCURVE",
"48 525 OFFCURVE",
"48 317 CURVE SMOOTH",
"48 110 OFFCURVE",
"138 -5 OFFCURVE",
"302 -5 CURVE SMOOTH",
"365 -5 OFFCURVE",
"433 19 OFFCURVE",
"489 62 CURVE",
"491 80 LINE",
"484 82 LINE",
"431 39 OFFCURVE",
"365 15 OFFCURVE",
"301 15 CURVE SMOOTH",
"151 15 OFFCURVE",
"68 122 OFFCURVE",
"68 316 CURVE SMOOTH",
"68 512 OFFCURVE",
"154 621 OFFCURVE",
"313 621 CURVE SMOOTH",
"373 621 OFFCURVE",
"430 601 OFFCURVE",
"475 565 CURVE",
"482 565 LINE",
"489 582 LINE",
"440 620 OFFCURVE",
"376 641 OFFCURVE",
"313 641 CURVE SMOOTH"
);
}
);
width = 523;
},
{
anchors = (
{
name = bottom;
position = "{308, 0}";
},
{
name = top;
position = "{314, 641}";
}
);
layerId = "FC8172F8-A6F4-4E62-B6CE-F5E7C4B552CE";
paths = (
{
closed = 1;
nodes = (
"323 647 LINE",
"142 647 OFFCURVE",
"37 528 OFFCURVE",
"37 315 CURVE SMOOTH",
"37 108 OFFCURVE",
"137 -7 OFFCURVE",
"310 -7 CURVE SMOOTH",
"375 -7 OFFCURVE",
"430 9 OFFCURVE",
"486 39 CURVE",
"493 121 LINE",
"483 126 LINE",
"436 88 OFFCURVE",
"377 66 OFFCURVE",
"317 66 CURVE SMOOTH",
"197 66 OFFCURVE",
"126 154 OFFCURVE",
"126 323 CURVE SMOOTH",
"126 490 OFFCURVE",
"196 575 OFFCURVE",
"319 575 CURVE SMOOTH",
"380 575 OFFCURVE",
"430 554 OFFCURVE",
"472 519 CURVE",
"481 521 LINE",
"498 600 LINE",
"450 630 OFFCURVE",
"391 647 OFFCURVE",
"323 647 CURVE SMOOTH"
);
}
);
width = 520;
},
{
anchors = (
{
name = bottom;
position = "{319, 0}";
},
{
name = top;
position = "{317, 647}";
}
);
background = {
paths = (
{
closed = 1;
nodes = (
"142 647 OFFCURVE",
"37 528 OFFCURVE",
"37 315 CURVE SMOOTH",
"37 108 OFFCURVE",
"137 -7 OFFCURVE",
"310 -7 CURVE SMOOTH",
"375 -7 OFFCURVE",
"430 9 OFFCURVE",
"486 39 CURVE",
"493 121 LINE",
"483 126 LINE",
"436 88 OFFCURVE",
"377 66 OFFCURVE",
"317 66 CURVE SMOOTH",
"197 66 OFFCURVE",
"126 154 OFFCURVE",
"126 323 CURVE SMOOTH",
"126 490 OFFCURVE",
"196 575 OFFCURVE",
"319 575 CURVE SMOOTH",
"380 575 OFFCURVE",
"430 554 OFFCURVE",
"472 519 CURVE",
"481 521 LINE",
"498 600 LINE",
"450 630 OFFCURVE",
"391 647 OFFCURVE",
"323 647 CURVE SMOOTH"
);
}
);
};
layerId = "2DCE43FE-4436-4BBF-8775-653F8291D466";
paths = (
{
closed = 1;
nodes = (
"352 658 LINE",
"138 658 OFFCURVE",
"17 533 OFFCURVE",
"17 318 CURVE SMOOTH",
"17 105 OFFCURVE",
"124 -11 OFFCURVE",
"341 -11 CURVE SMOOTH",
"385 -11 OFFCURVE",
"433 -7 OFFCURVE",
"480 8 CURVE",
"496 166 LINE",
"480 176 LINE",
"444 163 OFFCURVE",
"393 155 OFFCURVE",
"357 155 CURVE SMOOTH",
"269 155 OFFCURVE",
"229 212 OFFCURVE",
"229 341 CURVE SMOOTH",
"229 452 OFFCURVE",
"264 495 OFFCURVE",
"344 495 CURVE SMOOTH",
"382 495 OFFCURVE",
"432 483 OFFCURVE",
"467 464 CURVE",
"480 472 LINE",
"514 631 LINE",
"466 648 OFFCURVE",
"412 658 OFFCURVE",
"352 658 CURVE SMOOTH"
);
}
);
width = 514;
}
);
leftKerningGroup = C;
rightKerningGroup = C;
unicode = 0043;
},
{
glyphname = Cacute;
lastChange = "2016-11-22 21:40:43 +0000";
layers = (
{
background = {
paths = (
{
closed = 1;
nodes = (
"142 647 OFFCURVE",
"37 528 OFFCURVE",
"37 315 CURVE SMOOTH",
"37 108 OFFCURVE",
"137 -7 OFFCURVE",
"310 -7 CURVE SMOOTH",
"375 -7 OFFCURVE",
"430 9 OFFCURVE",
"486 39 CURVE",
"493 121 LINE",
"483 126 LINE",
"436 88 OFFCURVE",
"377 66 OFFCURVE",
"317 66 CURVE SMOOTH",
"197 66 OFFCURVE",
"126 154 OFFCURVE",
"126 323 CURVE SMOOTH",
"126 490 OFFCURVE",
"196 575 OFFCURVE",
"319 575 CURVE SMOOTH",
"380 575 OFFCURVE",
"430 554 OFFCURVE",
"472 519 CURVE",
"481 521 LINE",
"498 600 LINE",
"450 630 OFFCURVE",
"391 647 OFFCURVE",
"323 647 CURVE SMOOTH"
);
},
{
closed = 1;
nodes = (
"415 866 LINE",
"348 826 OFFCURVE",
"286 794 OFFCURVE",
"222 762 CURVE",
"237 724 LINE",
"246 720 LINE",
"312 747 OFFCURVE",
"375 773 OFFCURVE",
"444 805 CURVE",
"447 814 LINE",
"425 864 LINE"
);
}
);
};
components = (
{
name = C;
},
{
name = acutecomb.case;
transform = "{1, 0, 0, 1, 529, 185}";
}
);
layerId = UUID0;
width = 523;
},
{
components = (
{
name = C;
},
{
name = acutecomb.case;
transform = "{1, 0, 0, 1, 529, 182}";
}
);
layerId = "FC8172F8-A6F4-4E62-B6CE-F5E7C4B552CE";
width = 520;
},
{
background = {
paths = (
{
closed = 1;
nodes = (
"142 647 OFFCURVE",
"37 528 OFFCURVE",
"37 315 CURVE SMOOTH",
"37 108 OFFCURVE",
"137 -7 OFFCURVE",
"310 -7 CURVE SMOOTH",
"375 -7 OFFCURVE",
"430 9 OFFCURVE",
"486 39 CURVE",
"493 121 LINE",
"483 126 LINE",
"436 88 OFFCURVE",
"377 66 OFFCURVE",
"317 66 CURVE SMOOTH",
"197 66 OFFCURVE",
"126 154 OFFCURVE",
"126 323 CURVE SMOOTH",
"126 490 OFFCURVE",
"196 575 OFFCURVE",
"319 575 CURVE SMOOTH",
"380 575 OFFCURVE",
"430 554 OFFCURVE",
"472 519 CURVE",
"481 521 LINE",
"498 600 LINE",
"450 630 OFFCURVE",
"391 647 OFFCURVE",
"323 647 CURVE SMOOTH"
);
},
{
closed = 1;
nodes = (
"415 866 LINE",
"348 826 OFFCURVE",
"286 794 OFFCURVE",
"222 762 CURVE",
"237 724 LINE",
"246 720 LINE",
"312 747 OFFCURVE",
"375 773 OFFCURVE",
"444 805 CURVE",
"447 814 LINE",
"425 864 LINE"
);
}
);
};
components = (
{
name = C;
},
{
name = acutecomb.case;
transform = "{1, 0, 0, 1, 530, 175}";
}
);
layerId = "2DCE43FE-4436-4BBF-8775-653F8291D466";
width = 514;
}
);
leftKerningGroup = C;
rightKerningGroup = C;
unicode = 0106;
},
{
glyphname = Ccaron;
lastChange = "2016-11-22 21:42:25 +0000";
layers = (
{
background = {
paths = (
{
closed = 1;
nodes = (
"142 647 OFFCURVE",
"37 528 OFFCURVE",
"37 315 CURVE SMOOTH",
"37 108 OFFCURVE",
"137 -7 OFFCURVE",
"310 -7 CURVE SMOOTH",
"375 -7 OFFCURVE",
"430 9 OFFCURVE",
"486 39 CURVE",
"493 121 LINE",
"483 126 LINE",
"436 88 OFFCURVE",
"377 66 OFFCURVE",
"317 66 CURVE SMOOTH",
"197 66 OFFCURVE",
"126 154 OFFCURVE",
"126 323 CURVE SMOOTH",
"126 490 OFFCURVE",
"196 575 OFFCURVE",
"319 575 CURVE SMOOTH",
"380 575 OFFCURVE",
"430 554 OFFCURVE",
"472 519 CURVE",
"481 521 LINE",
"498 600 LINE",
"450 630 OFFCURVE",
"391 647 OFFCURVE",
"323 647 CURVE SMOOTH"
);
},
{
closed = 1;
nodes = (
"427 851 LINE",
"418 851 LINE",
"382 829 OFFCURVE",
"348 808 OFFCURVE",
"314 785 CURVE",
"280 808 OFFCURVE",
"246 829 OFFCURVE",
"211 851 CURVE",
"201 851 LINE",
"185 815 LINE",
"227 786 OFFCURVE",
"266 755 OFFCURVE",
"304 723 CURVE",
"326 723 LINE",
"362 755 OFFCURVE",
"402 786 OFFCURVE",
"444 815 CURVE"
);
}
);
};
components = (
{
name = C;
},
{
name = caroncomb.case;
transform = "{1, 0, 0, 1, 508, 185}";
}
);
layerId = UUID0;
width = 523;
},
{
components = (
{
name = C;
},
{
name = caroncomb.case;
transform = "{1, 0, 0, 1, 509, 182}";
}
);
layerId = "FC8172F8-A6F4-4E62-B6CE-F5E7C4B552CE";
width = 520;
},
{
background = {
paths = (
{
closed = 1;
nodes = (
"142 647 OFFCURVE",
"37 528 OFFCURVE",
"37 315 CURVE SMOOTH",
"37 108 OFFCURVE",
"137 -7 OFFCURVE",
"310 -7 CURVE SMOOTH",
"375 -7 OFFCURVE",
"430 9 OFFCURVE",
"486 39 CURVE",
"493 121 LINE",
"483 126 LINE",
"436 88 OFFCURVE",
"377 66 OFFCURVE",
"317 66 CURVE SMOOTH",
"197 66 OFFCURVE",
"126 154 OFFCURVE",
"126 323 CURVE SMOOTH",
"126 490 OFFCURVE",
"196 575 OFFCURVE",
"319 575 CURVE SMOOTH",
"380 575 OFFCURVE",
"430 554 OFFCURVE",
"472 519 CURVE",
"481 521 LINE",
"498 600 LINE",
"450 630 OFFCURVE",
"391 647 OFFCURVE",
"323 647 CURVE SMOOTH"
);
},
{
closed = 1;
nodes = (
"427 851 LINE",
"418 851 LINE",
"382 829 OFFCURVE",
"348 808 OFFCURVE",
"314 785 CURVE",
"280 808 OFFCURVE",
"246 829 OFFCURVE",
"211 851 CURVE",
"201 851 LINE",
"185 815 LINE",
"227 786 OFFCURVE",
"266 755 OFFCURVE",
"304 723 CURVE",
"326 723 LINE",
"362 755 OFFCURVE",
"402 786 OFFCURVE",
"444 815 CURVE"
);
}
);
};
components = (
{
name = C;
},
{
name = caroncomb.case;
transform = "{1, 0, 0, 1, 512, 175}";
}
);
layerId = "2DCE43FE-4436-4BBF-8775-653F8291D466";
width = 514;
}
);
leftKerningGroup = C;
rightKerningGroup = C;
unicode = 010C;
},
{
glyphname = Ccedilla;
lastChange = "2016-11-22 21:42:25 +0000";
layers = (
{
background = {
paths = (
{
closed = 1;
nodes = (
"142 647 OFFCURVE",
"37 528 OFFCURVE",
"37 315 CURVE SMOOTH",
"37 108 OFFCURVE",
"137 -7 OFFCURVE",
"310 -7 CURVE SMOOTH",
"375 -7 OFFCURVE",
"430 9 OFFCURVE",
"486 39 CURVE",
"493 121 LINE",
"483 126 LINE",
"436 88 OFFCURVE",
"377 66 OFFCURVE",
"317 66 CURVE SMOOTH",
"197 66 OFFCURVE",
"126 154 OFFCURVE",
"126 323 CURVE SMOOTH",
"126 490 OFFCURVE",
"196 575 OFFCURVE",
"319 575 CURVE SMOOTH",
"380 575 OFFCURVE",
"430 554 OFFCURVE",
"472 519 CURVE",
"481 521 LINE",
"498 600 LINE",
"450 630 OFFCURVE",
"391 647 OFFCURVE",
"323 647 CURVE SMOOTH"
);
},
{
closed = 1;
nodes = (
"340 20 LINE",
"291 20 LINE",
"267 -72 LINE",
"315 -101 LINE SMOOTH",
"327 -107 OFFCURVE",
"336 -113 OFFCURVE",
"336 -125 CURVE SMOOTH",
"336 -142 OFFCURVE",
"323 -151 OFFCURVE",
"305 -151 CURVE SMOOTH",
"281 -151 OFFCURVE",
"265 -139 OFFCURVE",
"248 -120 CURVE",
"243 -122 LINE",
"235 -164 LINE",
"251 -180 OFFCURVE",
"275 -195 OFFCURVE",
"309 -195 CURVE SMOOTH",
"358 -195 OFFCURVE",
"392 -167 OFFCURVE",
"392 -127 CURVE SMOOTH",
"392 -105 OFFCURVE",
"382 -87 OFFCURVE",
"353 -71 CURVE SMOOTH",
"319 -51 LINE"
);
}
);
};
components = (
{
name = C;
},
{
name = cedillacomb;
transform = "{1, 0, 0, 1, 502, 0}";
}
);
layerId = UUID0;
width = 523;
},
{
components = (
{
name = C;
},
{
name = cedillacomb;
transform = "{1, 0, 0, 1, 507, 0}";
}
);
layerId = "FC8172F8-A6F4-4E62-B6CE-F5E7C4B552CE";
width = 520;
},
{
background = {
paths = (
{
closed = 1;
nodes = (
"142 647 OFFCURVE",
"37 528 OFFCURVE",
"37 315 CURVE SMOOTH",
"37 108 OFFCURVE",
"137 -7 OFFCURVE",
"310 -7 CURVE SMOOTH",
"375 -7 OFFCURVE",
"430 9 OFFCURVE",
"486 39 CURVE",
"493 121 LINE",
"483 126 LINE",
"436 88 OFFCURVE",
"377 66 OFFCURVE",
"317 66 CURVE SMOOTH",
"197 66 OFFCURVE",
"126 154 OFFCURVE",
"126 323 CURVE SMOOTH",
"126 490 OFFCURVE",
"196 575 OFFCURVE",
"319 575 CURVE SMOOTH",
"380 575 OFFCURVE",
"430 554 OFFCURVE",
"472 519 CURVE",
"481 521 LINE",
"498 600 LINE",
"450 630 OFFCURVE",
"391 647 OFFCURVE",
"323 647 CURVE SMOOTH"
);
},
{
closed = 1;
nodes = (
"340 20 LINE",
"291 20 LINE",
"267 -72 LINE",
"315 -101 LINE SMOOTH",
"327 -107 OFFCURVE",
"336 -113 OFFCURVE",
"336 -125 CURVE SMOOTH",
"336 -142 OFFCURVE",
"323 -151 OFFCURVE",
"305 -151 CURVE SMOOTH",
"281 -151 OFFCURVE",
"265 -139 OFFCURVE",
"248 -120 CURVE",
"243 -122 LINE",
"235 -164 LINE",
"251 -180 OFFCURVE",
"275 -195 OFFCURVE",
"309 -195 CURVE SMOOTH",
"358 -195 OFFCURVE",
"392 -167 OFFCURVE",
"392 -127 CURVE SMOOTH",
"392 -105 OFFCURVE",
"382 -87 OFFCURVE",
"353 -71 CURVE SMOOTH",
"319 -51 LINE"
);
}
);
};
components = (
{
name = C;
},
{
name = cedillacomb;
transform = "{1, 0, 0, 1, 517, 1}";
}
);
layerId = "2DCE43FE-4436-4BBF-8775-653F8291D466";
width = 514;
}
);
leftKerningGroup = C;
rightKerningGroup = C;
unicode = 00C7;
},
{
glyphname = Ccedillaacute;
lastChange = "2016-11-22 21:42:25 +0000";
layers = (
{
background = {
paths = (
{
closed = 1;
nodes = (
"142 647 OFFCURVE",
"37 528 OFFCURVE",
"37 315 CURVE SMOOTH",
"37 108 OFFCURVE",
"137 -7 OFFCURVE",
"310 -7 CURVE SMOOTH",
"375 -7 OFFCURVE",
"430 9 OFFCURVE",
"486 39 CURVE",
"493 121 LINE",
"483 126 LINE",
"436 88 OFFCURVE",
"377 66 OFFCURVE",
"317 66 CURVE SMOOTH",
"197 66 OFFCURVE",
"126 154 OFFCURVE",
"126 323 CURVE SMOOTH",
"126 490 OFFCURVE",
"196 575 OFFCURVE",
"319 575 CURVE SMOOTH",
"380 575 OFFCURVE",
"430 554 OFFCURVE",
"472 519 CURVE",
"481 521 LINE",
"498 600 LINE",
"450 630 OFFCURVE",
"391 647 OFFCURVE",
"323 647 CURVE SMOOTH"
);
},
{
closed = 1;
nodes = (
"340 20 LINE",
"291 20 LINE",
"267 -72 LINE",
"315 -101 LINE SMOOTH",
"327 -107 OFFCURVE",
"336 -113 OFFCURVE",
"336 -125 CURVE SMOOTH",
"336 -142 OFFCURVE",
"323 -151 OFFCURVE",
"305 -151 CURVE SMOOTH",
"281 -151 OFFCURVE",
"265 -139 OFFCURVE",
"248 -120 CURVE",
"243 -122 LINE",
"235 -164 LINE",
"251 -180 OFFCURVE",
"275 -195 OFFCURVE",
"309 -195 CURVE SMOOTH",
"358 -195 OFFCURVE",
"392 -167 OFFCURVE",
"392 -127 CURVE SMOOTH",
"392 -105 OFFCURVE",
"382 -87 OFFCURVE",
"353 -71 CURVE SMOOTH",
"319 -51 LINE"
);
},
{
closed = 1;
nodes = (
"415 866 LINE",
"348 826 OFFCURVE",
"286 794 OFFCURVE",
"222 762 CURVE",
"237 724 LINE",
"246 720 LINE",
"312 747 OFFCURVE",
"375 773 OFFCURVE",
"444 805 CURVE",
"447 814 LINE",
"425 864 LINE"
);
}
);
};
components = (
{
name = C;
},
{
name = cedillacomb;
transform = "{1, 0, 0, 1, 502, 0}";
},
{
name = acutecomb.case;
transform = "{1, 0, 0, 1, 529, 185}";
}
);
layerId = UUID0;
width = 523;
},
{
components = (
{
name = C;
},
{
name = cedillacomb;
transform = "{1, 0, 0, 1, 507, 0}";
},
{
name = acutecomb.case;
transform = "{1, 0, 0, 1, 529, 182}";
}
);
layerId = "FC8172F8-A6F4-4E62-B6CE-F5E7C4B552CE";
width = 520;
},
{
background = {
paths = (
{
closed = 1;
nodes = (
"142 647 OFFCURVE",
"37 528 OFFCURVE",
"37 315 CURVE SMOOTH",
"37 108 OFFCURVE",
"137 -7 OFFCURVE",
"310 -7 CURVE SMOOTH",
"375 -7 OFFCURVE",
"430 9 OFFCURVE",
"486 39 CURVE",
"493 121 LINE",
"483 126 LINE",
"436 88 OFFCURVE",
"377 66 OFFCURVE",
"317 66 CURVE SMOOTH",
"197 66 OFFCURVE",
"126 154 OFFCURVE",
"126 323 CURVE SMOOTH",
"126 490 OFFCURVE",
"196 575 OFFCURVE",
"319 575 CURVE SMOOTH",
"380 575 OFFCURVE",
"430 554 OFFCURVE",
"472 519 CURVE",
"481 521 LINE",
"498 600 LINE",
"450 630 OFFCURVE",
"391 647 OFFCURVE",
"323 647 CURVE SMOOTH"
);
},
{
closed = 1;
nodes = (
"340 20 LINE",
"291 20 LINE",
"267 -72 LINE",
"315 -101 LINE SMOOTH",
"327 -107 OFFCURVE",
"336 -113 OFFCURVE",
"336 -125 CURVE SMOOTH",
"336 -142 OFFCURVE",
"323 -151 OFFCURVE",
"305 -151 CURVE SMOOTH",
"281 -151 OFFCURVE",
"265 -139 OFFCURVE",
"248 -120 CURVE",
"243 -122 LINE",
"235 -164 LINE",
"251 -180 OFFCURVE",
"275 -195 OFFCURVE",
"309 -195 CURVE SMOOTH",
"358 -195 OFFCURVE",
"392 -167 OFFCURVE",
"392 -127 CURVE SMOOTH",
"392 -105 OFFCURVE",
"382 -87 OFFCURVE",
"353 -71 CURVE SMOOTH",
"319 -51 LINE"
);
},
{
closed = 1;
nodes = (
"415 866 LINE",
"348 826 OFFCURVE",
"286 794 OFFCURVE",
"222 762 CURVE",
"237 724 LINE",
"246 720 LINE",
"312 747 OFFCURVE",
"375 773 OFFCURVE",
"444 805 CURVE",
"447 814 LINE",
"425 864 LINE"
);
}
);
};
components = (
{
name = C;
},
{
name = cedillacomb;
transform = "{1, 0, 0, 1, 517, 1}";
},
{
name = acutecomb.case;
transform = "{1, 0, 0, 1, 530, 175}";
}
);
layerId = "2DCE43FE-4436-4BBF-8775-653F8291D466";
width = 514;
}
);
unicode = 1E08;
},
{
glyphname = Ccircumflex;
lastChange = "2016-11-22 21:42:25 +0000";
layers = (
{
background = {
paths = (
{
closed = 1;
nodes = (
"142 647 OFFCURVE",
"37 528 OFFCURVE",
"37 315 CURVE SMOOTH",
"37 108 OFFCURVE",
"137 -7 OFFCURVE",
"310 -7 CURVE SMOOTH",
"375 -7 OFFCURVE",
"430 9 OFFCURVE",
"486 39 CURVE",
"493 121 LINE",
"483 126 LINE",
"436 88 OFFCURVE",
"377 66 OFFCURVE",
"317 66 CURVE SMOOTH",
"197 66 OFFCURVE",
"126 154 OFFCURVE",
"126 323 CURVE SMOOTH",
"126 490 OFFCURVE",
"196 575 OFFCURVE",
"319 575 CURVE SMOOTH",
"380 575 OFFCURVE",
"430 554 OFFCURVE",
"472 519 CURVE",
"481 521 LINE",
"498 600 LINE",
"450 630 OFFCURVE",
"391 647 OFFCURVE",
"323 647 CURVE SMOOTH"
);
},
{
closed = 1;
nodes = (
"980 733 LINE",
"989 733 LINE",
"1025 755 OFFCURVE",
"1059 776 OFFCURVE",
"1093 799 CURVE",
"1127 776 OFFCURVE",
"1161 755 OFFCURVE",
"1196 733 CURVE",
"1206 733 LINE",
"1222 769 LINE",
"1180 798 OFFCURVE",
"1141 829 OFFCURVE",
"1103 861 CURVE",
"1081 861 LINE",
"1045 829 OFFCURVE",
"1005 798 OFFCURVE",
"963 769 CURVE"
);
}
);
};
components = (
{
name = C;
},
{
name = caroncomb.case;
transform = "{-1, 0, 0, -1, 898, 1372}";
}
);
layerId = UUID0;
width = 523;
},
{
components = (
{
name = C;
},
{
name = caroncomb.case;
transform = "{-1, 0, 0, -1, 898, 1402}";
}
);
layerId = "FC8172F8-A6F4-4E62-B6CE-F5E7C4B552CE";
width = 520;
},
{
background = {
paths = (
{
closed = 1;
nodes = (
"142 647 OFFCURVE",
"37 528 OFFCURVE",
"37 315 CURVE SMOOTH",
"37 108 OFFCURVE",
"137 -7 OFFCURVE",
"310 -7 CURVE SMOOTH",
"375 -7 OFFCURVE",
"430 9 OFFCURVE",
"486 39 CURVE",
"493 121 LINE",
"483 126 LINE",
"436 88 OFFCURVE",
"377 66 OFFCURVE",
"317 66 CURVE SMOOTH",
"197 66 OFFCURVE",
"126 154 OFFCURVE",
"126 323 CURVE SMOOTH",
"126 490 OFFCURVE",
"196 575 OFFCURVE",
"319 575 CURVE SMOOTH",
"380 575 OFFCURVE",
"430 554 OFFCURVE",
"472 519 CURVE",
"481 521 LINE",
"498 600 LINE",
"450 630 OFFCURVE",
"391 647 OFFCURVE",
"323 647 CURVE SMOOTH"
);
},
{
closed = 1;
nodes = (
"980 733 LINE",
"989 733 LINE",
"1025 755 OFFCURVE",
"1059 776 OFFCURVE",
"1093 799 CURVE",
"1127 776 OFFCURVE",
"1161 755 OFFCURVE",
"1196 733 CURVE",
"1206 733 LINE",
"1222 769 LINE",
"1180 798 OFFCURVE",
"1141 829 OFFCURVE",
"1103 861 CURVE",
"1081 861 LINE",
"1045 829 OFFCURVE",
"1005 798 OFFCURVE",
"963 769 CURVE"
);
}
);
};
components = (
{
name = C;
},
{
name = caroncomb.case;
transform = "{-1, 0, 0, -1, 900, 1453}";
}
);
layerId = "2DCE43FE-4436-4BBF-8775-653F8291D466";
width = 514;
}
);
leftKerningGroup = C;
rightKerningGroup = C;
unicode = 0108;
},
{
glyphname = Cdotaccent;
lastChange = "2016-11-22 21:40:43 +0000";
layers = (
{
background = {
paths = (
{
closed = 1;
nodes = (
"142 647 OFFCURVE",
"37 528 OFFCURVE",
"37 315 CURVE SMOOTH",
"37 108 OFFCURVE",
"137 -7 OFFCURVE",
"310 -7 CURVE SMOOTH",
"375 -7 OFFCURVE",
"430 9 OFFCURVE",
"486 39 CURVE",
"493 121 LINE",
"483 126 LINE",
"436 88 OFFCURVE",
"377 66 OFFCURVE",
"317 66 CURVE SMOOTH",
"197 66 OFFCURVE",
"126 154 OFFCURVE",
"126 323 CURVE SMOOTH",
"126 490 OFFCURVE",
"196 575 OFFCURVE",
"319 575 CURVE SMOOTH",
"380 575 OFFCURVE",
"430 554 OFFCURVE",
"472 519 CURVE",
"481 521 LINE",
"498 600 LINE",
"450 630 OFFCURVE",
"391 647 OFFCURVE",
"323 647 CURVE SMOOTH"
);
},
{
closed = 1;
nodes = (
"285 848 OFFCURVE",
"266 828 OFFCURVE",
"266 798 CURVE SMOOTH",
"266 768 OFFCURVE",
"283 750 OFFCURVE",
"313 750 CURVE SMOOTH",
"343 750 OFFCURVE",
"362 770 OFFCURVE",
"362 801 CURVE SMOOTH",
"362 830 OFFCURVE",
"345 848 OFFCURVE",
"316 848 CURVE SMOOTH"
);
}
);
};
components = (
{
name = C;
},
{
name = period;
transform = "{1, 0, 0, 1, 198, 778}";
}
);
layerId = UUID0;
width = 523;
},
{
components = (
{
name = C;
},
{
name = period;
transform = "{1, 0, 0, 1, 200, 755}";
}
);
layerId = "FC8172F8-A6F4-4E62-B6CE-F5E7C4B552CE";
width = 520;
},
{
background = {
paths = (
{
closed = 1;
nodes = (
"142 647 OFFCURVE",
"37 528 OFFCURVE",
"37 315 CURVE SMOOTH",
"37 108 OFFCURVE",
"137 -7 OFFCURVE",
"310 -7 CURVE SMOOTH",
"375 -7 OFFCURVE",
"430 9 OFFCURVE",
"486 39 CURVE",
"493 121 LINE",
"483 126 LINE",
"436 88 OFFCURVE",
"377 66 OFFCURVE",
"317 66 CURVE SMOOTH",
"197 66 OFFCURVE",
"126 154 OFFCURVE",
"126 323 CURVE SMOOTH",
"126 490 OFFCURVE",
"196 575 OFFCURVE",
"319 575 CURVE SMOOTH",
"380 575 OFFCURVE",
"430 554 OFFCURVE",
"472 519 CURVE",
"481 521 LINE",
"498 600 LINE",
"450 630 OFFCURVE",
"391 647 OFFCURVE",
"323 647 CURVE SMOOTH"
);
},
{
closed = 1;
nodes = (
"285 848 OFFCURVE",
"266 828 OFFCURVE",
"266 798 CURVE SMOOTH",
"266 768 OFFCURVE",
"283 750 OFFCURVE",
"313 750 CURVE SMOOTH",
"343 750 OFFCURVE",
"362 770 OFFCURVE",
"362 801 CURVE SMOOTH",
"362 830 OFFCURVE",
"345 848 OFFCURVE",
"316 848 CURVE SMOOTH"
);
}
);
};
components = (
{
name = C;
},
{
name = period;
transform = "{1, 0, 0, 1, 203, 713}";
}
);
layerId = "2DCE43FE-4436-4BBF-8775-653F8291D466";
width = 514;
}
);
leftKerningGroup = C;
rightKerningGroup = C;
unicode = 010A;
},
{
glyphname = D;
lastChange = "2016-11-22 21:40:43 +0000";
layers = (
{
anchors = (
{
name = bottom;
position = "{319, 0}";
},
{
name = center;
position = "{319, 319}";
},
{
name = top;
position = "{319, 637}";
}
);
background = {
paths = (
{
closed = 1;
nodes = (
"92 641 LINE",
"164 569 LINE",
"194 571 OFFCURVE",
"296 574 OFFCURVE",
"320 574 CURVE SMOOTH",
"453 574 OFFCURVE",
"522 494 OFFCURVE",
"522 325 CURVE SMOOTH",
"522 149 OFFCURVE",
"447 65 OFFCURVE",
"316 65 CURVE SMOOTH",
"291 65 OFFCURVE",
"195 69 OFFCURVE",
"152 74 CURVE",
"92 0 LINE",
"148 -3 OFFCURVE",
"263 -6 OFFCURVE",
"302 -6 CURVE",
"500 -6 OFFCURVE",
"610 118 OFFCURVE",
"610 343 CURVE SMOOTH",
"610 538 OFFCURVE",
"509 645 OFFCURVE",
"326 645 CURVE"
);
},
{
closed = 1;
nodes = (
"179 641 LINE",
"91 641 LINE",
"97 193 LINE",
"91 0 LINE",
"178 0 LINE",
"174 200 LINE"
);
}
);
};
layerId = UUID0;
paths = (
{
closed = 1;
nodes = (
"110 637 LINE",
"121 617 LINE",
"148 618 OFFCURVE",
"288 622 OFFCURVE",
"311 622 CURVE SMOOTH",
"477 622 OFFCURVE",
"569 521 OFFCURVE",
"569 339 CURVE SMOOTH",
"569 131 OFFCURVE",
"473 15 OFFCURVE",
"301 15 CURVE SMOOTH",
"276 15 OFFCURVE",
"155 18 OFFCURVE",
"121 20 CURVE",
"110 0 LINE",
"154 -2 OFFCURVE",
"276 -5 OFFCURVE",
"301 -5 CURVE",
"486 -5 OFFCURVE",
"589 118 OFFCURVE",
"589 339 CURVE SMOOTH",
"589 534 OFFCURVE",
"490 642 OFFCURVE",
"311 642 CURVE"
);
},
{
closed = 1;
nodes = (
"130 637 LINE",
"110 637 LINE",
"110 195 LINE",
"110 0 LINE",
"130 0 LINE",
"130 195 LINE"
);
}
);
width = 637;
},
{
anchors = (
{
name = bottom;
position = "{324, 0}";
},
{
name = center;
position = "{324, 321}";
},
{
name = top;
position = "{324, 641}";
}
);
layerId = "FC8172F8-A6F4-4E62-B6CE-F5E7C4B552CE";
paths = (
{
closed = 1;
nodes = (
"92 641 LINE",
"164 569 LINE",
"194 571 OFFCURVE",
"296 574 OFFCURVE",
"320 574 CURVE SMOOTH",
"453 574 OFFCURVE",
"522 494 OFFCURVE",
"522 325 CURVE SMOOTH",
"522 149 OFFCURVE",
"447 65 OFFCURVE",
"316 65 CURVE SMOOTH",
"291 65 OFFCURVE",
"195 69 OFFCURVE",
"152 74 CURVE",
"92 0 LINE",
"148 -3 OFFCURVE",
"263 -6 OFFCURVE",
"302 -6 CURVE",
"500 -6 OFFCURVE",
"610 118 OFFCURVE",
"610 343 CURVE SMOOTH",
"610 538 OFFCURVE",
"509 645 OFFCURVE",
"326 645 CURVE"
);
},
{
closed = 1;
nodes = (
"179 641 LINE",
"91 641 LINE",
"97 193 LINE",
"91 0 LINE",
"178 0 LINE",
"174 200 LINE"
);
}
);
width = 647;
},
{
anchors = (
{
name = bottom;
position = "{333, 0}";
},
{
name = center;
position = "{333, 324}";
},
{
name = top;
position = "{333, 647}";
}
);
background = {
paths = (
{
closed = 1;
nodes = (
"92 641 LINE",
"164 569 LINE",
"194 571 OFFCURVE",
"296 574 OFFCURVE",
"320 574 CURVE SMOOTH",
"453 574 OFFCURVE",
"522 494 OFFCURVE",
"522 325 CURVE SMOOTH",
"522 149 OFFCURVE",
"447 65 OFFCURVE",
"316 65 CURVE SMOOTH",
"291 65 OFFCURVE",
"195 69 OFFCURVE",
"152 74 CURVE",
"92 0 LINE",
"148 -3 OFFCURVE",
"263 -6 OFFCURVE",
"302 -6 CURVE",
"500 -6 OFFCURVE",
"610 118 OFFCURVE",
"610 343 CURVE SMOOTH",
"610 538 OFFCURVE",
"509 645 OFFCURVE",
"326 645 CURVE"
);
},
{
closed = 1;
nodes = (
"179 641 LINE",
"91 641 LINE",
"97 193 LINE",
"91 0 LINE",
"178 0 LINE",
"174 200 LINE"
);
}
);
};
layerId = "2DCE43FE-4436-4BBF-8775-653F8291D466";
paths = (
{
closed = 1;
nodes = (
"60 647 LINE",
"240 489 LINE",
"275 493 OFFCURVE",
"311 495 OFFCURVE",
"335 495 CURVE SMOOTH",
"411 495 OFFCURVE",
"438 446 OFFCURVE",
"438 301 CURVE SMOOTH",
"438 181 OFFCURVE",
"401 140 OFFCURVE",
"342 140 CURVE SMOOTH",
"316 140 OFFCURVE",
"265 146 OFFCURVE",
"233 152 CURVE",
"60 0 LINE",
"138 -5 OFFCURVE",
"239 -9 OFFCURVE",
"304 -9 CURVE SMOOTH",
"525 -9 OFFCURVE",
"648 119 OFFCURVE",
"648 350 CURVE SMOOTH",
"648 544 OFFCURVE",
"543 651 OFFCURVE",
"352 651 CURVE"
);
},
{
closed = 1;
nodes = (
"264 647 LINE",
"60 647 LINE",
"70 190 LINE",
"60 0 LINE",
"261 0 LINE",
"253 210 LINE"
);
}
);
width = 665;
}
);
leftKerningGroup = B;
rightKerningGroup = D;
unicode = 0044;
},
{
glyphname = DZcaron;
lastChange = "2016-11-22 21:42:25 +0000";
layers = (
{
background = {
paths = (
{
closed = 1;
nodes = (
"92 641 LINE",
"164 569 LINE",
"194 571 OFFCURVE",
"296 574 OFFCURVE",
"320 574 CURVE SMOOTH",
"453 574 OFFCURVE",
"522 494 OFFCURVE",
"522 325 CURVE SMOOTH",
"522 149 OFFCURVE",
"447 65 OFFCURVE",
"316 65 CURVE SMOOTH",
"291 65 OFFCURVE",
"195 69 OFFCURVE",
"152 74 CURVE",
"92 0 LINE",
"148 -3 OFFCURVE",
"263 -6 OFFCURVE",
"302 -6 CURVE",
"500 -6 OFFCURVE",
"610 118 OFFCURVE",
"610 343 CURVE SMOOTH",
"610 538 OFFCURVE",
"509 645 OFFCURVE",
"326 645 CURVE"
);
},
{
closed = 1;
nodes = (
"179 641 LINE",
"91 641 LINE",
"97 193 LINE",
"91 0 LINE",
"178 0 LINE",
"174 200 LINE"
);
},
{
closed = 1;
nodes = (
"1136 642 LINE",
"1085 641 LINE",
"811 641 LINE",
"696 642 LINE",
"689 569 LINE",
"694 563 LINE",
"794 571 LINE",
"1034 571 LINE",
"678 60 LINE",
"678 -3 LINE",
"737 0 LINE",
"1014 0 LINE",
"1135 -2 LINE",
"1142 71 LINE",
"1138 77 LINE",
"1040 69 LINE",
"781 69 LINE",
"1136 578 LINE"
);
},
{
closed = 1;
nodes = (
"1025 851 LINE",
"1016 851 LINE",
"980 829 OFFCURVE",
"946 808 OFFCURVE",
"912 785 CURVE",
"878 808 OFFCURVE",
"844 829 OFFCURVE",
"809 851 CURVE",
"799 851 LINE",
"783 815 LINE",
"825 786 OFFCURVE",
"864 755 OFFCURVE",
"902 723 CURVE",
"924 723 LINE",
"960 755 OFFCURVE",
"1000 786 OFFCURVE",
"1042 815 CURVE"
);
}
);
};
components = (
{
name = D;
},
{
name = Z;
transform = "{1, 0, 0, 1, 637, 0}";
},
{
name = caroncomb.case;
transform = "{1, 0, 0, 1, 1086, 185}";
}
);
layerId = UUID0;
width = 1144;
},
{
components = (
{
name = D;
},
{
name = Z;
transform = "{1, 0, 0, 1, 647, 0}";
},
{
name = caroncomb.case;
transform = "{1, 0, 0, 1, 1107, 182}";
}
);
layerId = "FC8172F8-A6F4-4E62-B6CE-F5E7C4B552CE";
width = 1177;
},
{
background = {
paths = (
{
closed = 1;
nodes = (
"92 641 LINE",
"164 569 LINE",
"194 571 OFFCURVE",
"296 574 OFFCURVE",
"320 574 CURVE SMOOTH",
"453 574 OFFCURVE",
"522 494 OFFCURVE",
"522 325 CURVE SMOOTH",
"522 149 OFFCURVE",
"447 65 OFFCURVE",
"316 65 CURVE SMOOTH",
"291 65 OFFCURVE",
"195 69 OFFCURVE",
"152 74 CURVE",
"92 0 LINE",
"148 -3 OFFCURVE",
"263 -6 OFFCURVE",
"302 -6 CURVE",
"500 -6 OFFCURVE",
"610 118 OFFCURVE",
"610 343 CURVE SMOOTH",
"610 538 OFFCURVE",
"509 645 OFFCURVE",
"326 645 CURVE"
);
},
{
closed = 1;
nodes = (
"179 641 LINE",
"91 641 LINE",
"97 193 LINE",
"91 0 LINE",
"178 0 LINE",
"174 200 LINE"
);
},
{
closed = 1;
nodes = (
"1136 642 LINE",
"1085 641 LINE",
"811 641 LINE",
"696 642 LINE",
"689 569 LINE",
"694 563 LINE",
"794 571 LINE",
"1034 571 LINE",
"678 60 LINE",
"678 -3 LINE",
"737 0 LINE",
"1014 0 LINE",
"1135 -2 LINE",
"1142 71 LINE",
"1138 77 LINE",
"1040 69 LINE",
"781 69 LINE",
"1136 578 LINE"
);
},
{
closed = 1;
nodes = (
"1025 851 LINE",
"1016 851 LINE",
"980 829 OFFCURVE",
"946 808 OFFCURVE",
"912 785 CURVE",
"878 808 OFFCURVE",
"844 829 OFFCURVE",
"809 851 CURVE",
"799 851 LINE",
"783 815 LINE",
"825 786 OFFCURVE",
"864 755 OFFCURVE",
"902 723 CURVE",
"924 723 LINE",
"960 755 OFFCURVE",
"1000 786 OFFCURVE",
"1042 815 CURVE"
);
}
);
};
components = (
{
name = D;
},
{
name = Z;
transform = "{1, 0, 0, 1, 665, 0}";
},
{
name = caroncomb.case;
transform = "{1, 0, 0, 1, 1145, 175}";
}
);
layerId = "2DCE43FE-4436-4BBF-8775-653F8291D466";
width = 1235;
}
);
leftKerningGroup = B;
rightKerningGroup = uni01C4;
unicode = 01C4;
},
{
glyphname = Eth;
lastChange = "2016-11-22 21:40:43 +0000";
layers = (
{
background = {
paths = (
{
closed = 1;
nodes = (
"114 641 LINE",
"186 569 LINE",
"216 571 OFFCURVE",
"318 574 OFFCURVE",
"342 574 CURVE SMOOTH",
"475 574 OFFCURVE",
"544 494 OFFCURVE",
"544 325 CURVE SMOOTH",
"544 149 OFFCURVE",
"469 65 OFFCURVE",
"338 65 CURVE SMOOTH",
"313 65 OFFCURVE",
"217 69 OFFCURVE",
"174 74 CURVE",
"114 0 LINE",
"170 -3 OFFCURVE",
"285 -6 OFFCURVE",
"324 -6 CURVE",
"522 -6 OFFCURVE",
"632 118 OFFCURVE",
"632 343 CURVE SMOOTH",
"632 538 OFFCURVE",
"531 645 OFFCURVE",
"348 645 CURVE"
);
},
{
closed = 1;
nodes = (
"201 641 LINE",
"113 641 LINE",
"119 193 LINE",
"113 0 LINE",
"200 0 LINE",
"196 200 LINE"
);
},
{
closed = 1;
nodes = (
"340 354 LINE",
"15 354 LINE",
"12 301 LINE",
"16 294 LINE",
"341 294 LINE",
"344 347 LINE"
);
}
);
};
components = (
{
name = D;
transform = "{1, 0, 0, 1, 17, 0}";
},
{
name = endash;
transform = "{0.6, 0, 0, 1, 17, 75}";
}
);
layerId = UUID0;
width = 654;
},
{
components = (
{
name = D;
transform = "{1, 0, 0, 1, 22, 0}";
},
{
name = endash;
transform = "{0.654, 0, 0, 1, 22, 68}";
}
);
layerId = "FC8172F8-A6F4-4E62-B6CE-F5E7C4B552CE";
width = 669;
},
{
background = {
paths = (
{
closed = 1;
nodes = (
"114 641 LINE",
"186 569 LINE",
"216 571 OFFCURVE",
"318 574 OFFCURVE",
"342 574 CURVE SMOOTH",
"475 574 OFFCURVE",
"544 494 OFFCURVE",
"544 325 CURVE SMOOTH",
"544 149 OFFCURVE",
"469 65 OFFCURVE",
"338 65 CURVE SMOOTH",
"313 65 OFFCURVE",
"217 69 OFFCURVE",
"174 74 CURVE",
"114 0 LINE",
"170 -3 OFFCURVE",
"285 -6 OFFCURVE",
"324 -6 CURVE",
"522 -6 OFFCURVE",
"632 118 OFFCURVE",
"632 343 CURVE SMOOTH",
"632 538 OFFCURVE",
"531 645 OFFCURVE",
"348 645 CURVE"
);
},
{
closed = 1;
nodes = (
"201 641 LINE",
"113 641 LINE",
"119 193 LINE",
"113 0 LINE",
"200 0 LINE",
"196 200 LINE"
);
},
{
closed = 1;
nodes = (
"340 354 LINE",
"15 354 LINE",
"12 301 LINE",
"16 294 LINE",
"341 294 LINE",
"344 347 LINE"
);
}
);
};
components = (
{
name = D;
transform = "{1, 0, 0, 1, 30, 0}";
},
{
name = endash;
transform = "{0.75, 0, 0, 1, 30, 55}";
}
);
layerId = "2DCE43FE-4436-4BBF-8775-653F8291D466";
width = 695;
}
);
leftKerningGroup = B;
rightKerningGroup = D;
unicode = 00D0;
},
{
glyphname = Dcaron;
lastChange = "2016-11-22 21:42:25 +0000";
layers = (
{
background = {
paths = (
{
closed = 1;
nodes = (
"92 641 LINE",
"164 569 LINE",
"194 571 OFFCURVE",
"296 574 OFFCURVE",
"320 574 CURVE SMOOTH",
"453 574 OFFCURVE",
"522 494 OFFCURVE",
"522 325 CURVE SMOOTH",
"522 149 OFFCURVE",
"447 65 OFFCURVE",
"316 65 CURVE SMOOTH",
"291 65 OFFCURVE",
"195 69 OFFCURVE",
"152 74 CURVE",
"92 0 LINE",
"148 -3 OFFCURVE",
"263 -6 OFFCURVE",
"302 -6 CURVE",
"500 -6 OFFCURVE",
"610 118 OFFCURVE",
"610 343 CURVE SMOOTH",
"610 538 OFFCURVE",
"509 645 OFFCURVE",
"326 645 CURVE"
);
},
{
closed = 1;
nodes = (
"179 641 LINE",
"91 641 LINE",
"97 193 LINE",
"91 0 LINE",
"178 0 LINE",
"174 200 LINE"
);
},
{
closed = 1;
nodes = (
"437 851 LINE",
"428 851 LINE",
"392 829 OFFCURVE",
"358 808 OFFCURVE",
"324 785 CURVE",
"290 808 OFFCURVE",
"256 829 OFFCURVE",
"221 851 CURVE",
"211 851 LINE",
"195 815 LINE",
"237 786 OFFCURVE",
"276 755 OFFCURVE",
"314 723 CURVE",
"336 723 LINE",
"372 755 OFFCURVE",
"412 786 OFFCURVE",
"454 815 CURVE"
);
}
);
};
components = (
{
name = D;
},
{
name = caroncomb.case;
transform = "{1, 0, 0, 1, 514, 185}";
}
);
layerId = UUID0;
width = 637;
},
{
components = (
{
name = D;
},
{
name = caroncomb.case;
transform = "{1, 0, 0, 1, 519, 182}";
}
);
layerId = "FC8172F8-A6F4-4E62-B6CE-F5E7C4B552CE";
width = 647;
},
{
background = {
paths = (
{
closed = 1;
nodes = (
"92 641 LINE",
"164 569 LINE",
"194 571 OFFCURVE",
"296 574 OFFCURVE",
"320 574 CURVE SMOOTH",
"453 574 OFFCURVE",
"522 494 OFFCURVE",
"522 325 CURVE SMOOTH",
"522 149 OFFCURVE",
"447 65 OFFCURVE",
"316 65 CURVE SMOOTH",
"291 65 OFFCURVE",
"195 69 OFFCURVE",
"152 74 CURVE",
"92 0 LINE",
"148 -3 OFFCURVE",
"263 -6 OFFCURVE",
"302 -6 CURVE",
"500 -6 OFFCURVE",
"610 118 OFFCURVE",
"610 343 CURVE SMOOTH",
"610 538 OFFCURVE",
"509 645 OFFCURVE",
"326 645 CURVE"
);
},
{
closed = 1;
nodes = (
"179 641 LINE",
"91 641 LINE",
"97 193 LINE",
"91 0 LINE",
"178 0 LINE",
"174 200 LINE"
);
},
{
closed = 1;
nodes = (
"437 851 LINE",
"428 851 LINE",
"392 829 OFFCURVE",
"358 808 OFFCURVE",
"324 785 CURVE",
"290 808 OFFCURVE",
"256 829 OFFCURVE",
"221 851 CURVE",
"211 851 LINE",
"195 815 LINE",
"237 786 OFFCURVE",
"276 755 OFFCURVE",
"314 723 CURVE",
"336 723 LINE",
"372 755 OFFCURVE",
"412 786 OFFCURVE",
"454 815 CURVE"
);
}
);
};
components = (
{
name = D;
},
{
name = caroncomb.case;
transform = "{1, 0, 0, 1, 528, 175}";
}
);
layerId = "2DCE43FE-4436-4BBF-8775-653F8291D466";
width = 665;
}
);
leftKerningGroup = B;
rightKerningGroup = D;
unicode = 010E;
},
{
glyphname = Dcroat;
lastChange = "2016-11-22 21:40:43 +0000";
layers = (
{
background = {
paths = (
{
closed = 1;
nodes = (
"114 641 LINE",
"186 569 LINE",
"216 571 OFFCURVE",
"318 574 OFFCURVE",
"342 574 CURVE SMOOTH",
"475 574 OFFCURVE",
"544 494 OFFCURVE",
"544 325 CURVE SMOOTH",
"544 149 OFFCURVE",
"469 65 OFFCURVE",
"338 65 CURVE SMOOTH",
"313 65 OFFCURVE",
"217 69 OFFCURVE",
"174 74 CURVE",
"114 0 LINE",
"170 -3 OFFCURVE",
"285 -6 OFFCURVE",
"324 -6 CURVE",
"522 -6 OFFCURVE",
"632 118 OFFCURVE",
"632 343 CURVE SMOOTH",
"632 538 OFFCURVE",
"531 645 OFFCURVE",
"348 645 CURVE"
);
},
{
closed = 1;
nodes = (
"201 641 LINE",
"113 641 LINE",
"119 193 LINE",
"113 0 LINE",
"200 0 LINE",
"196 200 LINE"
);
},
{
closed = 1;
nodes = (
"340 354 LINE",
"15 354 LINE",
"12 301 LINE",
"16 294 LINE",
"341 294 LINE",
"344 347 LINE"
);
}
);
};
components = (
{
name = D;
transform = "{1, 0, 0, 1, 17, 0}";
},
{
name = endash;
transform = "{0.6, 0, 0, 1, 17, 75}";
}
);
layerId = UUID0;
width = 654;
},
{
components = (
{
name = D;
transform = "{1, 0, 0, 1, 22, 0}";
},
{
name = endash;
transform = "{0.654, 0, 0, 1, 22, 68}";
}
);
layerId = "FC8172F8-A6F4-4E62-B6CE-F5E7C4B552CE";
width = 669;
},
{
background = {
paths = (
{
closed = 1;
nodes = (
"114 641 LINE",
"186 569 LINE",
"216 571 OFFCURVE",
"318 574 OFFCURVE",
"342 574 CURVE SMOOTH",
"475 574 OFFCURVE",
"544 494 OFFCURVE",
"544 325 CURVE SMOOTH",
"544 149 OFFCURVE",
"469 65 OFFCURVE",
"338 65 CURVE SMOOTH",
"313 65 OFFCURVE",
"217 69 OFFCURVE",
"174 74 CURVE",
"114 0 LINE",
"170 -3 OFFCURVE",
"285 -6 OFFCURVE",
"324 -6 CURVE",
"522 -6 OFFCURVE",
"632 118 OFFCURVE",
"632 343 CURVE SMOOTH",
"632 538 OFFCURVE",
"531 645 OFFCURVE",
"348 645 CURVE"
);
},
{
closed = 1;
nodes = (
"201 641 LINE",
"113 641 LINE",
"119 193 LINE",
"113 0 LINE",
"200 0 LINE",
"196 200 LINE"
);
},
{
closed = 1;
nodes = (
"340 354 LINE",
"15 354 LINE",
"12 301 LINE",
"16 294 LINE",
"341 294 LINE",
"344 347 LINE"
);
}
);
};
components = (
{
name = D;
transform = "{1, 0, 0, 1, 30, 0}";
},
{
name = endash;
transform = "{0.75, 0, 0, 1, 30, 55}";
}
);
layerId = "2DCE43FE-4436-4BBF-8775-653F8291D466";
width = 695;
}
);
leftKerningGroup = B;
rightKerningGroup = D;
unicode = 0110;
},
{
glyphname = Ddotbelow;
lastChange = "2016-11-22 21:42:23 +0000";
layers = (
{
background = {
paths = (
{
closed = 1;
nodes = (
"92 641 LINE",
"164 569 LINE",
"194 571 OFFCURVE",
"296 574 OFFCURVE",
"320 574 CURVE SMOOTH",
"453 574 OFFCURVE",
"522 494 OFFCURVE",
"522 325 CURVE SMOOTH",
"522 149 OFFCURVE",
"447 65 OFFCURVE",
"316 65 CURVE SMOOTH",
"291 65 OFFCURVE",
"195 69 OFFCURVE",
"152 74 CURVE",
"92 0 LINE",
"148 -3 OFFCURVE",
"263 -6 OFFCURVE",
"302 -6 CURVE",
"500 -6 OFFCURVE",
"610 118 OFFCURVE",
"610 343 CURVE SMOOTH",
"610 538 OFFCURVE",
"509 645 OFFCURVE",
"326 645 CURVE"
);
},
{
closed = 1;
nodes = (
"179 641 LINE",
"91 641 LINE",
"97 193 LINE",
"91 0 LINE",
"178 0 LINE",
"174 200 LINE"
);
},
{
closed = 1;
nodes = (
"294 -68 OFFCURVE",
"275 -88 OFFCURVE",
"275 -118 CURVE SMOOTH",
"275 -148 OFFCURVE",
"292 -166 OFFCURVE",
"322 -166 CURVE SMOOTH",
"352 -166 OFFCURVE",
"371 -146 OFFCURVE",
"371 -115 CURVE SMOOTH",
"371 -86 OFFCURVE",
"354 -68 OFFCURVE",
"325 -68 CURVE SMOOTH"
);
}
);
};
components = (
{
name = D;
},
{
name = period;
transform = "{1, 0, 0, 1, 204, -126}";
}
);
layerId = UUID0;
width = 637;
},
{
components = (
{
name = D;
},
{
name = period;
transform = "{1, 0, 0, 1, 209, -161}";
}
);
layerId = "FC8172F8-A6F4-4E62-B6CE-F5E7C4B552CE";
width = 647;
},
{
background = {
paths = (
{
closed = 1;
nodes = (
"92 641 LINE",
"164 569 LINE",
"194 571 OFFCURVE",
"296 574 OFFCURVE",
"320 574 CURVE SMOOTH",
"453 574 OFFCURVE",
"522 494 OFFCURVE",
"522 325 CURVE SMOOTH",
"522 149 OFFCURVE",
"447 65 OFFCURVE",
"316 65 CURVE SMOOTH",
"291 65 OFFCURVE",
"195 69 OFFCURVE",
"152 74 CURVE",
"92 0 LINE",
"148 -3 OFFCURVE",
"263 -6 OFFCURVE",
"302 -6 CURVE",
"500 -6 OFFCURVE",
"610 118 OFFCURVE",
"610 343 CURVE SMOOTH",
"610 538 OFFCURVE",
"509 645 OFFCURVE",
"326 645 CURVE"
);
},
{
closed = 1;
nodes = (
"179 641 LINE",
"91 641 LINE",
"97 193 LINE",
"91 0 LINE",
"178 0 LINE",
"174 200 LINE"
);
},
{
closed = 1;
nodes = (
"294 -68 OFFCURVE",
"275 -88 OFFCURVE",
"275 -118 CURVE SMOOTH",
"275 -148 OFFCURVE",
"292 -166 OFFCURVE",
"322 -166 CURVE SMOOTH",
"352 -166 OFFCURVE",
"371 -146 OFFCURVE",
"371 -115 CURVE SMOOTH",
"371 -86 OFFCURVE",
"354 -68 OFFCURVE",
"325 -68 CURVE SMOOTH"
);
}
);
};
components = (
{
name = D;
},
{
name = period;
transform = "{1, 0, 0, 1, 220, -222}";
}
);
layerId = "2DCE43FE-4436-4BBF-8775-653F8291D466";
width = 665;
}
);
unicode = 1E0C;
},
{
glyphname = Dlinebelow;
lastChange = "2016-11-22 21:42:25 +0000";
layers = (
{
background = {
paths = (
{
closed = 1;
nodes = (
"92 641 LINE",
"164 569 LINE",
"194 571 OFFCURVE",
"296 574 OFFCURVE",
"320 574 CURVE SMOOTH",
"453 574 OFFCURVE",
"522 494 OFFCURVE",
"522 325 CURVE SMOOTH",
"522 149 OFFCURVE",
"447 65 OFFCURVE",
"316 65 CURVE SMOOTH",
"291 65 OFFCURVE",
"195 69 OFFCURVE",
"152 74 CURVE",
"92 0 LINE",
"148 -3 OFFCURVE",
"263 -6 OFFCURVE",
"302 -6 CURVE",
"500 -6 OFFCURVE",
"610 118 OFFCURVE",
"610 343 CURVE SMOOTH",
"610 538 OFFCURVE",
"509 645 OFFCURVE",
"326 645 CURVE"
);
},
{
closed = 1;
nodes = (
"179 641 LINE",
"91 641 LINE",
"97 193 LINE",
"91 0 LINE",
"178 0 LINE",
"174 200 LINE"
);
},
{
closed = 1;
nodes = (
"445 -105 LINE",
"201 -105 LINE",
"196 -154 LINE",
"202 -161 LINE",
"447 -161 LINE",
"452 -111 LINE"
);
}
);
};
components = (
{
name = D;
},
{
name = macronbelowcomb;
transform = "{1, 0, 0, 1, 484, 0}";
}
);
layerId = UUID0;
width = 637;
},
{
components = (
{
name = D;
},
{
name = macronbelowcomb;
transform = "{1, 0, 0, 1, 518, 0}";
}
);
layerId = "FC8172F8-A6F4-4E62-B6CE-F5E7C4B552CE";
width = 647;
},
{
background = {
paths = (
{
closed = 1;
nodes = (
"92 641 LINE",
"164 569 LINE",
"194 571 OFFCURVE",
"296 574 OFFCURVE",
"320 574 CURVE SMOOTH",
"453 574 OFFCURVE",
"522 494 OFFCURVE",
"522 325 CURVE SMOOTH",
"522 149 OFFCURVE",
"447 65 OFFCURVE",
"316 65 CURVE SMOOTH",
"291 65 OFFCURVE",
"195 69 OFFCURVE",
"152 74 CURVE",
"92 0 LINE",
"148 -3 OFFCURVE",
"263 -6 OFFCURVE",
"302 -6 CURVE",
"500 -6 OFFCURVE",
"610 118 OFFCURVE",
"610 343 CURVE SMOOTH",
"610 538 OFFCURVE",
"509 645 OFFCURVE",
"326 645 CURVE"
);
},
{
closed = 1;
nodes = (
"179 641 LINE",
"91 641 LINE",
"97 193 LINE",
"91 0 LINE",
"178 0 LINE",
"174 200 LINE"
);
},
{
closed = 1;
nodes = (
"445 -105 LINE",
"201 -105 LINE",
"196 -154 LINE",
"202 -161 LINE",
"447 -161 LINE",
"452 -111 LINE"
);
}
);
};
components = (
{
name = D;
},
{
name = macronbelowcomb;
transform = "{1, 0, 0, 1, 516, 0}";
}
);
layerId = "2DCE43FE-4436-4BBF-8775-653F8291D466";
width = 665;
}
);
unicode = 1E0E;
},
{
glyphname = Dzcaron;
lastChange = "2016-11-22 21:42:25 +0000";
layers = (
{
background = {
paths = (
{
closed = 1;
nodes = (
"92 641 LINE",
"164 569 LINE",
"194 571 OFFCURVE",
"296 574 OFFCURVE",
"320 574 CURVE SMOOTH",
"453 574 OFFCURVE",
"522 494 OFFCURVE",
"522 325 CURVE SMOOTH",
"522 149 OFFCURVE",
"447 65 OFFCURVE",
"316 65 CURVE SMOOTH",
"291 65 OFFCURVE",
"195 69 OFFCURVE",
"152 74 CURVE",
"92 0 LINE",
"148 -3 OFFCURVE",
"263 -6 OFFCURVE",
"302 -6 CURVE",
"500 -6 OFFCURVE",
"610 118 OFFCURVE",
"610 343 CURVE SMOOTH",
"610 538 OFFCURVE",
"509 645 OFFCURVE",
"326 645 CURVE"
);
},
{
closed = 1;
nodes = (
"179 641 LINE",
"91 641 LINE",
"97 193 LINE",
"91 0 LINE",
"178 0 LINE",
"174 200 LINE"
);
},
{
closed = 1;
nodes = (
"693 461 LINE",
"686 399 LINE",
"692 392 LINE",
"766 400 LINE",
"933 400 LINE",
"679 49 LINE",
"680 -2 LINE",
"728 0 LINE",
"925 0 LINE",
"1021 -2 LINE",
"1028 60 LINE",
"1023 67 LINE",
"946 59 LINE",
"770 59 LINE",
"1023 408 LINE",
"1021 460 LINE",
"981 459 LINE",
"778 459 LINE"
);
},
{
closed = 1;
nodes = (
"967 691 LINE",
"957 691 LINE",
"919 655 OFFCURVE",
"885 622 OFFCURVE",
"854 588 CURVE",
"824 622 OFFCURVE",
"790 655 OFFCURVE",
"751 691 CURVE",
"742 691 LINE",
"719 657 LINE",
"761 616 OFFCURVE",
"802 570 OFFCURVE",
"842 522 CURVE",
"866 522 LINE",
"910 573 OFFCURVE",
"951 618 OFFCURVE",
"990 657 CURVE"
);
}
);
};
components = (
{
name = D;
},
{
name = z;
transform = "{1, 0, 0, 1, 637, 0}";
},
{
name = caroncomb;
transform = "{1, 0, 0, 1, 1032, 0}";
}
);
layerId = UUID0;
width = 1036;
},
{
components = (
{
name = D;
},
{
name = z;
transform = "{1, 0, 0, 1, 647, 0}";
},
{
name = caroncomb;
transform = "{1, 0, 0, 1, 1049, 0}";
}
);
layerId = "FC8172F8-A6F4-4E62-B6CE-F5E7C4B552CE";
width = 1060;
},
{
background = {
paths = (
{
closed = 1;
nodes = (
"92 641 LINE",
"164 569 LINE",
"194 571 OFFCURVE",
"296 574 OFFCURVE",
"320 574 CURVE SMOOTH",
"453 574 OFFCURVE",
"522 494 OFFCURVE",
"522 325 CURVE SMOOTH",
"522 149 OFFCURVE",
"447 65 OFFCURVE",
"316 65 CURVE SMOOTH",
"291 65 OFFCURVE",
"195 69 OFFCURVE",
"152 74 CURVE",
"92 0 LINE",
"148 -3 OFFCURVE",
"263 -6 OFFCURVE",
"302 -6 CURVE",
"500 -6 OFFCURVE",
"610 118 OFFCURVE",
"610 343 CURVE SMOOTH",
"610 538 OFFCURVE",
"509 645 OFFCURVE",
"326 645 CURVE"
);
},
{
closed = 1;
nodes = (
"179 641 LINE",
"91 641 LINE",
"97 193 LINE",
"91 0 LINE",
"178 0 LINE",
"174 200 LINE"
);
},
{
closed = 1;
nodes = (
"693 461 LINE",
"686 399 LINE",
"692 392 LINE",
"766 400 LINE",
"933 400 LINE",
"679 49 LINE",
"680 -2 LINE",
"728 0 LINE",
"925 0 LINE",
"1021 -2 LINE",
"1028 60 LINE",
"1023 67 LINE",
"946 59 LINE",
"770 59 LINE",
"1023 408 LINE",
"1021 460 LINE",
"981 459 LINE",
"778 459 LINE"
);
},
{
closed = 1;
nodes = (
"967 691 LINE",
"957 691 LINE",
"919 655 OFFCURVE",
"885 622 OFFCURVE",
"854 588 CURVE",
"824 622 OFFCURVE",
"790 655 OFFCURVE",
"751 691 CURVE",
"742 691 LINE",
"719 657 LINE",
"761 616 OFFCURVE",
"802 570 OFFCURVE",
"842 522 CURVE",
"866 522 LINE",
"910 573 OFFCURVE",
"951 618 OFFCURVE",
"990 657 CURVE"
);
}
);
};
components = (
{
name = D;
},
{
name = z;
transform = "{1, 0, 0, 1, 665, 0}";
},
{
name = caroncomb;
transform = "{1, 0, 0, 1, 1079, 0}";
}
);
layerId = "2DCE43FE-4436-4BBF-8775-653F8291D466";
width = 1103;
}
);
leftKerningGroup = B;
rightKerningGroup = uni01C5;
unicode = 01C5;
},
{
glyphname = E;
lastChange = "2016-11-22 21:40:43 +0000";
layers = (
{
anchors = (
{
name = bottom;
position = "{267, 0}";
},
{
name = ogonek;
position = "{382, 20}";
},
{
name = top;
position = "{266, 637}";
}
);
background = {
paths = (
{
closed = 1;
nodes = (
"179 641 LINE",
"91 641 LINE",
"97 193 LINE",
"91 0 LINE",
"178 0 LINE",
"174 200 LINE"
);
},
{
closed = 1;
nodes = (
"457 75 LINE",
"304 70 LINE",
"150 72 LINE",
"147 7 LINE",
"150 0 LINE",
"456 0 LINE",
"462 67 LINE"
);
},
{
closed = 1;
nodes = (
"401 365 LINE",
"295 362 LINE",
"153 364 LINE",
"150 299 LINE",
"153 292 LINE",
"288 294 LINE",
"400 291 LINE",
"407 358 LINE"
);
},
{
closed = 1;
nodes = (
"457 641 LINE",
"150 641 LINE",
"147 575 LINE",
"150 568 LINE",
"304 570 LINE",
"455 566 LINE",
"462 633 LINE"
);
}
);
};
layerId = UUID0;
paths = (
{
closed = 1;
nodes = (
"130 637 LINE",
"110 637 LINE",
"110 195 LINE",
"110 0 LINE",
"130 0 LINE",
"130 195 LINE"
);
},
{
closed = 1;
nodes = (
"422 20 LINE",
"262 20 LINE",
"124 20 LINE",
"120 4 LINE",
"124 0 LINE",
"421 0 LINE",
"425 16 LINE"
);
},
{
closed = 1;
nodes = (
"368 340 LINE",
"261 340 LINE",
"124 340 LINE",
"120 324 LINE",
"124 320 LINE",
"257 320 LINE",
"367 320 LINE",
"371 336 LINE"
);
},
{
closed = 1;
nodes = (
"418 637 LINE",
"124 637 LINE",
"120 621 LINE",
"124 617 LINE",
"270 617 LINE",
"417 617 LINE",
"421 633 LINE"
);
}
);
width = 454;
},
{
anchors = (
{
name = bottom;
position = "{282, 0}";
},
{
name = ogonek;
position = "{469, 10}";
},
{
name = top;
position = "{275, 641}";
}
);
layerId = "FC8172F8-A6F4-4E62-B6CE-F5E7C4B552CE";
paths = (
{
closed = 1;
nodes = (
"179 641 LINE",
"91 641 LINE",
"97 193 LINE",
"91 0 LINE",
"178 0 LINE",
"174 200 LINE"
);
},
{
closed = 1;
nodes = (
"457 75 LINE",
"304 70 LINE",
"150 72 LINE",
"147 7 LINE",
"150 0 LINE",
"456 0 LINE",
"462 67 LINE"
);
},
{
closed = 1;
nodes = (
"401 365 LINE",
"295 362 LINE",
"153 364 LINE",
"150 299 LINE",
"153 292 LINE",
"288 294 LINE",
"400 291 LINE",
"407 358 LINE"
);
},
{
closed = 1;
nodes = (
"457 641 LINE",
"150 641 LINE",
"147 575 LINE",
"150 568 LINE",
"304 570 LINE",
"455 566 LINE",
"462 633 LINE"
);
}
);
width = 485;
},
{
anchors = (
{
name = bottom;
position = "{309, 0}";
},
{
name = ogonek;
position = "{495, 10}";
},
{
name = top;
position = "{292, 647}";
}
);
background = {
paths = (
{
closed = 1;
nodes = (
"179 641 LINE",
"91 641 LINE",
"97 193 LINE",
"91 0 LINE",
"178 0 LINE",
"174 200 LINE"
);
},
{
closed = 1;
nodes = (
"457 75 LINE",
"304 70 LINE",
"150 72 LINE",
"147 7 LINE",
"150 0 LINE",
"456 0 LINE",
"462 67 LINE"
);
},
{
closed = 1;
nodes = (
"401 365 LINE",
"295 362 LINE",
"153 364 LINE",
"150 299 LINE",
"153 292 LINE",
"288 294 LINE",
"400 291 LINE",
"407 358 LINE"
);
},
{
closed = 1;
nodes = (
"457 641 LINE",
"150 641 LINE",
"147 575 LINE",
"150 568 LINE",
"304 570 LINE",
"455 566 LINE",
"462 633 LINE"
);
}
);
};
layerId = "2DCE43FE-4436-4BBF-8775-653F8291D466";
paths = (
{
closed = 1;
nodes = (
"264 647 LINE",
"60 647 LINE",
"70 190 LINE",
"60 0 LINE",
"261 0 LINE",
"253 210 LINE"
);
},
{
closed = 1;
nodes = (
"517 160 LINE",
"351 154 LINE",
"194 154 LINE",
"194 11 LINE",
"194 0 LINE",
"516 0 LINE",
"528 146 LINE"
);
},
{
closed = 1;
nodes = (
"461 405 LINE",
"357 402 LINE",
"204 402 LINE",
"204 259 LINE",
"204 248 LINE",
"344 248 LINE",
"460 245 LINE",
"472 391 LINE"
);
},
{
closed = 1;
nodes = (
"524 647 LINE",
"194 647 LINE",
"194 504 LINE",
"194 493 LINE",
"363 493 LINE",
"522 487 LINE",
"535 633 LINE"
);
}
);
width = 541;
}
);
leftKerningGroup = B;
rightKerningGroup = AE;
unicode = 0045;
},
{
glyphname = Eacute;
lastChange = "2016-11-22 21:40:43 +0000";
layers = (
{
background = {
paths = (
{
closed = 1;
nodes = (
"179 641 LINE",
"91 641 LINE",
"97 193 LINE",
"91 0 LINE",
"178 0 LINE",
"174 200 LINE"
);
},
{
closed = 1;
nodes = (
"457 75 LINE",
"304 70 LINE",
"150 72 LINE",
"147 7 LINE",
"150 0 LINE",
"456 0 LINE",
"462 67 LINE"
);
},
{
closed = 1;
nodes = (
"401 365 LINE",
"295 362 LINE",
"153 364 LINE",
"150 299 LINE",
"153 292 LINE",
"288 294 LINE",
"400 291 LINE",
"407 358 LINE"
);
},
{
closed = 1;
nodes = (
"457 641 LINE",
"150 641 LINE",
"147 575 LINE",
"150 568 LINE",
"304 570 LINE",
"455 566 LINE",
"462 633 LINE"
);
},
{
closed = 1;
nodes = (
"376 866 LINE",
"309 826 OFFCURVE",
"247 794 OFFCURVE",
"183 762 CURVE",
"198 724 LINE",
"207 720 LINE",
"273 747 OFFCURVE",
"336 773 OFFCURVE",
"405 805 CURVE",
"408 814 LINE",
"386 864 LINE"
);
}
);
};
components = (
{
name = E;
},
{
name = acutecomb.case;
transform = "{1, 0, 0, 1, 482, 185}";
}
);
layerId = UUID0;
width = 454;
},
{
components = (
{
name = E;
},
{
name = acutecomb.case;
transform = "{1, 0, 0, 1, 490, 182}";
}
);
layerId = "FC8172F8-A6F4-4E62-B6CE-F5E7C4B552CE";
width = 485;
},
{
background = {
paths = (
{
closed = 1;
nodes = (
"179 641 LINE",
"91 641 LINE",
"97 193 LINE",
"91 0 LINE",
"178 0 LINE",
"174 200 LINE"
);
},
{
closed = 1;
nodes = (
"457 75 LINE",
"304 70 LINE",
"150 72 LINE",
"147 7 LINE",
"150 0 LINE",
"456 0 LINE",
"462 67 LINE"
);
},
{
closed = 1;
nodes = (
"401 365 LINE",
"295 362 LINE",
"153 364 LINE",
"150 299 LINE",
"153 292 LINE",
"288 294 LINE",
"400 291 LINE",
"407 358 LINE"
);
},
{
closed = 1;
nodes = (
"457 641 LINE",
"150 641 LINE",
"147 575 LINE",
"150 568 LINE",
"304 570 LINE",
"455 566 LINE",
"462 633 LINE"
);
},
{
closed = 1;
nodes = (
"376 866 LINE",
"309 826 OFFCURVE",
"247 794 OFFCURVE",
"183 762 CURVE",
"198 724 LINE",
"207 720 LINE",
"273 747 OFFCURVE",
"336 773 OFFCURVE",
"405 805 CURVE",
"408 814 LINE",
"386 864 LINE"
);
}
);
};
components = (
{
name = E;
},
{
name = acutecomb.case;
transform = "{1, 0, 0, 1, 505, 175}";
}
);
layerId = "2DCE43FE-4436-4BBF-8775-653F8291D466";
width = 541;
}
);
leftKerningGroup = B;
rightKerningGroup = AE;
unicode = 00C9;
},
{
glyphname = Ebreve;
lastChange = "2016-11-22 21:42:25 +0000";
layers = (
{
background = {
paths = (
{
closed = 1;
nodes = (
"179 641 LINE",
"91 641 LINE",
"97 193 LINE",
"91 0 LINE",
"178 0 LINE",
"174 200 LINE"
);
},
{
closed = 1;
nodes = (
"457 75 LINE",
"304 70 LINE",
"150 72 LINE",
"147 7 LINE",
"150 0 LINE",
"456 0 LINE",
"462 67 LINE"
);
},
{
closed = 1;
nodes = (
"401 365 LINE",
"295 362 LINE",
"153 364 LINE",
"150 299 LINE",
"153 292 LINE",
"288 294 LINE",
"400 291 LINE",
"407 358 LINE"
);
},
{
closed = 1;
nodes = (
"457 641 LINE",
"150 641 LINE",
"147 575 LINE",
"150 568 LINE",
"304 570 LINE",
"455 566 LINE",
"462 633 LINE"
);
},
{
closed = 1;
nodes = (
"382 845 LINE",
"369 845 LINE",
"354 807 OFFCURVE",
"322 785 OFFCURVE",
"276 785 CURVE SMOOTH",
"230 785 OFFCURVE",
"197 807 OFFCURVE",
"183 845 CURVE",
"170 845 LINE",
"147 816 LINE",
"166 757 OFFCURVE",
"211 724 OFFCURVE",
"274 724 CURVE SMOOTH",
"337 724 OFFCURVE",
"384 757 OFFCURVE",
"404 816 CURVE"
);
}
);
};
components = (
{
name = E;
},
{
name = brevecomb.case;
transform = "{1, 0, 0, 1, 461, 185}";
}
);
layerId = UUID0;
width = 454;
},
{
components = (
{
name = E;
},
{
name = brevecomb.case;
transform = "{1, 0, 0, 1, 470, 182}";
}
);
layerId = "FC8172F8-A6F4-4E62-B6CE-F5E7C4B552CE";
width = 485;
},
{
background = {
paths = (
{
closed = 1;
nodes = (
"179 641 LINE",
"91 641 LINE",
"97 193 LINE",
"91 0 LINE",
"178 0 LINE",
"174 200 LINE"
);
},
{
closed = 1;
nodes = (
"457 75 LINE",
"304 70 LINE",
"150 72 LINE",
"147 7 LINE",
"150 0 LINE",
"456 0 LINE",
"462 67 LINE"
);
},
{
closed = 1;
nodes = (
"401 365 LINE",
"295 362 LINE",
"153 364 LINE",
"150 299 LINE",
"153 292 LINE",
"288 294 LINE",
"400 291 LINE",
"407 358 LINE"
);
},
{
closed = 1;
nodes = (
"457 641 LINE",
"150 641 LINE",
"147 575 LINE",
"150 568 LINE",
"304 570 LINE",
"455 566 LINE",
"462 633 LINE"
);
},
{
closed = 1;
nodes = (
"382 845 LINE",
"369 845 LINE",
"354 807 OFFCURVE",
"322 785 OFFCURVE",
"276 785 CURVE SMOOTH",
"230 785 OFFCURVE",
"197 807 OFFCURVE",
"183 845 CURVE",
"170 845 LINE",
"147 816 LINE",
"166 757 OFFCURVE",
"211 724 OFFCURVE",
"274 724 CURVE SMOOTH",
"337 724 OFFCURVE",
"384 757 OFFCURVE",
"404 816 CURVE"
);
}
);
};
components = (
{
name = E;
},
{
name = brevecomb.case;
transform = "{1, 0, 0, 1, 487, 175}";
}
);
layerId = "2DCE43FE-4436-4BBF-8775-653F8291D466";
width = 541;
}
);
leftKerningGroup = B;
rightKerningGroup = AE;
unicode = 0114;
},
{
glyphname = Ecaron;
lastChange = "2016-11-22 21:42:25 +0000";
layers = (
{
background = {
paths = (
{
closed = 1;
nodes = (
"179 641 LINE",
"91 641 LINE",
"97 193 LINE",
"91 0 LINE",
"178 0 LINE",
"174 200 LINE"
);
},
{
closed = 1;
nodes = (
"457 75 LINE",
"304 70 LINE",
"150 72 LINE",
"147 7 LINE",
"150 0 LINE",
"456 0 LINE",
"462 67 LINE"
);
},
{
closed = 1;
nodes = (
"401 365 LINE",
"295 362 LINE",
"153 364 LINE",
"150 299 LINE",
"153 292 LINE",
"288 294 LINE",
"400 291 LINE",
"407 358 LINE"
);
},
{
closed = 1;
nodes = (
"457 641 LINE",
"150 641 LINE",
"147 575 LINE",
"150 568 LINE",
"304 570 LINE",
"455 566 LINE",
"462 633 LINE"
);
},
{
closed = 1;
nodes = (
"388 851 LINE",
"379 851 LINE",
"343 829 OFFCURVE",
"309 808 OFFCURVE",
"275 785 CURVE",
"241 808 OFFCURVE",
"207 829 OFFCURVE",
"172 851 CURVE",
"162 851 LINE",
"146 815 LINE",
"188 786 OFFCURVE",
"227 755 OFFCURVE",
"265 723 CURVE",
"287 723 LINE",
"323 755 OFFCURVE",
"363 786 OFFCURVE",
"405 815 CURVE"
);
}
);
};
components = (
{
name = E;
},
{
name = caroncomb.case;
transform = "{1, 0, 0, 1, 461, 185}";
}
);
layerId = UUID0;
width = 454;
},
{
components = (
{
name = E;
},
{
name = caroncomb.case;
transform = "{1, 0, 0, 1, 470, 182}";
}
);
layerId = "FC8172F8-A6F4-4E62-B6CE-F5E7C4B552CE";
width = 485;
},
{
background = {
paths = (
{
closed = 1;
nodes = (
"179 641 LINE",
"91 641 LINE",
"97 193 LINE",
"91 0 LINE",
"178 0 LINE",
"174 200 LINE"
);
},
{
closed = 1;
nodes = (
"457 75 LINE",
"304 70 LINE",
"150 72 LINE",
"147 7 LINE",
"150 0 LINE",
"456 0 LINE",
"462 67 LINE"
);
},
{
closed = 1;
nodes = (
"401 365 LINE",
"295 362 LINE",
"153 364 LINE",
"150 299 LINE",
"153 292 LINE",
"288 294 LINE",
"400 291 LINE",
"407 358 LINE"
);
},
{
closed = 1;
nodes = (
"457 641 LINE",
"150 641 LINE",
"147 575 LINE",
"150 568 LINE",
"304 570 LINE",
"455 566 LINE",
"462 633 LINE"
);
},
{
closed = 1;
nodes = (
"388 851 LINE",
"379 851 LINE",
"343 829 OFFCURVE",
"309 808 OFFCURVE",
"275 785 CURVE",
"241 808 OFFCURVE",
"207 829 OFFCURVE",
"172 851 CURVE",
"162 851 LINE",
"146 815 LINE",
"188 786 OFFCURVE",
"227 755 OFFCURVE",
"265 723 CURVE",
"287 723 LINE",
"323 755 OFFCURVE",
"363 786 OFFCURVE",
"405 815 CURVE"
);
}
);
};
components = (
{
name = E;
},
{
name = caroncomb.case;
transform = "{1, 0, 0, 1, 487, 175}";
}
);
layerId = "2DCE43FE-4436-4BBF-8775-653F8291D466";
width = 541;
}
);
leftKerningGroup = B;
rightKerningGroup = AE;
unicode = 011A;
},
{
glyphname = Ecedillabreve;
lastChange = "2016-11-22 21:42:25 +0000";
layers = (
{
background = {
paths = (
{
closed = 1;
nodes = (
"179 641 LINE",
"91 641 LINE",
"97 193 LINE",
"91 0 LINE",
"178 0 LINE",
"174 200 LINE"
);
},
{
closed = 1;
nodes = (
"457 75 LINE",
"304 70 LINE",
"150 72 LINE",
"147 7 LINE",
"150 0 LINE",
"456 0 LINE",
"462 67 LINE"
);
},
{
closed = 1;
nodes = (
"401 365 LINE",
"295 362 LINE",
"153 364 LINE",
"150 299 LINE",
"153 292 LINE",
"288 294 LINE",
"400 291 LINE",
"407 358 LINE"
);
},
{
closed = 1;
nodes = (
"457 641 LINE",
"150 641 LINE",
"147 575 LINE",
"150 568 LINE",
"304 570 LINE",
"455 566 LINE",
"462 633 LINE"
);
},
{
closed = 1;
nodes = (
"314 20 LINE",
"265 20 LINE",
"241 -72 LINE",
"289 -101 LINE SMOOTH",
"301 -107 OFFCURVE",
"310 -113 OFFCURVE",
"310 -125 CURVE SMOOTH",
"310 -142 OFFCURVE",
"297 -151 OFFCURVE",
"279 -151 CURVE SMOOTH",
"255 -151 OFFCURVE",
"239 -139 OFFCURVE",
"222 -120 CURVE",
"217 -122 LINE",
"209 -164 LINE",
"225 -180 OFFCURVE",
"249 -195 OFFCURVE",
"283 -195 CURVE SMOOTH",
"332 -195 OFFCURVE",
"366 -167 OFFCURVE",
"366 -127 CURVE SMOOTH",
"366 -105 OFFCURVE",
"356 -87 OFFCURVE",
"327 -71 CURVE SMOOTH",
"293 -51 LINE"
);
},
{
closed = 1;
nodes = (
"382 845 LINE",
"369 845 LINE",
"354 807 OFFCURVE",
"322 785 OFFCURVE",
"276 785 CURVE SMOOTH",
"230 785 OFFCURVE",
"197 807 OFFCURVE",
"183 845 CURVE",
"170 845 LINE",
"147 816 LINE",
"166 757 OFFCURVE",
"211 724 OFFCURVE",
"274 724 CURVE SMOOTH",
"337 724 OFFCURVE",
"384 757 OFFCURVE",
"404 816 CURVE"
);
}
);
};
components = (
{
name = E;
},
{
name = cedillacomb;
transform = "{1, 0, 0, 1, 467, 0}";
},
{
name = brevecomb.case;
transform = "{1, 0, 0, 1, 461, 185}";
}
);
layerId = UUID0;
width = 454;
},
{
components = (
{
name = E;
},
{
name = cedillacomb;
transform = "{1, 0, 0, 1, 481, 0}";
},
{
name = brevecomb.case;
transform = "{1, 0, 0, 1, 470, 182}";
}
);
layerId = "FC8172F8-A6F4-4E62-B6CE-F5E7C4B552CE";
width = 485;
},
{
background = {
paths = (
{
closed = 1;
nodes = (
"179 641 LINE",
"91 641 LINE",
"97 193 LINE",
"91 0 LINE",
"178 0 LINE",
"174 200 LINE"
);
},
{
closed = 1;
nodes = (
"457 75 LINE",
"304 70 LINE",
"150 72 LINE",
"147 7 LINE",
"150 0 LINE",
"456 0 LINE",
"462 67 LINE"
);
},
{
closed = 1;
nodes = (
"401 365 LINE",
"295 362 LINE",
"153 364 LINE",
"150 299 LINE",
"153 292 LINE",
"288 294 LINE",
"400 291 LINE",
"407 358 LINE"
);
},
{
closed = 1;
nodes = (
"457 641 LINE",
"150 641 LINE",
"147 575 LINE",
"150 568 LINE",
"304 570 LINE",
"455 566 LINE",
"462 633 LINE"
);
},
{
closed = 1;
nodes = (
"314 20 LINE",
"265 20 LINE",
"241 -72 LINE",
"289 -101 LINE SMOOTH",
"301 -107 OFFCURVE",
"310 -113 OFFCURVE",
"310 -125 CURVE SMOOTH",
"310 -142 OFFCURVE",
"297 -151 OFFCURVE",
"279 -151 CURVE SMOOTH",
"255 -151 OFFCURVE",
"239 -139 OFFCURVE",
"222 -120 CURVE",
"217 -122 LINE",
"209 -164 LINE",
"225 -180 OFFCURVE",
"249 -195 OFFCURVE",
"283 -195 CURVE SMOOTH",
"332 -195 OFFCURVE",
"366 -167 OFFCURVE",
"366 -127 CURVE SMOOTH",
"366 -105 OFFCURVE",
"356 -87 OFFCURVE",
"327 -71 CURVE SMOOTH",
"293 -51 LINE"
);
},
{
closed = 1;
nodes = (
"382 845 LINE",
"369 845 LINE",
"354 807 OFFCURVE",
"322 785 OFFCURVE",
"276 785 CURVE SMOOTH",
"230 785 OFFCURVE",
"197 807 OFFCURVE",
"183 845 CURVE",
"170 845 LINE",
"147 816 LINE",
"166 757 OFFCURVE",
"211 724 OFFCURVE",
"274 724 CURVE SMOOTH",
"337 724 OFFCURVE",
"384 757 OFFCURVE",
"404 816 CURVE"
);
}
);
};
components = (
{
name = E;
},
{
name = cedillacomb;
transform = "{1, 0, 0, 1, 507, 1}";
},
{
name = brevecomb.case;
transform = "{1, 0, 0, 1, 487, 175}";
}
);
layerId = "2DCE43FE-4436-4BBF-8775-653F8291D466";
width = 541;
}
);
unicode = 1E1C;
},
{
glyphname = Ecircumflex;
lastChange = "2016-11-22 21:42:25 +0000";
layers = (
{
background = {
paths = (
{
closed = 1;
nodes = (
"179 641 LINE",
"91 641 LINE",
"97 193 LINE",
"91 0 LINE",
"178 0 LINE",
"174 200 LINE"
);
},
{
closed = 1;
nodes = (
"457 75 LINE",
"304 70 LINE",
"150 72 LINE",
"147 7 LINE",
"150 0 LINE",
"456 0 LINE",
"462 67 LINE"
);
},
{
closed = 1;
nodes = (
"401 365 LINE",
"295 362 LINE",
"153 364 LINE",
"150 299 LINE",
"153 292 LINE",
"288 294 LINE",
"400 291 LINE",
"407 358 LINE"
);
},
{
closed = 1;
nodes = (
"457 641 LINE",
"150 641 LINE",
"147 575 LINE",
"150 568 LINE",
"304 570 LINE",
"455 566 LINE",
"462 633 LINE"
);
},
{
closed = 1;
nodes = (
"941 733 LINE",
"950 733 LINE",
"986 755 OFFCURVE",
"1020 776 OFFCURVE",
"1054 799 CURVE",
"1088 776 OFFCURVE",
"1122 755 OFFCURVE",
"1157 733 CURVE",
"1167 733 LINE",
"1183 769 LINE",
"1141 798 OFFCURVE",
"1102 829 OFFCURVE",
"1064 861 CURVE",
"1042 861 LINE",
"1006 829 OFFCURVE",
"966 798 OFFCURVE",
"924 769 CURVE"
);
}
);
};
components = (
{
name = E;
},
{
name = caroncomb.case;
transform = "{-1, 0, 0, -1, 851, 1372}";
}
);
layerId = UUID0;
width = 454;
},
{
components = (
{
name = E;
},
{
name = caroncomb.case;
transform = "{-1, 0, 0, -1, 859, 1402}";
}
);
layerId = "FC8172F8-A6F4-4E62-B6CE-F5E7C4B552CE";
width = 485;
},
{
background = {
paths = (
{
closed = 1;
nodes = (
"179 641 LINE",
"91 641 LINE",
"97 193 LINE",
"91 0 LINE",
"178 0 LINE",
"174 200 LINE"
);
},
{
closed = 1;
nodes = (
"457 75 LINE",
"304 70 LINE",
"150 72 LINE",
"147 7 LINE",
"150 0 LINE",
"456 0 LINE",
"462 67 LINE"
);
},
{
closed = 1;
nodes = (
"401 365 LINE",
"295 362 LINE",
"153 364 LINE",
"150 299 LINE",
"153 292 LINE",
"288 294 LINE",
"400 291 LINE",
"407 358 LINE"
);
},
{
closed = 1;
nodes = (
"457 641 LINE",
"150 641 LINE",
"147 575 LINE",
"150 568 LINE",
"304 570 LINE",
"455 566 LINE",
"462 633 LINE"
);
},
{
closed = 1;
nodes = (
"941 733 LINE",
"950 733 LINE",
"986 755 OFFCURVE",
"1020 776 OFFCURVE",
"1054 799 CURVE",
"1088 776 OFFCURVE",
"1122 755 OFFCURVE",
"1157 733 CURVE",
"1167 733 LINE",
"1183 769 LINE",
"1141 798 OFFCURVE",
"1102 829 OFFCURVE",
"1064 861 CURVE",
"1042 861 LINE",
"1006 829 OFFCURVE",
"966 798 OFFCURVE",
"924 769 CURVE"
);
}
);
};
components = (
{
name = E;
},
{
name = caroncomb.case;
transform = "{-1, 0, 0, -1, 875, 1453}";
}
);
layerId = "2DCE43FE-4436-4BBF-8775-653F8291D466";
width = 541;
}
);
leftKerningGroup = B;
rightKerningGroup = AE;
unicode = 00CA;
},
{
glyphname = Ecircumflexacute;
lastChange = "2016-11-22 21:42:25 +0000";
layers = (
{
background = {
paths = (
{
closed = 1;
nodes = (
"400 948 LINE",
"392 946 LINE",
"328 851 LINE",
"359 827 LINE",
"367 827 LINE",
"443 918 LINE",
"441 926 LINE"
);
},
{
closed = 1;
nodes = (
"179 641 LINE",
"91 641 LINE",
"97 193 LINE",
"91 0 LINE",
"178 0 LINE",
"174 200 LINE"
);
},
{
closed = 1;
nodes = (
"457 75 LINE",
"304 70 LINE",
"150 72 LINE",
"147 7 LINE",
"150 0 LINE",
"456 0 LINE",
"462 67 LINE"
);
},
{
closed = 1;
nodes = (
"401 365 LINE",
"295 362 LINE",
"153 364 LINE",
"150 299 LINE",
"153 292 LINE",
"288 294 LINE",
"400 291 LINE",
"407 358 LINE"
);
},
{
closed = 1;
nodes = (
"457 641 LINE",
"150 641 LINE",
"147 575 LINE",
"150 568 LINE",
"304 570 LINE",
"455 566 LINE",
"462 633 LINE"
);
},
{
closed = 1;
nodes = (
"940 713 LINE",
"949 713 LINE",
"985 735 OFFCURVE",
"1019 756 OFFCURVE",
"1053 779 CURVE",
"1087 756 OFFCURVE",
"1121 735 OFFCURVE",
"1156 713 CURVE",
"1166 713 LINE",
"1182 749 LINE",
"1140 778 OFFCURVE",
"1101 809 OFFCURVE",
"1063 841 CURVE",
"1041 841 LINE",
"1005 809 OFFCURVE",
"965 778 OFFCURVE",
"923 749 CURVE"
);
}
);
};
components = (
{
name = E;
},
{
name = circumflexcomb_acutecomb;
transform = "{1, 0, 0, 1, 461, 185}";
}
);
layerId = UUID0;
width = 454;
},
{
components = (
{
name = E;
},
{
name = caroncomb.case;
transform = "{-1, 0, 0, -1, 858, 1382}";
}
);
layerId = "FC8172F8-A6F4-4E62-B6CE-F5E7C4B552CE";
paths = (
{
closed = 1;
nodes = (
"400 948 LINE",
"392 946 LINE",
"328 851 LINE",
"359 827 LINE",
"367 827 LINE",
"443 918 LINE",
"441 926 LINE"
);
}
);
width = 485;
},
{
background = {
paths = (
{
closed = 1;
nodes = (
"400 948 LINE",
"392 946 LINE",
"328 851 LINE",
"359 827 LINE",
"367 827 LINE",
"443 918 LINE",
"441 926 LINE"
);
},
{
closed = 1;
nodes = (
"179 641 LINE",
"91 641 LINE",
"97 193 LINE",
"91 0 LINE",
"178 0 LINE",
"174 200 LINE"
);
},
{
closed = 1;
nodes = (
"457 75 LINE",
"304 70 LINE",
"150 72 LINE",
"147 7 LINE",
"150 0 LINE",
"456 0 LINE",
"462 67 LINE"
);
},
{
closed = 1;
nodes = (
"401 365 LINE",
"295 362 LINE",
"153 364 LINE",
"150 299 LINE",
"153 292 LINE",
"288 294 LINE",
"400 291 LINE",
"407 358 LINE"
);
},
{
closed = 1;
nodes = (
"457 641 LINE",
"150 641 LINE",
"147 575 LINE",
"150 568 LINE",
"304 570 LINE",
"455 566 LINE",
"462 633 LINE"
);
},
{
closed = 1;
nodes = (
"940 713 LINE",
"949 713 LINE",
"985 735 OFFCURVE",
"1019 756 OFFCURVE",
"1053 779 CURVE",
"1087 756 OFFCURVE",
"1121 735 OFFCURVE",
"1156 713 CURVE",
"1166 713 LINE",
"1182 749 LINE",
"1140 778 OFFCURVE",
"1101 809 OFFCURVE",
"1063 841 CURVE",
"1041 841 LINE",
"1005 809 OFFCURVE",
"965 778 OFFCURVE",
"923 749 CURVE"
);
}
);
};
components = (
{
name = E;
},
{
name = circumflexcomb_acutecomb;
transform = "{1, 0, 0, 1, 486, 175}";
}
);
layerId = "2DCE43FE-4436-4BBF-8775-653F8291D466";
width = 541;
}
);
leftKerningGroup = B;
rightKerningGroup = AE;
unicode = 1EBE;
},
{
glyphname = Ecircumflexdotbelow;
lastChange = "2016-11-22 21:42:25 +0000";
layers = (
{
background = {
paths = (
{
closed = 1;
nodes = (
"179 641 LINE",
"91 641 LINE",
"97 193 LINE",
"91 0 LINE",
"178 0 LINE",
"174 200 LINE"
);
},
{
closed = 1;
nodes = (
"457 75 LINE",
"304 70 LINE",
"150 72 LINE",
"147 7 LINE",
"150 0 LINE",
"456 0 LINE",
"462 67 LINE"
);
},
{
closed = 1;
nodes = (
"401 365 LINE",
"295 362 LINE",
"153 364 LINE",
"150 299 LINE",
"153 292 LINE",
"288 294 LINE",
"400 291 LINE",
"407 358 LINE"
);
},
{
closed = 1;
nodes = (
"457 641 LINE",
"150 641 LINE",
"147 575 LINE",
"150 568 LINE",
"304 570 LINE",
"455 566 LINE",
"462 633 LINE"
);
},
{
closed = 1;
nodes = (
"941 733 LINE",
"950 733 LINE",
"986 755 OFFCURVE",
"1020 776 OFFCURVE",
"1054 799 CURVE",
"1088 776 OFFCURVE",
"1122 755 OFFCURVE",
"1157 733 CURVE",
"1167 733 LINE",
"1183 769 LINE",
"1141 798 OFFCURVE",
"1102 829 OFFCURVE",
"1064 861 CURVE",
"1042 861 LINE",
"1006 829 OFFCURVE",
"966 798 OFFCURVE",
"924 769 CURVE"
);
},
{
closed = 1;
nodes = (
"252 -68 OFFCURVE",
"233 -88 OFFCURVE",
"233 -118 CURVE SMOOTH",
"233 -148 OFFCURVE",
"250 -166 OFFCURVE",
"280 -166 CURVE SMOOTH",
"310 -166 OFFCURVE",
"329 -146 OFFCURVE",
"329 -115 CURVE SMOOTH",
"329 -86 OFFCURVE",
"312 -68 OFFCURVE",
"283 -68 CURVE SMOOTH"
);
}
);
};
components = (
{
name = E;
},
{
name = caroncomb.case;
transform = "{-1, 0, 0, -1, 851, 1372}";
},
{
name = period;
transform = "{1, 0, 0, 1, 152, -126}";
}
);
layerId = UUID0;
width = 454;
},
{
components = (
{
name = E;
},
{
name = caroncomb.case;
transform = "{-1, 0, 0, -1, 859, 1402}";
},
{
name = period;
transform = "{1, 0, 0, 1, 167, -161}";
}
);
layerId = "FC8172F8-A6F4-4E62-B6CE-F5E7C4B552CE";
width = 485;
},
{
background = {
paths = (
{
closed = 1;
nodes = (
"179 641 LINE",
"91 641 LINE",
"97 193 LINE",
"91 0 LINE",
"178 0 LINE",
"174 200 LINE"
);
},
{
closed = 1;
nodes = (
"457 75 LINE",
"304 70 LINE",
"150 72 LINE",
"147 7 LINE",
"150 0 LINE",
"456 0 LINE",
"462 67 LINE"
);
},
{
closed = 1;
nodes = (
"401 365 LINE",
"295 362 LINE",
"153 364 LINE",
"150 299 LINE",
"153 292 LINE",
"288 294 LINE",
"400 291 LINE",
"407 358 LINE"
);
},
{
closed = 1;
nodes = (
"457 641 LINE",
"150 641 LINE",
"147 575 LINE",
"150 568 LINE",
"304 570 LINE",
"455 566 LINE",
"462 633 LINE"
);
},
{
closed = 1;
nodes = (
"941 733 LINE",
"950 733 LINE",
"986 755 OFFCURVE",
"1020 776 OFFCURVE",
"1054 799 CURVE",
"1088 776 OFFCURVE",
"1122 755 OFFCURVE",
"1157 733 CURVE",
"1167 733 LINE",
"1183 769 LINE",
"1141 798 OFFCURVE",
"1102 829 OFFCURVE",
"1064 861 CURVE",
"1042 861 LINE",
"1006 829 OFFCURVE",
"966 798 OFFCURVE",
"924 769 CURVE"
);
},
{
closed = 1;
nodes = (
"252 -68 OFFCURVE",
"233 -88 OFFCURVE",
"233 -118 CURVE SMOOTH",
"233 -148 OFFCURVE",
"250 -166 OFFCURVE",
"280 -166 CURVE SMOOTH",
"310 -166 OFFCURVE",
"329 -146 OFFCURVE",
"329 -115 CURVE SMOOTH",
"329 -86 OFFCURVE",
"312 -68 OFFCURVE",
"283 -68 CURVE SMOOTH"
);
}
);
};
components = (
{
name = E;
},
{
name = caroncomb.case;
transform = "{-1, 0, 0, -1, 875, 1453}";
},
{
name = period;
transform = "{1, 0, 0, 1, 196, -222}";
}
);
layerId = "2DCE43FE-4436-4BBF-8775-653F8291D466";
width = 541;
}
);
leftKerningGroup = B;
rightKerningGroup = AE;
unicode = 1EC6;
},
{
glyphname = Ecircumflexgrave;
lastChange = "2016-11-22 21:42:25 +0000";
layers = (
{
background = {
paths = (
{
closed = 1;
nodes = (
"377 827 LINE",
"385 827 LINE",
"416 851 LINE",
"351 946 LINE",
"343 948 LINE",
"302 926 LINE",
"301 918 LINE"
);
},
{
closed = 1;
nodes = (
"179 641 LINE",
"91 641 LINE",
"97 193 LINE",
"91 0 LINE",
"178 0 LINE",
"174 200 LINE"
);
},
{
closed = 1;
nodes = (
"457 75 LINE",
"304 70 LINE",
"150 72 LINE",
"147 7 LINE",
"150 0 LINE",
"456 0 LINE",
"462 67 LINE"
);
},
{
closed = 1;
nodes = (
"401 365 LINE",
"295 362 LINE",
"153 364 LINE",
"150 299 LINE",
"153 292 LINE",
"288 294 LINE",
"400 291 LINE",
"407 358 LINE"
);
},
{
closed = 1;
nodes = (
"457 641 LINE",
"150 641 LINE",
"147 575 LINE",
"150 568 LINE",
"304 570 LINE",
"455 566 LINE",
"462 633 LINE"
);
},
{
closed = 1;
nodes = (
"940 713 LINE",
"949 713 LINE",
"985 735 OFFCURVE",
"1019 756 OFFCURVE",
"1053 779 CURVE",
"1087 756 OFFCURVE",
"1121 735 OFFCURVE",
"1156 713 CURVE",
"1166 713 LINE",
"1182 749 LINE",
"1140 778 OFFCURVE",
"1101 809 OFFCURVE",
"1063 841 CURVE",
"1041 841 LINE",
"1005 809 OFFCURVE",
"965 778 OFFCURVE",
"923 749 CURVE"
);
}
);
};
components = (
{
name = E;
},
{
name = circumflexcomb_gravecomb;
transform = "{1, 0, 0, 1, 461, 185}";
}
);
layerId = UUID0;
width = 454;
},
{
components = (
{
name = E;
},
{
name = caroncomb.case;
transform = "{-1, 0, 0, -1, 858, 1382}";
}
);
layerId = "FC8172F8-A6F4-4E62-B6CE-F5E7C4B552CE";
paths = (
{
closed = 1;
nodes = (
"377 827 LINE",
"385 827 LINE",
"416 851 LINE",
"351 946 LINE",
"343 948 LINE",
"302 926 LINE",
"301 918 LINE"
);
}
);
width = 485;
},
{
background = {
paths = (
{
closed = 1;
nodes = (
"377 827 LINE",
"385 827 LINE",
"416 851 LINE",
"351 946 LINE",
"343 948 LINE",
"302 926 LINE",
"301 918 LINE"
);
},
{
closed = 1;
nodes = (
"179 641 LINE",
"91 641 LINE",
"97 193 LINE",
"91 0 LINE",
"178 0 LINE",
"174 200 LINE"
);
},
{
closed = 1;
nodes = (
"457 75 LINE",
"304 70 LINE",
"150 72 LINE",
"147 7 LINE",
"150 0 LINE",
"456 0 LINE",
"462 67 LINE"
);
},
{
closed = 1;
nodes = (
"401 365 LINE",
"295 362 LINE",
"153 364 LINE",
"150 299 LINE",
"153 292 LINE",
"288 294 LINE",
"400 291 LINE",
"407 358 LINE"
);
},
{
closed = 1;
nodes = (
"457 641 LINE",
"150 641 LINE",
"147 575 LINE",
"150 568 LINE",
"304 570 LINE",
"455 566 LINE",
"462 633 LINE"
);
},
{
closed = 1;
nodes = (
"940 713 LINE",
"949 713 LINE",
"985 735 OFFCURVE",
"1019 756 OFFCURVE",
"1053 779 CURVE",
"1087 756 OFFCURVE",
"1121 735 OFFCURVE",
"1156 713 CURVE",
"1166 713 LINE",
"1182 749 LINE",
"1140 778 OFFCURVE",
"1101 809 OFFCURVE",
"1063 841 CURVE",
"1041 841 LINE",
"1005 809 OFFCURVE",
"965 778 OFFCURVE",
"923 749 CURVE"
);
}
);
};
components = (
{
name = E;
},
{
name = circumflexcomb_gravecomb;
transform = "{1, 0, 0, 1, 486, 175}";
}
);
layerId = "2DCE43FE-4436-4BBF-8775-653F8291D466";
width = 541;
}
);
leftKerningGroup = B;
rightKerningGroup = AE;
unicode = 1EC0;
},
{
glyphname = Ecircumflexhookabove;
lastChange = "2016-11-22 21:42:25 +0000";
layers = (
{
background = {
paths = (
{
closed = 1;
nodes = (
"179 641 LINE",
"91 641 LINE",
"97 193 LINE",
"91 0 LINE",
"178 0 LINE",
"174 200 LINE"
);
},
{
closed = 1;
nodes = (
"457 75 LINE",
"304 70 LINE",
"150 72 LINE",
"147 7 LINE",
"150 0 LINE",
"456 0 LINE",
"462 67 LINE"
);
},
{
closed = 1;
nodes = (
"401 365 LINE",
"295 362 LINE",
"153 364 LINE",
"150 299 LINE",
"153 292 LINE",
"288 294 LINE",
"400 291 LINE",
"407 358 LINE"
);
},
{
closed = 1;
nodes = (
"457 641 LINE",
"150 641 LINE",
"147 575 LINE",
"150 568 LINE",
"304 570 LINE",
"455 566 LINE",
"462 633 LINE"
);
},
{
closed = 1;
nodes = (
"352 995 OFFCURVE",
"321 981 OFFCURVE",
"297 956 CURVE",
"312 931 LINE",
"330 946 OFFCURVE",
"352 955 OFFCURVE",
"368 955 CURVE SMOOTH",
"384 955 OFFCURVE",
"395 947 OFFCURVE",
"395 934 CURVE SMOOTH",
"395 918 OFFCURVE",
"377 894 OFFCURVE",
"345 873 CURVE",
"377 820 LINE",
"409 838 LINE",
"390 870 LINE",
"425 899 OFFCURVE",
"440 920 OFFCURVE",
"440 942 CURVE SMOOTH",
"440 972 OFFCURVE",
"415 995 OFFCURVE",
"380 995 CURVE SMOOTH"
);
},
{
closed = 1;
nodes = (
"940 713 LINE",
"949 713 LINE",
"985 735 OFFCURVE",
"1019 756 OFFCURVE",
"1053 779 CURVE",
"1087 756 OFFCURVE",
"1121 735 OFFCURVE",
"1156 713 CURVE",
"1166 713 LINE",
"1182 749 LINE",
"1140 778 OFFCURVE",
"1101 809 OFFCURVE",
"1063 841 CURVE",
"1041 841 LINE",
"1005 809 OFFCURVE",
"965 778 OFFCURVE",
"923 749 CURVE"
);
}
);
};
components = (
{
name = E;
},
{
name = hookabovecomb;
transform = "{0.952, 0, 0, 0.952, 507, 331}";
},
{
name = caroncomb.case;
transform = "{-1, 0, 0, -1, 851, 1372}";
}
);
layerId = UUID0;
width = 454;
},
{
components = (
{
name = E;
},
{
name = hookabovecomb;
transform = "{0.952, 0, 0, 0.952, 568, 339}";
},
{
name = caroncomb.case;
transform = "{-1, 0, 0, -1, 858, 1382}";
}
);
layerId = "FC8172F8-A6F4-4E62-B6CE-F5E7C4B552CE";
width = 485;
},
{
background = {
paths = (
{
closed = 1;
nodes = (
"179 641 LINE",
"91 641 LINE",
"97 193 LINE",
"91 0 LINE",
"178 0 LINE",
"174 200 LINE"
);
},
{
closed = 1;
nodes = (
"457 75 LINE",
"304 70 LINE",
"150 72 LINE",
"147 7 LINE",
"150 0 LINE",
"456 0 LINE",
"462 67 LINE"
);
},
{
closed = 1;
nodes = (
"401 365 LINE",
"295 362 LINE",
"153 364 LINE",
"150 299 LINE",
"153 292 LINE",
"288 294 LINE",
"400 291 LINE",
"407 358 LINE"
);
},
{
closed = 1;
nodes = (
"457 641 LINE",
"150 641 LINE",
"147 575 LINE",
"150 568 LINE",
"304 570 LINE",
"455 566 LINE",
"462 633 LINE"
);
},
{
closed = 1;
nodes = (
"352 995 OFFCURVE",
"321 981 OFFCURVE",
"297 956 CURVE",
"312 931 LINE",
"330 946 OFFCURVE",
"352 955 OFFCURVE",
"368 955 CURVE SMOOTH",
"384 955 OFFCURVE",
"395 947 OFFCURVE",
"395 934 CURVE SMOOTH",
"395 918 OFFCURVE",
"377 894 OFFCURVE",
"345 873 CURVE",
"377 820 LINE",
"409 838 LINE",
"390 870 LINE",
"425 899 OFFCURVE",
"440 920 OFFCURVE",
"440 942 CURVE SMOOTH",
"440 972 OFFCURVE",
"415 995 OFFCURVE",
"380 995 CURVE SMOOTH"
);
},
{
closed = 1;
nodes = (
"940 713 LINE",
"949 713 LINE",
"985 735 OFFCURVE",
"1019 756 OFFCURVE",
"1053 779 CURVE",
"1087 756 OFFCURVE",
"1121 735 OFFCURVE",
"1156 713 CURVE",
"1166 713 LINE",
"1182 749 LINE",
"1140 778 OFFCURVE",
"1101 809 OFFCURVE",
"1063 841 CURVE",
"1041 841 LINE",
"1005 809 OFFCURVE",
"965 778 OFFCURVE",
"923 749 CURVE"
);
}
);
};
components = (
{
name = E;
},
{
name = hookabovecomb;
transform = "{0.952, 0, 0, 0.952, 549, 386}";
},
{
name = caroncomb.case;
transform = "{-1, 0, 0, -1, 874, 1453}";
}
);
layerId = "2DCE43FE-4436-4BBF-8775-653F8291D466";
width = 541;
}
);
leftKerningGroup = B;
rightKerningGroup = AE;
unicode = 1EC2;
},
{
glyphname = Ecircumflextilde;
lastChange = "2016-11-22 21:42:25 +0000";
layers = (
{
background = {
paths = (
{
closed = 1;
nodes = (
"377 827 LINE",
"385 827 LINE",
"416 851 LINE",
"351 946 LINE",
"343 948 LINE",
"302 926 LINE",
"301 918 LINE"
);
},
{
closed = 1;
nodes = (
"179 641 LINE",
"91 641 LINE",
"97 193 LINE",
"91 0 LINE",
"178 0 LINE",
"174 200 LINE"
);
},
{
closed = 1;
nodes = (
"457 75 LINE",
"304 70 LINE",
"150 72 LINE",
"147 7 LINE",
"150 0 LINE",
"456 0 LINE",
"462 67 LINE"
);
},
{
closed = 1;
nodes = (
"401 365 LINE",
"295 362 LINE",
"153 364 LINE",
"150 299 LINE",
"153 292 LINE",
"288 294 LINE",
"400 291 LINE",
"407 358 LINE"
);
},
{
closed = 1;
nodes = (
"457 641 LINE",
"150 641 LINE",
"147 575 LINE",
"150 568 LINE",
"304 570 LINE",
"455 566 LINE",
"462 633 LINE"
);
},
{
closed = 1;
nodes = (
"940 713 LINE",
"949 713 LINE",
"985 735 OFFCURVE",
"1019 756 OFFCURVE",
"1053 779 CURVE",
"1087 756 OFFCURVE",
"1121 735 OFFCURVE",
"1156 713 CURVE",
"1166 713 LINE",
"1182 749 LINE",
"1140 778 OFFCURVE",
"1101 809 OFFCURVE",
"1063 841 CURVE",
"1041 841 LINE",
"1005 809 OFFCURVE",
"965 778 OFFCURVE",
"923 749 CURVE"
);
}
);
};
components = (
{
name = E;
},
{
name = circumflexcomb_gravecomb;
transform = "{1, 0, 0, 1, 461, 185}";
}
);
layerId = UUID0;
width = 454;
},
{
components = (
{
name = E;
},
{
name = caroncomb.case;
transform = "{-1, 0, 0, -1, 858, 1382}";
}
);
layerId = "FC8172F8-A6F4-4E62-B6CE-F5E7C4B552CE";
paths = (
{
closed = 1;
nodes = (
"377 827 LINE",
"385 827 LINE",
"416 851 LINE",
"351 946 LINE",
"343 948 LINE",
"302 926 LINE",
"301 918 LINE"
);
}
);
width = 485;
},
{
background = {
paths = (
{
closed = 1;
nodes = (
"377 827 LINE",
"385 827 LINE",
"416 851 LINE",
"351 946 LINE",
"343 948 LINE",
"302 926 LINE",
"301 918 LINE"
);
},
{
closed = 1;
nodes = (
"179 641 LINE",
"91 641 LINE",
"97 193 LINE",
"91 0 LINE",
"178 0 LINE",
"174 200 LINE"
);
},
{
closed = 1;
nodes = (
"457 75 LINE",
"304 70 LINE",
"150 72 LINE",
"147 7 LINE",
"150 0 LINE",
"456 0 LINE",
"462 67 LINE"
);
},
{
closed = 1;
nodes = (
"401 365 LINE",
"295 362 LINE",
"153 364 LINE",
"150 299 LINE",
"153 292 LINE",
"288 294 LINE",
"400 291 LINE",
"407 358 LINE"
);
},
{
closed = 1;
nodes = (
"457 641 LINE",
"150 641 LINE",
"147 575 LINE",
"150 568 LINE",
"304 570 LINE",
"455 566 LINE",
"462 633 LINE"
);
},
{
closed = 1;
nodes = (
"940 713 LINE",
"949 713 LINE",
"985 735 OFFCURVE",
"1019 756 OFFCURVE",
"1053 779 CURVE",
"1087 756 OFFCURVE",
"1121 735 OFFCURVE",
"1156 713 CURVE",
"1166 713 LINE",
"1182 749 LINE",
"1140 778 OFFCURVE",
"1101 809 OFFCURVE",
"1063 841 CURVE",
"1041 841 LINE",
"1005 809 OFFCURVE",
"965 778 OFFCURVE",
"923 749 CURVE"
);
}
);
};
components = (
{
name = E;
},
{
name = circumflexcomb_gravecomb;
transform = "{1, 0, 0, 1, 486, 175}";
}
);
layerId = "2DCE43FE-4436-4BBF-8775-653F8291D466";
width = 541;
}
);
leftKerningGroup = B;
rightKerningGroup = AE;
unicode = 1EC4;
},
{
glyphname = Edblgrave;
lastChange = "2016-11-22 21:42:25 +0000";
layers = (
{
background = {
paths = (
{
closed = 1;
nodes = (
"179 641 LINE",
"91 641 LINE",
"97 193 LINE",
"91 0 LINE",
"178 0 LINE",
"174 200 LINE"
);
},
{
closed = 1;
nodes = (
"457 75 LINE",
"304 70 LINE",
"150 72 LINE",
"147 7 LINE",
"150 0 LINE",
"456 0 LINE",
"462 67 LINE"
);
},
{
closed = 1;
nodes = (
"401 365 LINE",
"295 362 LINE",
"153 364 LINE",
"150 299 LINE",
"153 292 LINE",
"288 294 LINE",
"400 291 LINE",
"407 358 LINE"
);
},
{
closed = 1;
nodes = (
"457 641 LINE",
"150 641 LINE",
"147 575 LINE",
"150 568 LINE",
"304 570 LINE",
"455 566 LINE",
"462 633 LINE"
);
},
{
closed = 1;
nodes = (
"246 743 LINE",
"209 784 OFFCURVE",
"172 823 OFFCURVE",
"137 865 CURVE",
"129 866 LINE",
"90 839 LINE",
"89 830 LINE",
"128 792 OFFCURVE",
"168 756 OFFCURVE",
"209 719 CURVE",
"217 718 LINE"
);
},
{
closed = 1;
nodes = (
"390 743 LINE",
"352 784 OFFCURVE",
"316 823 OFFCURVE",
"281 865 CURVE",
"273 866 LINE",
"234 839 LINE",
"233 830 LINE",
"272 792 OFFCURVE",
"312 756 OFFCURVE",
"352 719 CURVE",
"361 718 LINE"
);
}
);
};
components = (
{
name = E;
},
{
name = dblgravecomb.case;
transform = "{1, 0, 0, 1, 421, 185}";
}
);
layerId = UUID0;
width = 454;
},
{
components = (
{
name = E;
},
{
name = dblgravecomb.case;
transform = "{1, 0, 0, 1, 434, 182}";
}
);
layerId = "FC8172F8-A6F4-4E62-B6CE-F5E7C4B552CE";
width = 485;
},
{
background = {
paths = (
{
closed = 1;
nodes = (
"179 641 LINE",
"91 641 LINE",
"97 193 LINE",
"91 0 LINE",
"178 0 LINE",
"174 200 LINE"
);
},
{
closed = 1;
nodes = (
"457 75 LINE",
"304 70 LINE",
"150 72 LINE",
"147 7 LINE",
"150 0 LINE",
"456 0 LINE",
"462 67 LINE"
);
},
{
closed = 1;
nodes = (
"401 365 LINE",
"295 362 LINE",
"153 364 LINE",
"150 299 LINE",
"153 292 LINE",
"288 294 LINE",
"400 291 LINE",
"407 358 LINE"
);
},
{
closed = 1;
nodes = (
"457 641 LINE",
"150 641 LINE",
"147 575 LINE",
"150 568 LINE",
"304 570 LINE",
"455 566 LINE",
"462 633 LINE"
);
},
{
closed = 1;
nodes = (
"246 743 LINE",
"209 784 OFFCURVE",
"172 823 OFFCURVE",
"137 865 CURVE",
"129 866 LINE",
"90 839 LINE",
"89 830 LINE",
"128 792 OFFCURVE",
"168 756 OFFCURVE",
"209 719 CURVE",
"217 718 LINE"
);
},
{
closed = 1;
nodes = (
"390 743 LINE",
"352 784 OFFCURVE",
"316 823 OFFCURVE",
"281 865 CURVE",
"273 866 LINE",
"234 839 LINE",
"233 830 LINE",
"272 792 OFFCURVE",
"312 756 OFFCURVE",
"352 719 CURVE",
"361 718 LINE"
);
}
);
};
components = (
{
name = E;
},
{
name = dblgravecomb.case;
transform = "{1, 0, 0, 1, 456, 175}";
}
);
layerId = "2DCE43FE-4436-4BBF-8775-653F8291D466";
width = 541;
}
);
unicode = 0204;
},
{
glyphname = Edieresis;
lastChange = "2016-11-22 21:42:25 +0000";
layers = (
{
background = {
paths = (
{
closed = 1;
nodes = (
"179 641 LINE",
"91 641 LINE",
"97 193 LINE",
"91 0 LINE",
"178 0 LINE",
"174 200 LINE"
);
},
{
closed = 1;
nodes = (
"457 75 LINE",
"304 70 LINE",
"150 72 LINE",
"147 7 LINE",
"150 0 LINE",
"456 0 LINE",
"462 67 LINE"
);
},
{
closed = 1;
nodes = (
"401 365 LINE",
"295 362 LINE",
"153 364 LINE",
"150 299 LINE",
"153 292 LINE",
"288 294 LINE",
"400 291 LINE",
"407 358 LINE"
);
},
{
closed = 1;
nodes = (
"457 641 LINE",
"150 641 LINE",
"147 575 LINE",
"150 568 LINE",
"304 570 LINE",
"455 566 LINE",
"462 633 LINE"
);
},
{
closed = 1;
nodes = (
"169 837 OFFCURVE",
"151 818 OFFCURVE",
"151 789 CURVE SMOOTH",
"151 760 OFFCURVE",
"167 743 OFFCURVE",
"196 743 CURVE SMOOTH",
"224 743 OFFCURVE",
"242 762 OFFCURVE",
"242 792 CURVE SMOOTH",
"242 819 OFFCURVE",
"226 837 OFFCURVE",
"199 837 CURVE SMOOTH"
);
},
{
closed = 1;
nodes = (
"328 837 OFFCURVE",
"310 818 OFFCURVE",
"310 789 CURVE SMOOTH",
"310 760 OFFCURVE",
"326 743 OFFCURVE",
"355 743 CURVE SMOOTH",
"383 743 OFFCURVE",
"401 762 OFFCURVE",
"401 792 CURVE SMOOTH",
"401 819 OFFCURVE",
"385 837 OFFCURVE",
"358 837 CURVE SMOOTH"
);
}
);
};
components = (
{
name = E;
},
{
name = dieresiscomb;
transform = "{1, 0, 0, 1, 462, 185}";
}
);
layerId = UUID0;
width = 454;
},
{
components = (
{
name = E;
},
{
name = dieresiscomb;
transform = "{1, 0, 0, 1, 470, 182}";
}
);
layerId = "FC8172F8-A6F4-4E62-B6CE-F5E7C4B552CE";
width = 485;
},
{
background = {
paths = (
{
closed = 1;
nodes = (
"179 641 LINE",
"91 641 LINE",
"97 193 LINE",
"91 0 LINE",
"178 0 LINE",
"174 200 LINE"
);
},
{
closed = 1;
nodes = (
"457 75 LINE",
"304 70 LINE",
"150 72 LINE",
"147 7 LINE",
"150 0 LINE",
"456 0 LINE",
"462 67 LINE"
);
},
{
closed = 1;
nodes = (
"401 365 LINE",
"295 362 LINE",
"153 364 LINE",
"150 299 LINE",
"153 292 LINE",
"288 294 LINE",
"400 291 LINE",
"407 358 LINE"
);
},
{
closed = 1;
nodes = (
"457 641 LINE",
"150 641 LINE",
"147 575 LINE",
"150 568 LINE",
"304 570 LINE",
"455 566 LINE",
"462 633 LINE"
);
},
{
closed = 1;
nodes = (
"169 837 OFFCURVE",
"151 818 OFFCURVE",
"151 789 CURVE SMOOTH",
"151 760 OFFCURVE",
"167 743 OFFCURVE",
"196 743 CURVE SMOOTH",
"224 743 OFFCURVE",
"242 762 OFFCURVE",
"242 792 CURVE SMOOTH",
"242 819 OFFCURVE",
"226 837 OFFCURVE",
"199 837 CURVE SMOOTH"
);
},
{
closed = 1;
nodes = (
"328 837 OFFCURVE",
"310 818 OFFCURVE",
"310 789 CURVE SMOOTH",
"310 760 OFFCURVE",
"326 743 OFFCURVE",
"355 743 CURVE SMOOTH",
"383 743 OFFCURVE",
"401 762 OFFCURVE",
"401 792 CURVE SMOOTH",
"401 819 OFFCURVE",
"385 837 OFFCURVE",
"358 837 CURVE SMOOTH"
);
}
);
};
components = (
{
name = E;
},
{
name = dieresiscomb;
transform = "{1, 0, 0, 1, 485, 175}";
}
);
layerId = "2DCE43FE-4436-4BBF-8775-653F8291D466";
width = 541;
}
);
leftKerningGroup = B;
rightKerningGroup = AE;
unicode = 00CB;
},
{
glyphname = Edotaccent;
lastChange = "2016-11-22 21:40:43 +0000";
layers = (
{
background = {
paths = (
{
closed = 1;
nodes = (
"179 641 LINE",
"91 641 LINE",
"97 193 LINE",
"91 0 LINE",
"178 0 LINE",
"174 200 LINE"
);
},
{
closed = 1;
nodes = (
"457 75 LINE",
"304 70 LINE",
"150 72 LINE",
"147 7 LINE",
"150 0 LINE",
"456 0 LINE",
"462 67 LINE"
);
},
{
closed = 1;
nodes = (
"401 365 LINE",
"295 362 LINE",
"153 364 LINE",
"150 299 LINE",
"153 292 LINE",
"288 294 LINE",
"400 291 LINE",
"407 358 LINE"
);
},
{
closed = 1;
nodes = (
"457 641 LINE",
"150 641 LINE",
"147 575 LINE",
"150 568 LINE",
"304 570 LINE",
"455 566 LINE",
"462 633 LINE"
);
},
{
closed = 1;
nodes = (
"246 848 OFFCURVE",
"227 828 OFFCURVE",
"227 798 CURVE SMOOTH",
"227 768 OFFCURVE",
"244 750 OFFCURVE",
"274 750 CURVE SMOOTH",
"304 750 OFFCURVE",
"323 770 OFFCURVE",
"323 801 CURVE SMOOTH",
"323 830 OFFCURVE",
"306 848 OFFCURVE",
"277 848 CURVE SMOOTH"
);
}
);
};
components = (
{
name = E;
},
{
name = period;
transform = "{1, 0, 0, 1, 151, 778}";
}
);
layerId = UUID0;
width = 454;
},
{
components = (
{
name = E;
},
{
name = period;
transform = "{1, 0, 0, 1, 161, 755}";
}
);
layerId = "FC8172F8-A6F4-4E62-B6CE-F5E7C4B552CE";
width = 485;
},
{
background = {
paths = (
{
closed = 1;
nodes = (
"179 641 LINE",
"91 641 LINE",
"97 193 LINE",
"91 0 LINE",
"178 0 LINE",
"174 200 LINE"
);
},
{
closed = 1;
nodes = (
"457 75 LINE",
"304 70 LINE",
"150 72 LINE",
"147 7 LINE",
"150 0 LINE",
"456 0 LINE",
"462 67 LINE"
);
},
{
closed = 1;
nodes = (
"401 365 LINE",
"295 362 LINE",
"153 364 LINE",
"150 299 LINE",
"153 292 LINE",
"288 294 LINE",
"400 291 LINE",
"407 358 LINE"
);
},
{
closed = 1;
nodes = (
"457 641 LINE",
"150 641 LINE",
"147 575 LINE",
"150 568 LINE",
"304 570 LINE",
"455 566 LINE",
"462 633 LINE"
);
},
{
closed = 1;
nodes = (
"246 848 OFFCURVE",
"227 828 OFFCURVE",
"227 798 CURVE SMOOTH",
"227 768 OFFCURVE",
"244 750 OFFCURVE",
"274 750 CURVE SMOOTH",
"304 750 OFFCURVE",
"323 770 OFFCURVE",
"323 801 CURVE SMOOTH",
"323 830 OFFCURVE",
"306 848 OFFCURVE",
"277 848 CURVE SMOOTH"
);
}
);
};
components = (
{
name = E;
},
{
name = period;
transform = "{1, 0, 0, 1, 178, 713}";
}
);
layerId = "2DCE43FE-4436-4BBF-8775-653F8291D466";
width = 541;
}
);
leftKerningGroup = B;
rightKerningGroup = AE;
unicode = 0116;
},
{
glyphname = Edotbelow;
lastChange = "2016-11-22 21:42:23 +0000";
layers = (
{
background = {
paths = (
{
closed = 1;
nodes = (
"179 641 LINE",
"91 641 LINE",
"97 193 LINE",
"91 0 LINE",
"178 0 LINE",
"174 200 LINE"
);
},
{
closed = 1;
nodes = (
"457 75 LINE",
"304 70 LINE",
"150 72 LINE",
"147 7 LINE",
"150 0 LINE",
"456 0 LINE",
"462 67 LINE"
);
},
{
closed = 1;
nodes = (
"401 365 LINE",
"295 362 LINE",
"153 364 LINE",
"150 299 LINE",
"153 292 LINE",
"288 294 LINE",
"400 291 LINE",
"407 358 LINE"
);
},
{
closed = 1;
nodes = (
"457 641 LINE",
"150 641 LINE",
"147 575 LINE",
"150 568 LINE",
"304 570 LINE",
"455 566 LINE",
"462 633 LINE"
);
},
{
closed = 1;
nodes = (
"252 -68 OFFCURVE",
"233 -88 OFFCURVE",
"233 -118 CURVE SMOOTH",
"233 -148 OFFCURVE",
"250 -166 OFFCURVE",
"280 -166 CURVE SMOOTH",
"310 -166 OFFCURVE",
"329 -146 OFFCURVE",
"329 -115 CURVE SMOOTH",
"329 -86 OFFCURVE",
"312 -68 OFFCURVE",
"283 -68 CURVE SMOOTH"
);
}
);
};
components = (
{
name = E;
},
{
name = period;
transform = "{1, 0, 0, 1, 152, -126}";
}
);
layerId = UUID0;
width = 454;
},
{
components = (
{
name = E;
},
{
name = period;
transform = "{1, 0, 0, 1, 167, -161}";
}
);
layerId = "FC8172F8-A6F4-4E62-B6CE-F5E7C4B552CE";
width = 485;
},
{
background = {
paths = (
{
closed = 1;
nodes = (
"179 641 LINE",
"91 641 LINE",
"97 193 LINE",
"91 0 LINE",
"178 0 LINE",
"174 200 LINE"
);
},
{
closed = 1;
nodes = (
"457 75 LINE",
"304 70 LINE",
"150 72 LINE",
"147 7 LINE",
"150 0 LINE",
"456 0 LINE",
"462 67 LINE"
);
},
{
closed = 1;
nodes = (
"401 365 LINE",
"295 362 LINE",
"153 364 LINE",
"150 299 LINE",
"153 292 LINE",
"288 294 LINE",
"400 291 LINE",
"407 358 LINE"
);
},
{
closed = 1;
nodes = (
"457 641 LINE",
"150 641 LINE",
"147 575 LINE",
"150 568 LINE",
"304 570 LINE",
"455 566 LINE",
"462 633 LINE"
);
},
{
closed = 1;
nodes = (
"252 -68 OFFCURVE",
"233 -88 OFFCURVE",
"233 -118 CURVE SMOOTH",
"233 -148 OFFCURVE",
"250 -166 OFFCURVE",
"280 -166 CURVE SMOOTH",
"310 -166 OFFCURVE",
"329 -146 OFFCURVE",
"329 -115 CURVE SMOOTH",
"329 -86 OFFCURVE",
"312 -68 OFFCURVE",
"283 -68 CURVE SMOOTH"
);
}
);
};
components = (
{
name = E;
},
{
name = period;
transform = "{1, 0, 0, 1, 196, -222}";
}
);
layerId = "2DCE43FE-4436-4BBF-8775-653F8291D466";
width = 541;
}
);
leftKerningGroup = B;
rightKerningGroup = AE;
unicode = 1EB8;
},
{
glyphname = Egrave;
lastChange = "2016-11-22 21:40:43 +0000";
layers = (
{
background = {
paths = (
{
closed = 1;
nodes = (
"179 641 LINE",
"91 641 LINE",
"97 193 LINE",
"91 0 LINE",
"178 0 LINE",
"174 200 LINE"
);
},
{
closed = 1;
nodes = (
"457 75 LINE",
"304 70 LINE",
"150 72 LINE",
"147 7 LINE",
"150 0 LINE",
"456 0 LINE",
"462 67 LINE"
);
},
{
closed = 1;
nodes = (
"401 365 LINE",
"295 362 LINE",
"153 364 LINE",
"150 299 LINE",
"153 292 LINE",
"288 294 LINE",
"400 291 LINE",
"407 358 LINE"
);
},
{
closed = 1;
nodes = (
"457 641 LINE",
"150 641 LINE",
"147 575 LINE",
"150 568 LINE",
"304 570 LINE",
"455 566 LINE",
"462 633 LINE"
);
},
{
closed = 1;
nodes = (
"972 866 LINE",
"1039 826 OFFCURVE",
"1101 794 OFFCURVE",
"1165 762 CURVE",
"1150 724 LINE",
"1141 720 LINE",
"1075 747 OFFCURVE",
"1012 773 OFFCURVE",
"943 805 CURVE",
"940 814 LINE",
"962 864 LINE"
);
}
);
};
components = (
{
name = E;
},
{
name = gravecomb.case;
transform = "{1, 0, 0, 1, 460, 185}";
}
);
layerId = UUID0;
width = 454;
},
{
components = (
{
name = E;
},
{
name = acutecomb.case;
transform = "{-1, 0, 0, 1, 858, 182}";
}
);
layerId = "FC8172F8-A6F4-4E62-B6CE-F5E7C4B552CE";
width = 485;
},
{
background = {
paths = (
{
closed = 1;
nodes = (
"179 641 LINE",
"91 641 LINE",
"97 193 LINE",
"91 0 LINE",
"178 0 LINE",
"174 200 LINE"
);
},
{
closed = 1;
nodes = (
"457 75 LINE",
"304 70 LINE",
"150 72 LINE",
"147 7 LINE",
"150 0 LINE",
"456 0 LINE",
"462 67 LINE"
);
},
{
closed = 1;
nodes = (
"401 365 LINE",
"295 362 LINE",
"153 364 LINE",
"150 299 LINE",
"153 292 LINE",
"288 294 LINE",
"400 291 LINE",
"407 358 LINE"
);
},
{
closed = 1;
nodes = (
"457 641 LINE",
"150 641 LINE",
"147 575 LINE",
"150 568 LINE",
"304 570 LINE",
"455 566 LINE",
"462 633 LINE"
);
},
{
closed = 1;
nodes = (
"972 866 LINE",
"1039 826 OFFCURVE",
"1101 794 OFFCURVE",
"1165 762 CURVE",
"1150 724 LINE",
"1141 720 LINE",
"1075 747 OFFCURVE",
"1012 773 OFFCURVE",
"943 805 CURVE",
"940 814 LINE",
"962 864 LINE"
);
}
);
};
components = (
{
name = E;
},
{
name = gravecomb.case;
transform = "{1, 0, 0, 1, 485, 175}";
}
);
layerId = "2DCE43FE-4436-4BBF-8775-653F8291D466";
width = 541;
}
);
leftKerningGroup = B;
rightKerningGroup = AE;
unicode = 00C8;
},
{
glyphname = Ehookabove;
lastChange = "2016-11-22 21:42:23 +0000";
layers = (
{
background = {
paths = (
{
closed = 1;
nodes = (
"179 641 LINE",
"91 641 LINE",
"97 193 LINE",
"91 0 LINE",
"178 0 LINE",
"174 200 LINE"
);
},
{
closed = 1;
nodes = (
"457 75 LINE",
"304 70 LINE",
"150 72 LINE",
"147 7 LINE",
"150 0 LINE",
"456 0 LINE",
"462 67 LINE"
);
},
{
closed = 1;
nodes = (
"401 365 LINE",
"295 362 LINE",
"153 364 LINE",
"150 299 LINE",
"153 292 LINE",
"288 294 LINE",
"400 291 LINE",
"407 358 LINE"
);
},
{
closed = 1;
nodes = (
"457 641 LINE",
"150 641 LINE",
"147 575 LINE",
"150 568 LINE",
"304 570 LINE",
"455 566 LINE",
"462 633 LINE"
);
},
{
closed = 1;
nodes = (
"242 871 OFFCURVE",
"210 856 OFFCURVE",
"184 830 CURVE",
"200 804 LINE",
"219 820 OFFCURVE",
"242 829 OFFCURVE",
"259 829 CURVE SMOOTH",
"276 829 OFFCURVE",
"287 821 OFFCURVE",
"287 807 CURVE SMOOTH",
"287 790 OFFCURVE",
"268 765 OFFCURVE",
"235 743 CURVE",
"268 687 LINE",
"302 706 LINE",
"282 740 LINE",
"319 770 OFFCURVE",
"335 792 OFFCURVE",
"335 815 CURVE SMOOTH",
"335 847 OFFCURVE",
"308 871 OFFCURVE",
"271 871 CURVE SMOOTH"
);
}
);
};
components = (
{
name = E;
},
{
name = hookabovecomb;
transform = "{1, 0, 0, 1, 400, 185}";
}
);
layerId = UUID0;
width = 454;
},
{
components = (
{
name = E;
},
{
name = hookabovecomb;
transform = "{1, 0, 0, 1, 469, 182}";
}
);
layerId = "FC8172F8-A6F4-4E62-B6CE-F5E7C4B552CE";
width = 485;
},
{
background = {
paths = (
{
closed = 1;
nodes = (
"179 641 LINE",
"91 641 LINE",
"97 193 LINE",
"91 0 LINE",
"178 0 LINE",
"174 200 LINE"
);
},
{
closed = 1;
nodes = (
"457 75 LINE",
"304 70 LINE",
"150 72 LINE",
"147 7 LINE",
"150 0 LINE",
"456 0 LINE",
"462 67 LINE"
);
},
{
closed = 1;
nodes = (
"401 365 LINE",
"295 362 LINE",
"153 364 LINE",
"150 299 LINE",
"153 292 LINE",
"288 294 LINE",
"400 291 LINE",
"407 358 LINE"
);
},
{
closed = 1;
nodes = (
"457 641 LINE",
"150 641 LINE",
"147 575 LINE",
"150 568 LINE",
"304 570 LINE",
"455 566 LINE",
"462 633 LINE"
);
},
{
closed = 1;
nodes = (
"242 871 OFFCURVE",
"210 856 OFFCURVE",
"184 830 CURVE",
"200 804 LINE",
"219 820 OFFCURVE",
"242 829 OFFCURVE",
"259 829 CURVE SMOOTH",
"276 829 OFFCURVE",
"287 821 OFFCURVE",
"287 807 CURVE SMOOTH",
"287 790 OFFCURVE",
"268 765 OFFCURVE",
"235 743 CURVE",
"268 687 LINE",
"302 706 LINE",
"282 740 LINE",
"319 770 OFFCURVE",
"335 792 OFFCURVE",
"335 815 CURVE SMOOTH",
"335 847 OFFCURVE",
"308 871 OFFCURVE",
"271 871 CURVE SMOOTH"
);
}
);
};
components = (
{
name = E;
},
{
name = hookabovecomb;
transform = "{1, 0, 0, 1, 406, 175}";
}
);
layerId = "2DCE43FE-4436-4BBF-8775-653F8291D466";
width = 541;
}
);
leftKerningGroup = B;
rightKerningGroup = AE;
unicode = 1EBA;
},
{
glyphname = Einvertedbreve;
lastChange = "2016-11-22 21:42:25 +0000";
layers = (
{
background = {
paths = (
{
closed = 1;
nodes = (
"179 641 LINE",
"91 641 LINE",
"97 193 LINE",
"91 0 LINE",
"178 0 LINE",
"174 200 LINE"
);
},
{
closed = 1;
nodes = (
"457 75 LINE",
"304 70 LINE",
"150 72 LINE",
"147 7 LINE",
"150 0 LINE",
"456 0 LINE",
"462 67 LINE"
);
},
{
closed = 1;
nodes = (
"401 365 LINE",
"295 362 LINE",
"153 364 LINE",
"150 299 LINE",
"153 292 LINE",
"288 294 LINE",
"400 291 LINE",
"407 358 LINE"
);
},
{
closed = 1;
nodes = (
"457 641 LINE",
"150 641 LINE",
"147 575 LINE",
"150 568 LINE",
"304 570 LINE",
"455 566 LINE",
"462 633 LINE"
);
},
{
closed = 1;
nodes = (
"946 722 LINE",
"959 722 LINE",
"972 780 OFFCURVE",
"1003 808 OFFCURVE",
"1052 808 CURVE SMOOTH",
"1100 808 OFFCURVE",
"1132 780 OFFCURVE",
"1145 722 CURVE",
"1158 722 LINE",
"1181 753 LINE",
"1166 822 OFFCURVE",
"1127 869 OFFCURVE",
"1054 869 CURVE SMOOTH",
"981 869 OFFCURVE",
"940 824 OFFCURVE",
"923 753 CURVE"
);
}
);
};
components = (
{
name = E;
},
{
name = brevecomb;
transform = "{-1, 0, 0, -1, 851, 1357}";
}
);
layerId = UUID0;
width = 454;
},
{
components = (
{
name = E;
},
{
name = brevecomb;
transform = "{-1, 0, 0, -1, 858, 1396}";
}
);
layerId = "FC8172F8-A6F4-4E62-B6CE-F5E7C4B552CE";
width = 485;
},
{
background = {
paths = (
{
closed = 1;
nodes = (
"179 641 LINE",
"91 641 LINE",
"97 193 LINE",
"91 0 LINE",
"178 0 LINE",
"174 200 LINE"
);
},
{
closed = 1;
nodes = (
"457 75 LINE",
"304 70 LINE",
"150 72 LINE",
"147 7 LINE",
"150 0 LINE",
"456 0 LINE",
"462 67 LINE"
);
},
{
closed = 1;
nodes = (
"401 365 LINE",
"295 362 LINE",
"153 364 LINE",
"150 299 LINE",
"153 292 LINE",
"288 294 LINE",
"400 291 LINE",
"407 358 LINE"
);
},
{
closed = 1;
nodes = (
"457 641 LINE",
"150 641 LINE",
"147 575 LINE",
"150 568 LINE",
"304 570 LINE",
"455 566 LINE",
"462 633 LINE"
);
},
{
closed = 1;
nodes = (
"946 722 LINE",
"959 722 LINE",
"972 780 OFFCURVE",
"1003 808 OFFCURVE",
"1052 808 CURVE SMOOTH",
"1100 808 OFFCURVE",
"1132 780 OFFCURVE",
"1145 722 CURVE",
"1158 722 LINE",
"1181 753 LINE",
"1166 822 OFFCURVE",
"1127 869 OFFCURVE",
"1054 869 CURVE SMOOTH",
"981 869 OFFCURVE",
"940 824 OFFCURVE",
"923 753 CURVE"
);
}
);
};
components = (
{
name = E;
},
{
name = brevecomb;
transform = "{-1, 0, 0, -1, 874, 1463}";
}
);
layerId = "2DCE43FE-4436-4BBF-8775-653F8291D466";
width = 541;
}
);
unicode = 0206;
},
{
glyphname = Emacron;
lastChange = "2016-11-22 21:42:25 +0000";
layers = (
{
background = {
paths = (
{
closed = 1;
nodes = (
"179 641 LINE",
"91 641 LINE",
"97 193 LINE",
"91 0 LINE",
"178 0 LINE",
"174 200 LINE"
);
},
{
closed = 1;
nodes = (
"457 75 LINE",
"304 70 LINE",
"150 72 LINE",
"147 7 LINE",
"150 0 LINE",
"456 0 LINE",
"462 67 LINE"
);
},
{
closed = 1;
nodes = (
"401 365 LINE",
"295 362 LINE",
"153 364 LINE",
"150 299 LINE",
"153 292 LINE",
"288 294 LINE",
"400 291 LINE",
"407 358 LINE"
);
},
{
closed = 1;
nodes = (
"457 641 LINE",
"150 641 LINE",
"147 575 LINE",
"150 568 LINE",
"304 570 LINE",
"455 566 LINE",
"462 633 LINE"
);
},
{
closed = 1;
nodes = (
"415 819 LINE",
"132 819 LINE",
"128 770 LINE",
"134 763 LINE",
"417 763 LINE",
"422 813 LINE"
);
}
);
};
components = (
{
name = E;
},
{
name = macroncomb;
transform = "{1, 0, 0, 1, 461, 185}";
}
);
layerId = UUID0;
width = 454;
},
{
components = (
{
name = E;
},
{
name = macroncomb;
transform = "{1, 0, 0, 1, 469, 182}";
}
);
layerId = "FC8172F8-A6F4-4E62-B6CE-F5E7C4B552CE";
width = 485;
},
{
background = {
paths = (
{
closed = 1;
nodes = (
"179 641 LINE",
"91 641 LINE",
"97 193 LINE",
"91 0 LINE",
"178 0 LINE",
"174 200 LINE"
);
},
{
closed = 1;
nodes = (
"457 75 LINE",
"304 70 LINE",
"150 72 LINE",
"147 7 LINE",
"150 0 LINE",
"456 0 LINE",
"462 67 LINE"
);
},
{
closed = 1;
nodes = (
"401 365 LINE",
"295 362 LINE",
"153 364 LINE",
"150 299 LINE",
"153 292 LINE",
"288 294 LINE",
"400 291 LINE",
"407 358 LINE"
);
},
{
closed = 1;
nodes = (
"457 641 LINE",
"150 641 LINE",
"147 575 LINE",
"150 568 LINE",
"304 570 LINE",
"455 566 LINE",
"462 633 LINE"
);
},
{
closed = 1;
nodes = (
"415 819 LINE",
"132 819 LINE",
"128 770 LINE",
"134 763 LINE",
"417 763 LINE",
"422 813 LINE"
);
}
);
};
components = (
{
name = E;
},
{
name = macroncomb;
transform = "{1, 0, 0, 1, 485, 175}";
}
);
layerId = "2DCE43FE-4436-4BBF-8775-653F8291D466";
width = 541;
}
);
leftKerningGroup = B;
rightKerningGroup = AE;
unicode = 0112;
},
{
glyphname = Emacronacute;
lastChange = "2016-11-22 21:42:25 +0000";
layers = (
{
background = {
paths = (
{
closed = 1;
nodes = (
"179 641 LINE",
"91 641 LINE",
"97 193 LINE",
"91 0 LINE",
"178 0 LINE",
"174 200 LINE"
);
},
{
closed = 1;
nodes = (
"457 75 LINE",
"304 70 LINE",
"150 72 LINE",
"147 7 LINE",
"150 0 LINE",
"456 0 LINE",
"462 67 LINE"
);
},
{
closed = 1;
nodes = (
"401 365 LINE",
"295 362 LINE",
"153 364 LINE",
"150 299 LINE",
"153 292 LINE",
"288 294 LINE",
"400 291 LINE",
"407 358 LINE"
);
},
{
closed = 1;
nodes = (
"457 641 LINE",
"150 641 LINE",
"147 575 LINE",
"150 568 LINE",
"304 570 LINE",
"455 566 LINE",
"462 633 LINE"
);
},
{
closed = 1;
nodes = (
"383 793 LINE",
"165 793 LINE",
"161 744 LINE",
"167 737 LINE",
"384 737 LINE",
"389 787 LINE"
);
},
{
closed = 1;
nodes = (
"376 972 LINE",
"309 932 OFFCURVE",
"247 900 OFFCURVE",
"183 868 CURVE",
"198 830 LINE",
"207 826 LINE",
"273 853 OFFCURVE",
"336 879 OFFCURVE",
"405 911 CURVE",
"408 920 LINE",
"386 970 LINE"
);
}
);
};
components = (
{
name = E;
},
{
name = macroncomb_acutecomb;
transform = "{1, 0, 0, 1, 71, 185}";
}
);
layerId = UUID0;
width = 454;
},
{
components = (
{
name = E;
},
{
name = macroncomb.i;
transform = "{1, 0, 0, 1, 469, 156}";
},
{
name = acutecomb.case;
transform = "{1, 0, 0, 1, 490, 288}";
}
);
layerId = "FC8172F8-A6F4-4E62-B6CE-F5E7C4B552CE";
width = 485;
},
{
background = {
paths = (
{
closed = 1;
nodes = (
"179 641 LINE",
"91 641 LINE",
"97 193 LINE",
"91 0 LINE",
"178 0 LINE",
"174 200 LINE"
);
},
{
closed = 1;
nodes = (
"457 75 LINE",
"304 70 LINE",
"150 72 LINE",
"147 7 LINE",
"150 0 LINE",
"456 0 LINE",
"462 67 LINE"
);
},
{
closed = 1;
nodes = (
"401 365 LINE",
"295 362 LINE",
"153 364 LINE",
"150 299 LINE",
"153 292 LINE",
"288 294 LINE",
"400 291 LINE",
"407 358 LINE"
);
},
{
closed = 1;
nodes = (
"457 641 LINE",
"150 641 LINE",
"147 575 LINE",
"150 568 LINE",
"304 570 LINE",
"455 566 LINE",
"462 633 LINE"
);
},
{
closed = 1;
nodes = (
"383 793 LINE",
"165 793 LINE",
"161 744 LINE",
"167 737 LINE",
"384 737 LINE",
"389 787 LINE"
);
},
{
closed = 1;
nodes = (
"376 972 LINE",
"309 932 OFFCURVE",
"247 900 OFFCURVE",
"183 868 CURVE",
"198 830 LINE",
"207 826 LINE",
"273 853 OFFCURVE",
"336 879 OFFCURVE",
"405 911 CURVE",
"408 920 LINE",
"386 970 LINE"
);
}
);
};
components = (
{
name = E;
},
{
name = macroncomb_acutecomb;
transform = "{1, 0, 0, 1, 97, 175}";
}
);
layerId = "2DCE43FE-4436-4BBF-8775-653F8291D466";
width = 541;
}
);
unicode = 1E16;
},
{
glyphname = Emacrongrave;
lastChange = "2016-11-22 21:42:25 +0000";
layers = (
{
background = {
paths = (
{
closed = 1;
nodes = (
"179 641 LINE",
"91 641 LINE",
"97 193 LINE",
"91 0 LINE",
"178 0 LINE",
"174 200 LINE"
);
},
{
closed = 1;
nodes = (
"457 75 LINE",
"304 70 LINE",
"150 72 LINE",
"147 7 LINE",
"150 0 LINE",
"456 0 LINE",
"462 67 LINE"
);
},
{
closed = 1;
nodes = (
"401 365 LINE",
"295 362 LINE",
"153 364 LINE",
"150 299 LINE",
"153 292 LINE",
"288 294 LINE",
"400 291 LINE",
"407 358 LINE"
);
},
{
closed = 1;
nodes = (
"457 641 LINE",
"150 641 LINE",
"147 575 LINE",
"150 568 LINE",
"304 570 LINE",
"455 566 LINE",
"462 633 LINE"
);
},
{
closed = 1;
nodes = (
"383 793 LINE",
"165 793 LINE",
"161 744 LINE",
"167 737 LINE",
"384 737 LINE",
"389 787 LINE"
);
}
);
};
components = (
{
name = E;
},
{
name = macroncomb_gravecomb;
transform = "{1, 0, 0, 1, 71, 185}";
}
);
layerId = UUID0;
width = 454;
},
{
components = (
{
name = E;
},
{
name = macroncomb.i;
transform = "{1, 0, 0, 1, 469, 156}";
}
);
layerId = "FC8172F8-A6F4-4E62-B6CE-F5E7C4B552CE";
width = 485;
},
{
background = {
paths = (
{
closed = 1;
nodes = (
"179 641 LINE",
"91 641 LINE",
"97 193 LINE",
"91 0 LINE",
"178 0 LINE",
"174 200 LINE"
);
},
{
closed = 1;
nodes = (
"457 75 LINE",
"304 70 LINE",
"150 72 LINE",
"147 7 LINE",
"150 0 LINE",
"456 0 LINE",
"462 67 LINE"
);
},
{
closed = 1;
nodes = (
"401 365 LINE",
"295 362 LINE",
"153 364 LINE",
"150 299 LINE",
"153 292 LINE",
"288 294 LINE",
"400 291 LINE",
"407 358 LINE"
);
},
{
closed = 1;
nodes = (
"457 641 LINE",
"150 641 LINE",
"147 575 LINE",
"150 568 LINE",
"304 570 LINE",
"455 566 LINE",
"462 633 LINE"
);
},
{
closed = 1;
nodes = (
"383 793 LINE",
"165 793 LINE",
"161 744 LINE",
"167 737 LINE",
"384 737 LINE",
"389 787 LINE"
);
}
);
};
components = (
{
name = E;
},
{
name = macroncomb_gravecomb;
transform = "{1, 0, 0, 1, 97, 175}";
}
);
layerId = "2DCE43FE-4436-4BBF-8775-653F8291D466";
width = 541;
}
);
unicode = 1E14;
},
{
glyphname = Eogonek;
lastChange = "2016-11-22 21:42:25 +0000";
layers = (
{
background = {
paths = (
{
closed = 1;
nodes = (
"179 641 LINE",
"91 641 LINE",
"97 193 LINE",
"91 0 LINE",
"178 0 LINE",
"174 200 LINE"
);
},
{
closed = 1;
nodes = (
"457 75 LINE",
"304 70 LINE",
"150 72 LINE",
"147 7 LINE",
"150 0 LINE",
"456 0 LINE",
"462 67 LINE"
);
},
{
closed = 1;
nodes = (
"401 365 LINE",
"295 362 LINE",
"153 364 LINE",
"150 299 LINE",
"153 292 LINE",
"288 294 LINE",
"400 291 LINE",
"407 358 LINE"
);
},
{
closed = 1;
nodes = (
"457 641 LINE",
"150 641 LINE",
"147 575 LINE",
"150 568 LINE",
"304 570 LINE",
"455 566 LINE",
"462 633 LINE"
);
},
{
closed = 1;
nodes = (
"428 49 LINE",
"378 49 LINE",
"316 -41 LINE SMOOTH",
"298 -67 OFFCURVE",
"290 -92 OFFCURVE",
"290 -116 CURVE SMOOTH",
"290 -163 OFFCURVE",
"322 -197 OFFCURVE",
"371 -197 CURVE SMOOTH",
"406 -197 OFFCURVE",
"436 -179 OFFCURVE",
"469 -145 CURVE",
"458 -103 LINE",
"453 -103 LINE",
"431 -126 OFFCURVE",
"407 -140 OFFCURVE",
"385 -140 CURVE SMOOTH",
"359 -140 OFFCURVE",
"346 -123 OFFCURVE",
"346 -100 CURVE SMOOTH",
"346 -85 OFFCURVE",
"352 -69 OFFCURVE",
"363 -51 CURVE SMOOTH"
);
}
);
};
components = (
{
name = E;
},
{
name = ogonekcomb;
transform = "{1, 0, 0, 1, 475, -1}";
}
);
layerId = UUID0;
width = 454;
},
{
components = (
{
name = E;
},
{
name = ogonekcomb;
transform = "{1, 0, 0, 1, 570, 0}";
}
);
layerId = "FC8172F8-A6F4-4E62-B6CE-F5E7C4B552CE";
width = 485;
},
{
background = {
paths = (
{
closed = 1;
nodes = (
"179 641 LINE",
"91 641 LINE",
"97 193 LINE",
"91 0 LINE",
"178 0 LINE",
"174 200 LINE"
);
},
{
closed = 1;
nodes = (
"457 75 LINE",
"304 70 LINE",
"150 72 LINE",
"147 7 LINE",
"150 0 LINE",
"456 0 LINE",
"462 67 LINE"
);
},
{
closed = 1;
nodes = (
"401 365 LINE",
"295 362 LINE",
"153 364 LINE",
"150 299 LINE",
"153 292 LINE",
"288 294 LINE",
"400 291 LINE",
"407 358 LINE"
);
},
{
closed = 1;
nodes = (
"457 641 LINE",
"150 641 LINE",
"147 575 LINE",
"150 568 LINE",
"304 570 LINE",
"455 566 LINE",
"462 633 LINE"
);
},
{
closed = 1;
nodes = (
"428 49 LINE",
"378 49 LINE",
"316 -41 LINE SMOOTH",
"298 -67 OFFCURVE",
"290 -92 OFFCURVE",
"290 -116 CURVE SMOOTH",
"290 -163 OFFCURVE",
"322 -197 OFFCURVE",
"371 -197 CURVE SMOOTH",
"406 -197 OFFCURVE",
"436 -179 OFFCURVE",
"469 -145 CURVE",
"458 -103 LINE",
"453 -103 LINE",
"431 -126 OFFCURVE",
"407 -140 OFFCURVE",
"385 -140 CURVE SMOOTH",
"359 -140 OFFCURVE",
"346 -123 OFFCURVE",
"346 -100 CURVE SMOOTH",
"346 -85 OFFCURVE",
"352 -69 OFFCURVE",
"363 -51 CURVE SMOOTH"
);
}
);
};
components = (
{
name = E;
},
{
name = ogonekcomb;
transform = "{1, 0, 0, 1, 527, -33}";
}
);
layerId = "2DCE43FE-4436-4BBF-8775-653F8291D466";
width = 541;
}
);
unicode = 0118;
},
{
glyphname = Etilde;
lastChange = "2016-11-22 21:42:23 +0000";
layers = (
{
background = {
paths = (
{
closed = 1;
nodes = (
"179 641 LINE",
"91 641 LINE",
"97 193 LINE",
"91 0 LINE",
"178 0 LINE",
"174 200 LINE"
);
},
{
closed = 1;
nodes = (
"457 75 LINE",
"304 70 LINE",
"150 72 LINE",
"147 7 LINE",
"150 0 LINE",
"456 0 LINE",
"462 67 LINE"
);
},
{
closed = 1;
nodes = (
"401 365 LINE",
"295 362 LINE",
"153 364 LINE",
"150 299 LINE",
"153 292 LINE",
"288 294 LINE",
"400 291 LINE",
"407 358 LINE"
);
},
{
closed = 1;
nodes = (
"457 641 LINE",
"150 641 LINE",
"147 575 LINE",
"150 568 LINE",
"304 570 LINE",
"455 566 LINE",
"462 633 LINE"
);
},
{
closed = 1;
nodes = (
"408 853 LINE",
"400 853 LINE",
"374 827 OFFCURVE",
"358 806 OFFCURVE",
"342 806 CURVE",
"317 806 OFFCURVE",
"230 837 OFFCURVE",
"187 842 CURVE",
"177 839 LINE",
"115 768 LINE",
"115 760 LINE",
"141 733 LINE",
"150 733 LINE",
"175 758 OFFCURVE",
"191 780 OFFCURVE",
"207 780 CURVE",
"233 780 OFFCURVE",
"320 748 OFFCURVE",
"362 743 CURVE",
"372 747 LINE",
"434 818 LINE",
"434 826 LINE"
);
}
);
};
components = (
{
name = E;
},
{
name = tilde;
transform = "{1, 0, 0, 1, 71, 185}";
}
);
layerId = UUID0;
width = 454;
},
{
components = (
{
name = E;
},
{
name = tilde;
transform = "{1, 0, 0, 1, 80, 182}";
}
);
layerId = "FC8172F8-A6F4-4E62-B6CE-F5E7C4B552CE";
width = 485;
},
{
background = {
paths = (
{
closed = 1;
nodes = (
"179 641 LINE",
"91 641 LINE",
"97 193 LINE",
"91 0 LINE",
"178 0 LINE",
"174 200 LINE"
);
},
{
closed = 1;
nodes = (
"457 75 LINE",
"304 70 LINE",
"150 72 LINE",
"147 7 LINE",
"150 0 LINE",
"456 0 LINE",
"462 67 LINE"
);
},
{
closed = 1;
nodes = (
"401 365 LINE",
"295 362 LINE",
"153 364 LINE",
"150 299 LINE",
"153 292 LINE",
"288 294 LINE",
"400 291 LINE",
"407 358 LINE"
);
},
{
closed = 1;
nodes = (
"457 641 LINE",
"150 641 LINE",
"147 575 LINE",
"150 568 LINE",
"304 570 LINE",
"455 566 LINE",
"462 633 LINE"
);
},
{
closed = 1;
nodes = (
"408 853 LINE",
"400 853 LINE",
"374 827 OFFCURVE",
"358 806 OFFCURVE",
"342 806 CURVE",
"317 806 OFFCURVE",
"230 837 OFFCURVE",
"187 842 CURVE",
"177 839 LINE",
"115 768 LINE",
"115 760 LINE",
"141 733 LINE",
"150 733 LINE",
"175 758 OFFCURVE",
"191 780 OFFCURVE",
"207 780 CURVE",
"233 780 OFFCURVE",
"320 748 OFFCURVE",
"362 743 CURVE",
"372 747 LINE",
"434 818 LINE",
"434 826 LINE"
);
}
);
};
components = (
{
name = E;
},
{
name = tilde;
transform = "{1, 0, 0, 1, 98, 175}";
}
);
layerId = "2DCE43FE-4436-4BBF-8775-653F8291D466";
width = 541;
}
);
leftKerningGroup = B;
rightKerningGroup = AE;
unicode = 1EBC;
},
{
glyphname = F;
lastChange = "2016-11-22 21:40:43 +0000";
layers = (
{
background = {
paths = (
{
closed = 1;
nodes = (
"179 641 LINE",
"91 641 LINE",
"97 193 LINE",
"91 0 LINE",
"178 0 LINE",
"174 200 LINE"
);
},
{
closed = 1;
nodes = (
"387 352 LINE",
"282 349 LINE",
"153 351 LINE",
"153 280 LINE",
"274 281 LINE",
"386 278 LINE",
"393 344 LINE"
);
},
{
closed = 1;
nodes = (
"437 641 LINE",
"149 641 LINE",
"146 575 LINE",
"149 568 LINE",
"288 570 LINE",
"436 564 LINE",
"443 633 LINE"
);
}
);
};
layerId = UUID0;
paths = (
{
closed = 1;
nodes = (
"130 637 LINE",
"110 637 LINE",
"110 195 LINE",
"110 0 LINE",
"130 0 LINE",
"130 195 LINE"
);
},
{
closed = 1;
nodes = (
"357 330 LINE",
"257 330 LINE",
"124 330 LINE",
"124 310 LINE",
"253 310 LINE",
"356 310 LINE",
"360 326 LINE"
);
},
{
closed = 1;
nodes = (
"407 637 LINE",
"124 637 LINE",
"120 621 LINE",
"124 617 LINE",
"266 617 LINE",
"406 617 LINE",
"410 633 LINE"
);
}
);
width = 411;
},
{
layerId = "FC8172F8-A6F4-4E62-B6CE-F5E7C4B552CE";
paths = (
{
closed = 1;
nodes = (
"179 641 LINE",
"91 641 LINE",
"97 193 LINE",
"91 0 LINE",
"178 0 LINE",
"174 200 LINE"
);
},
{
closed = 1;
nodes = (
"387 352 LINE",
"282 349 LINE",
"153 351 LINE",
"153 280 LINE",
"274 281 LINE",
"386 278 LINE",
"393 344 LINE"
);
},
{
closed = 1;
nodes = (
"437 641 LINE",
"149 641 LINE",
"146 575 LINE",
"149 568 LINE",
"288 570 LINE",
"436 564 LINE",
"443 633 LINE"
);
}
);
width = 436;
},
{
background = {
paths = (
{
closed = 1;
nodes = (
"179 641 LINE",
"91 641 LINE",
"97 193 LINE",
"91 0 LINE",
"178 0 LINE",
"174 200 LINE"
);
},
{
closed = 1;
nodes = (
"387 352 LINE",
"282 349 LINE",
"153 351 LINE",
"153 280 LINE",
"274 281 LINE",
"386 278 LINE",
"393 344 LINE"
);
},
{
closed = 1;
nodes = (
"437 641 LINE",
"149 641 LINE",
"146 575 LINE",
"149 568 LINE",
"288 570 LINE",
"436 564 LINE",
"443 633 LINE"
);
}
);
};
layerId = "2DCE43FE-4436-4BBF-8775-653F8291D466";
paths = (
{
closed = 1;
nodes = (
"264 647 LINE",
"60 647 LINE",
"70 190 LINE",
"60 0 LINE",
"261 0 LINE",
"253 210 LINE"
);
},
{
closed = 1;
nodes = (
"441 380 LINE",
"325 377 LINE",
"204 377 LINE",
"204 223 LINE",
"311 223 LINE",
"440 220 LINE",
"452 366 LINE"
);
},
{
closed = 1;
nodes = (
"492 647 LINE",
"194 647 LINE",
"194 504 LINE",
"194 493 LINE",
"330 493 LINE",
"490 487 LINE",
"503 633 LINE"
);
}
);
width = 481;
}
);
leftKerningGroup = B;
rightKerningGroup = F;
unicode = 0046;
},
{
glyphname = G;
lastChange = "2016-11-22 21:40:43 +0000";
layers = (
{
anchors = (
{
name = bottom;
position = "{312, 0}";
},
{
name = top;
position = "{325, 637}";
}
);
background = {
paths = (
{
closed = 1;
nodes = (
"152 647 OFFCURVE",
"37 529 OFFCURVE",
"37 307 CURVE SMOOTH",
"37 108 OFFCURVE",
"129 -7 OFFCURVE",
"326 -7 CURVE SMOOTH",
"387 -7 OFFCURVE",
"451 4 OFFCURVE",
"538 31 CURVE",
"534 172 LINE",
"536 259 LINE",
"455 253 LINE",
"457 160 LINE",
"454 89 LINE",
"397 71 OFFCURVE",
"366 66 OFFCURVE",
"330 66 CURVE SMOOTH",
"191 66 OFFCURVE",
"126 140 OFFCURVE",
"126 311 CURVE SMOOTH",
"126 492 OFFCURVE",
"199 575 OFFCURVE",
"338 575 CURVE SMOOTH",
"398 575 OFFCURVE",
"447 559 OFFCURVE",
"512 519 CURVE",
"522 521 LINE",
"540 602 LINE",
"477 634 OFFCURVE",
"417 647 OFFCURVE",
"351 647 CURVE SMOOTH"
);
}
);
};
layerId = UUID0;
paths = (
{
closed = 1;
nodes = (
"343 641 LINE",
"154 641 OFFCURVE",
"48 524 OFFCURVE",
"48 313 CURVE SMOOTH",
"48 109 OFFCURVE",
"141 -5 OFFCURVE",
"308 -5 CURVE SMOOTH",
"381 -3 OFFCURVE",
"428 5 OFFCURVE",
"516 30 CURVE",
"516 158 LINE",
"516 238 LINE",
"496 236 LINE",
"496 158 LINE",
"496 45 LINE",
"413 22 OFFCURVE",
"370 15 OFFCURVE",
"307 15 CURVE SMOOTH",
"154 15 OFFCURVE",
"68 121 OFFCURVE",
"68 312 CURVE SMOOTH",
"68 511 OFFCURVE",
"167 621 OFFCURVE",
"343 621 CURVE SMOOTH",
"396 621 OFFCURVE",
"455 602 OFFCURVE",
"510 569 CURVE",
"517 569 LINE",
"523 587 LINE",
"464 622 OFFCURVE",
"400 641 OFFCURVE",
"343 641 CURVE SMOOTH"
);
}
);
width = 603;
},
{
anchors = (
{
name = bottom;
position = "{307, 0}";
},
{
name = top;
position = "{326, 641}";
}
);
layerId = "FC8172F8-A6F4-4E62-B6CE-F5E7C4B552CE";
paths = (
{
closed = 1;
nodes = (
"351 647 LINE",
"152 647 OFFCURVE",
"37 529 OFFCURVE",
"37 307 CURVE SMOOTH",
"37 108 OFFCURVE",
"129 -7 OFFCURVE",
"326 -7 CURVE SMOOTH",
"387 -7 OFFCURVE",
"451 4 OFFCURVE",
"538 31 CURVE",
"534 172 LINE",
"536 259 LINE",
"455 253 LINE",
"457 160 LINE",
"454 89 LINE",
"397 71 OFFCURVE",
"366 66 OFFCURVE",
"330 66 CURVE SMOOTH",
"191 66 OFFCURVE",
"126 140 OFFCURVE",
"126 311 CURVE SMOOTH",
"126 492 OFFCURVE",
"199 575 OFFCURVE",
"338 575 CURVE SMOOTH",
"398 575 OFFCURVE",
"447 559 OFFCURVE",
"512 519 CURVE",
"522 521 LINE",
"540 602 LINE",
"477 634 OFFCURVE",
"417 647 OFFCURVE",
"351 647 CURVE SMOOTH"
);
}
);
width = 600;
},
{
anchors = (
{
name = bottom;
position = "{298, 0}";
},
{
name = top;
position = "{328, 647}";
}
);
background = {
paths = (
{
closed = 1;
nodes = (
"152 647 OFFCURVE",
"37 529 OFFCURVE",
"37 307 CURVE SMOOTH",
"37 108 OFFCURVE",
"129 -7 OFFCURVE",
"326 -7 CURVE SMOOTH",
"387 -7 OFFCURVE",
"451 4 OFFCURVE",
"538 31 CURVE",
"534 172 LINE",
"536 259 LINE",
"455 253 LINE",
"457 160 LINE",
"454 89 LINE",
"397 71 OFFCURVE",
"366 66 OFFCURVE",
"330 66 CURVE SMOOTH",
"191 66 OFFCURVE",
"126 140 OFFCURVE",
"126 311 CURVE SMOOTH",
"126 492 OFFCURVE",
"199 575 OFFCURVE",
"338 575 CURVE SMOOTH",
"398 575 OFFCURVE",
"447 559 OFFCURVE",
"512 519 CURVE",
"522 521 LINE",
"540 602 LINE",
"477 634 OFFCURVE",
"417 647 OFFCURVE",
"351 647 CURVE SMOOTH"
);
}
);
};
layerId = "2DCE43FE-4436-4BBF-8775-653F8291D466";
paths = (
{
closed = 1;
nodes = (
"382 658 LINE",
"148 658 OFFCURVE",
"17 537 OFFCURVE",
"17 310 CURVE SMOOTH",
"17 106 OFFCURVE",
"122 -12 OFFCURVE",
"334 -12 CURVE SMOOTH",
"407 -12 OFFCURVE",
"486 2 OFFCURVE",
"565 32 CURVE",
"565 209 LINE",
"568 297 LINE",
"385 284 LINE",
"388 175 LINE",
"388 143 LINE",
"377 141 OFFCURVE",
"368 139 OFFCURVE",
"352 139 CURVE SMOOTH",
"255 139 OFFCURVE",
"227 177 OFFCURVE",
"227 320 CURVE SMOOTH",
"227 463 OFFCURVE",
"256 498 OFFCURVE",
"344 498 CURVE SMOOTH",
"404 498 OFFCURVE",
"448 482 OFFCURVE",
"510 451 CURVE",
"526 451 LINE",
"569 628 LINE",
"519 647 OFFCURVE",
"452 658 OFFCURVE",
"382 658 CURVE SMOOTH"
);
}
);
width = 596;
}
);
leftKerningGroup = C;
rightKerningGroup = G;
unicode = 0047;
},
{
glyphname = Gbreve;
lastChange = "2016-11-22 21:42:25 +0000";
layers = (
{
background = {
paths = (
{
closed = 1;
nodes = (
"152 647 OFFCURVE",
"37 529 OFFCURVE",
"37 307 CURVE SMOOTH",
"37 108 OFFCURVE",
"129 -7 OFFCURVE",
"326 -7 CURVE SMOOTH",
"387 -7 OFFCURVE",
"451 4 OFFCURVE",
"538 31 CURVE",
"534 172 LINE",
"536 259 LINE",
"455 253 LINE",
"457 160 LINE",
"454 89 LINE",
"397 71 OFFCURVE",
"366 66 OFFCURVE",
"330 66 CURVE SMOOTH",
"191 66 OFFCURVE",
"126 140 OFFCURVE",
"126 311 CURVE SMOOTH",
"126 492 OFFCURVE",
"199 575 OFFCURVE",
"338 575 CURVE SMOOTH",
"398 575 OFFCURVE",
"447 559 OFFCURVE",
"512 519 CURVE",
"522 521 LINE",
"540 602 LINE",
"477 634 OFFCURVE",
"417 647 OFFCURVE",
"351 647 CURVE SMOOTH"
);
},
{
closed = 1;
nodes = (
"433 845 LINE",
"420 845 LINE",
"405 807 OFFCURVE",
"373 785 OFFCURVE",
"327 785 CURVE SMOOTH",
"281 785 OFFCURVE",
"248 807 OFFCURVE",
"234 845 CURVE",
"221 845 LINE",
"198 816 LINE",
"217 757 OFFCURVE",
"262 724 OFFCURVE",
"325 724 CURVE SMOOTH",
"388 724 OFFCURVE",
"435 757 OFFCURVE",
"455 816 CURVE"
);
}
);
};
components = (
{
name = G;
},
{
name = brevecomb.case;
transform = "{1, 0, 0, 1, 520, 185}";
}
);
layerId = UUID0;
width = 603;
},
{
components = (
{
name = G;
},
{
name = brevecomb.case;
transform = "{1, 0, 0, 1, 521, 182}";
}
);
layerId = "FC8172F8-A6F4-4E62-B6CE-F5E7C4B552CE";
width = 600;
},
{
background = {
paths = (
{
closed = 1;
nodes = (
"152 647 OFFCURVE",
"37 529 OFFCURVE",
"37 307 CURVE SMOOTH",
"37 108 OFFCURVE",
"129 -7 OFFCURVE",
"326 -7 CURVE SMOOTH",
"387 -7 OFFCURVE",
"451 4 OFFCURVE",
"538 31 CURVE",
"534 172 LINE",
"536 259 LINE",
"455 253 LINE",
"457 160 LINE",
"454 89 LINE",
"397 71 OFFCURVE",
"366 66 OFFCURVE",
"330 66 CURVE SMOOTH",
"191 66 OFFCURVE",
"126 140 OFFCURVE",
"126 311 CURVE SMOOTH",
"126 492 OFFCURVE",
"199 575 OFFCURVE",
"338 575 CURVE SMOOTH",
"398 575 OFFCURVE",
"447 559 OFFCURVE",
"512 519 CURVE",
"522 521 LINE",
"540 602 LINE",
"477 634 OFFCURVE",
"417 647 OFFCURVE",
"351 647 CURVE SMOOTH"
);
},
{
closed = 1;
nodes = (
"433 845 LINE",
"420 845 LINE",
"405 807 OFFCURVE",
"373 785 OFFCURVE",
"327 785 CURVE SMOOTH",
"281 785 OFFCURVE",
"248 807 OFFCURVE",
"234 845 CURVE",
"221 845 LINE",
"198 816 LINE",
"217 757 OFFCURVE",
"262 724 OFFCURVE",
"325 724 CURVE SMOOTH",
"388 724 OFFCURVE",
"435 757 OFFCURVE",
"455 816 CURVE"
);
}
);
};
components = (
{
name = G;
},
{
name = brevecomb.case;
transform = "{1, 0, 0, 1, 523, 175}";
}
);
layerId = "2DCE43FE-4436-4BBF-8775-653F8291D466";
width = 596;
}
);
leftKerningGroup = C;
rightKerningGroup = G;
unicode = 011E;
},
{
glyphname = Gcaron;
lastChange = "2016-11-22 21:42:25 +0000";
layers = (
{
background = {
paths = (
{
closed = 1;
nodes = (
"152 647 OFFCURVE",
"37 529 OFFCURVE",
"37 307 CURVE SMOOTH",
"37 108 OFFCURVE",
"129 -7 OFFCURVE",
"326 -7 CURVE SMOOTH",
"387 -7 OFFCURVE",
"451 4 OFFCURVE",
"538 31 CURVE",
"534 172 LINE",
"536 259 LINE",
"455 253 LINE",
"457 160 LINE",
"454 89 LINE",
"397 71 OFFCURVE",
"366 66 OFFCURVE",
"330 66 CURVE SMOOTH",
"191 66 OFFCURVE",
"126 140 OFFCURVE",
"126 311 CURVE SMOOTH",
"126 492 OFFCURVE",
"199 575 OFFCURVE",
"338 575 CURVE SMOOTH",
"398 575 OFFCURVE",
"447 559 OFFCURVE",
"512 519 CURVE",
"522 521 LINE",
"540 602 LINE",
"477 634 OFFCURVE",
"417 647 OFFCURVE",
"351 647 CURVE SMOOTH"
);
},
{
closed = 1;
nodes = (
"439 851 LINE",
"430 851 LINE",
"394 829 OFFCURVE",
"360 808 OFFCURVE",
"326 785 CURVE",
"292 808 OFFCURVE",
"258 829 OFFCURVE",
"223 851 CURVE",
"213 851 LINE",
"197 815 LINE",
"239 786 OFFCURVE",
"278 755 OFFCURVE",
"316 723 CURVE",
"338 723 LINE",
"374 755 OFFCURVE",
"414 786 OFFCURVE",
"456 815 CURVE"
);
}
);
};
components = (
{
name = G;
},
{
name = caroncomb.case;
transform = "{1, 0, 0, 1, 520, 185}";
}
);
layerId = UUID0;
width = 603;
},
{
components = (
{
name = G;
},
{
name = caroncomb.case;
transform = "{1, 0, 0, 1, 521, 182}";
}
);
layerId = "FC8172F8-A6F4-4E62-B6CE-F5E7C4B552CE";
width = 600;
},
{
background = {
paths = (
{
closed = 1;
nodes = (
"152 647 OFFCURVE",
"37 529 OFFCURVE",
"37 307 CURVE SMOOTH",
"37 108 OFFCURVE",
"129 -7 OFFCURVE",
"326 -7 CURVE SMOOTH",
"387 -7 OFFCURVE",
"451 4 OFFCURVE",
"538 31 CURVE",
"534 172 LINE",
"536 259 LINE",
"455 253 LINE",
"457 160 LINE",
"454 89 LINE",
"397 71 OFFCURVE",
"366 66 OFFCURVE",
"330 66 CURVE SMOOTH",
"191 66 OFFCURVE",
"126 140 OFFCURVE",
"126 311 CURVE SMOOTH",
"126 492 OFFCURVE",
"199 575 OFFCURVE",
"338 575 CURVE SMOOTH",
"398 575 OFFCURVE",
"447 559 OFFCURVE",
"512 519 CURVE",
"522 521 LINE",
"540 602 LINE",
"477 634 OFFCURVE",
"417 647 OFFCURVE",
"351 647 CURVE SMOOTH"
);
},
{
closed = 1;
nodes = (
"439 851 LINE",
"430 851 LINE",
"394 829 OFFCURVE",
"360 808 OFFCURVE",
"326 785 CURVE",
"292 808 OFFCURVE",
"258 829 OFFCURVE",
"223 851 CURVE",
"213 851 LINE",
"197 815 LINE",
"239 786 OFFCURVE",
"278 755 OFFCURVE",
"316 723 CURVE",
"338 723 LINE",
"374 755 OFFCURVE",
"414 786 OFFCURVE",
"456 815 CURVE"
);
}
);
};
components = (
{
name = G;
},
{
name = caroncomb.case;
transform = "{1, 0, 0, 1, 523, 175}";
}
);
layerId = "2DCE43FE-4436-4BBF-8775-653F8291D466";
width = 596;
}
);
unicode = 01E6;
},
{
glyphname = Gcircumflex;
lastChange = "2016-11-22 21:42:25 +0000";
layers = (
{
background = {
paths = (
{
closed = 1;
nodes = (
"152 647 OFFCURVE",
"37 529 OFFCURVE",
"37 307 CURVE SMOOTH",
"37 108 OFFCURVE",
"129 -7 OFFCURVE",
"326 -7 CURVE SMOOTH",
"387 -7 OFFCURVE",
"451 4 OFFCURVE",
"538 31 CURVE",
"534 172 LINE",
"536 259 LINE",
"455 253 LINE",
"457 160 LINE",
"454 89 LINE",
"397 71 OFFCURVE",
"366 66 OFFCURVE",
"330 66 CURVE SMOOTH",
"191 66 OFFCURVE",
"126 140 OFFCURVE",
"126 311 CURVE SMOOTH",
"126 492 OFFCURVE",
"199 575 OFFCURVE",
"338 575 CURVE SMOOTH",
"398 575 OFFCURVE",
"447 559 OFFCURVE",
"512 519 CURVE",
"522 521 LINE",
"540 602 LINE",
"477 634 OFFCURVE",
"417 647 OFFCURVE",
"351 647 CURVE SMOOTH"
);
},
{
closed = 1;
nodes = (
"992 733 LINE",
"1001 733 LINE",
"1037 755 OFFCURVE",
"1071 776 OFFCURVE",
"1105 799 CURVE",
"1139 776 OFFCURVE",
"1173 755 OFFCURVE",
"1208 733 CURVE",
"1218 733 LINE",
"1234 769 LINE",
"1192 798 OFFCURVE",
"1153 829 OFFCURVE",
"1115 861 CURVE",
"1093 861 LINE",
"1057 829 OFFCURVE",
"1017 798 OFFCURVE",
"975 769 CURVE"
);
}
);
};
components = (
{
name = G;
},
{
name = caroncomb.case;
transform = "{-1, 0, 0, -1, 910, 1372}";
}
);
layerId = UUID0;
width = 603;
},
{
components = (
{
name = G;
},
{
name = caroncomb.case;
transform = "{-1, 0, 0, -1, 910, 1402}";
}
);
layerId = "FC8172F8-A6F4-4E62-B6CE-F5E7C4B552CE";
width = 600;
},
{
background = {
paths = (
{
closed = 1;
nodes = (
"152 647 OFFCURVE",
"37 529 OFFCURVE",
"37 307 CURVE SMOOTH",
"37 108 OFFCURVE",
"129 -7 OFFCURVE",
"326 -7 CURVE SMOOTH",
"387 -7 OFFCURVE",
"451 4 OFFCURVE",
"538 31 CURVE",
"534 172 LINE",
"536 259 LINE",
"455 253 LINE",
"457 160 LINE",
"454 89 LINE",
"397 71 OFFCURVE",
"366 66 OFFCURVE",
"330 66 CURVE SMOOTH",
"191 66 OFFCURVE",
"126 140 OFFCURVE",
"126 311 CURVE SMOOTH",
"126 492 OFFCURVE",
"199 575 OFFCURVE",
"338 575 CURVE SMOOTH",
"398 575 OFFCURVE",
"447 559 OFFCURVE",
"512 519 CURVE",
"522 521 LINE",
"540 602 LINE",
"477 634 OFFCURVE",
"417 647 OFFCURVE",
"351 647 CURVE SMOOTH"
);
},
{
closed = 1;
nodes = (
"992 733 LINE",
"1001 733 LINE",
"1037 755 OFFCURVE",
"1071 776 OFFCURVE",
"1105 799 CURVE",
"1139 776 OFFCURVE",
"1173 755 OFFCURVE",
"1208 733 CURVE",
"1218 733 LINE",
"1234 769 LINE",
"1192 798 OFFCURVE",
"1153 829 OFFCURVE",
"1115 861 CURVE",
"1093 861 LINE",
"1057 829 OFFCURVE",
"1017 798 OFFCURVE",
"975 769 CURVE"
);
}
);
};
components = (
{
name = G;
},
{
name = caroncomb.case;
transform = "{-1, 0, 0, -1, 911, 1453}";
}
);
layerId = "2DCE43FE-4436-4BBF-8775-653F8291D466";
width = 596;
}
);
leftKerningGroup = C;
rightKerningGroup = G;
unicode = 011C;
},
{
glyphname = Gcommaaccent;
lastChange = "2016-11-22 21:40:43 +0000";
layers = (
{
background = {
paths = (
{
closed = 1;
nodes = (
"152 647 OFFCURVE",
"37 529 OFFCURVE",
"37 307 CURVE SMOOTH",
"37 108 OFFCURVE",
"129 -7 OFFCURVE",
"326 -7 CURVE SMOOTH",
"387 -7 OFFCURVE",
"451 4 OFFCURVE",
"538 31 CURVE",
"534 172 LINE",
"536 259 LINE",
"455 253 LINE",
"457 160 LINE",
"454 89 LINE",
"397 71 OFFCURVE",
"366 66 OFFCURVE",
"330 66 CURVE SMOOTH",
"191 66 OFFCURVE",
"126 140 OFFCURVE",
"126 311 CURVE SMOOTH",
"126 492 OFFCURVE",
"199 575 OFFCURVE",
"338 575 CURVE SMOOTH",
"398 575 OFFCURVE",
"447 559 OFFCURVE",
"512 519 CURVE",
"522 521 LINE",
"540 602 LINE",
"477 634 OFFCURVE",
"417 647 OFFCURVE",
"351 647 CURVE SMOOTH"
);
},
{
closed = 1;
nodes = (
"307 -59 OFFCURVE",
"289 -69 OFFCURVE",
"272 -80 CURVE",
"272 -87 LINE",
"290 -100 OFFCURVE",
"301 -115 OFFCURVE",
"301 -133 CURVE",
"301 -160 OFFCURVE",
"283 -188 OFFCURVE",
"250 -215 CURVE",
"250 -221 LINE",
"277 -245 LINE",
"337 -202 OFFCURVE",
"366 -159 OFFCURVE",
"366 -118 CURVE",
"366 -92 OFFCURVE",
"352 -70 OFFCURVE",
"327 -54 CURVE"
);
}
);
};
components = (
{
name = G;
},
{
name = comma;
transform = "{1, 0, 0, 1, 201, -111}";
}
);
layerId = UUID0;
width = 603;
},
{
components = (
{
name = G;
},
{
name = comma;
transform = "{0.926, 0, 0, 0.926, 208, -139}";
}
);
layerId = "FC8172F8-A6F4-4E62-B6CE-F5E7C4B552CE";
width = 600;
},
{
background = {
paths = (
{
closed = 1;
nodes = (
"152 647 OFFCURVE",
"37 529 OFFCURVE",
"37 307 CURVE SMOOTH",
"37 108 OFFCURVE",
"129 -7 OFFCURVE",
"326 -7 CURVE SMOOTH",
"387 -7 OFFCURVE",
"451 4 OFFCURVE",
"538 31 CURVE",
"534 172 LINE",
"536 259 LINE",
"455 253 LINE",
"457 160 LINE",
"454 89 LINE",
"397 71 OFFCURVE",
"366 66 OFFCURVE",
"330 66 CURVE SMOOTH",
"191 66 OFFCURVE",
"126 140 OFFCURVE",
"126 311 CURVE SMOOTH",
"126 492 OFFCURVE",
"199 575 OFFCURVE",
"338 575 CURVE SMOOTH",
"398 575 OFFCURVE",
"447 559 OFFCURVE",
"512 519 CURVE",
"522 521 LINE",
"540 602 LINE",
"477 634 OFFCURVE",
"417 647 OFFCURVE",
"351 647 CURVE SMOOTH"
);
},
{
closed = 1;
nodes = (
"307 -59 OFFCURVE",
"289 -69 OFFCURVE",
"272 -80 CURVE",
"272 -87 LINE",
"290 -100 OFFCURVE",
"301 -115 OFFCURVE",
"301 -133 CURVE",
"301 -160 OFFCURVE",
"283 -188 OFFCURVE",
"250 -215 CURVE",
"250 -221 LINE",
"277 -245 LINE",
"337 -202 OFFCURVE",
"366 -159 OFFCURVE",
"366 -118 CURVE",
"366 -92 OFFCURVE",
"352 -70 OFFCURVE",
"327 -54 CURVE"
);
}
);
};
components = (
{
name = G;
},
{
name = comma;
transform = "{0.857, 0, 0, 0.857, 211, -182}";
}
);
layerId = "2DCE43FE-4436-4BBF-8775-653F8291D466";
width = 596;
}
);
leftKerningGroup = C;
rightKerningGroup = G;
unicode = 0122;
},
{
glyphname = Gdotaccent;
lastChange = "2016-11-22 21:40:43 +0000";
layers = (
{
background = {
paths = (
{
closed = 1;
nodes = (
"152 647 OFFCURVE",
"37 529 OFFCURVE",
"37 307 CURVE SMOOTH",
"37 108 OFFCURVE",
"129 -7 OFFCURVE",
"326 -7 CURVE SMOOTH",
"387 -7 OFFCURVE",
"451 4 OFFCURVE",
"538 31 CURVE",
"534 172 LINE",
"536 259 LINE",
"455 253 LINE",
"457 160 LINE",
"454 89 LINE",
"397 71 OFFCURVE",
"366 66 OFFCURVE",
"330 66 CURVE SMOOTH",
"191 66 OFFCURVE",
"126 140 OFFCURVE",
"126 311 CURVE SMOOTH",
"126 492 OFFCURVE",
"199 575 OFFCURVE",
"338 575 CURVE SMOOTH",
"398 575 OFFCURVE",
"447 559 OFFCURVE",
"512 519 CURVE",
"522 521 LINE",
"540 602 LINE",
"477 634 OFFCURVE",
"417 647 OFFCURVE",
"351 647 CURVE SMOOTH"
);
},
{
closed = 1;
nodes = (
"297 848 OFFCURVE",
"278 828 OFFCURVE",
"278 798 CURVE SMOOTH",
"278 768 OFFCURVE",
"295 750 OFFCURVE",
"325 750 CURVE SMOOTH",
"355 750 OFFCURVE",
"374 770 OFFCURVE",
"374 801 CURVE SMOOTH",
"374 830 OFFCURVE",
"357 848 OFFCURVE",
"328 848 CURVE SMOOTH"
);
}
);
};
components = (
{
name = G;
},
{
name = period;
transform = "{1, 0, 0, 1, 210, 778}";
}
);
layerId = UUID0;
width = 603;
},
{
components = (
{
name = G;
},
{
name = period;
transform = "{1, 0, 0, 1, 212, 755}";
}
);
layerId = "FC8172F8-A6F4-4E62-B6CE-F5E7C4B552CE";
width = 600;
},
{
background = {
paths = (
{
closed = 1;
nodes = (
"152 647 OFFCURVE",
"37 529 OFFCURVE",
"37 307 CURVE SMOOTH",
"37 108 OFFCURVE",
"129 -7 OFFCURVE",
"326 -7 CURVE SMOOTH",
"387 -7 OFFCURVE",
"451 4 OFFCURVE",
"538 31 CURVE",
"534 172 LINE",
"536 259 LINE",
"455 253 LINE",
"457 160 LINE",
"454 89 LINE",
"397 71 OFFCURVE",
"366 66 OFFCURVE",
"330 66 CURVE SMOOTH",
"191 66 OFFCURVE",
"126 140 OFFCURVE",
"126 311 CURVE SMOOTH",
"126 492 OFFCURVE",
"199 575 OFFCURVE",
"338 575 CURVE SMOOTH",
"398 575 OFFCURVE",
"447 559 OFFCURVE",
"512 519 CURVE",
"522 521 LINE",
"540 602 LINE",
"477 634 OFFCURVE",
"417 647 OFFCURVE",
"351 647 CURVE SMOOTH"
);
},
{
closed = 1;
nodes = (
"297 848 OFFCURVE",
"278 828 OFFCURVE",
"278 798 CURVE SMOOTH",
"278 768 OFFCURVE",
"295 750 OFFCURVE",
"325 750 CURVE SMOOTH",
"355 750 OFFCURVE",
"374 770 OFFCURVE",
"374 801 CURVE SMOOTH",
"374 830 OFFCURVE",
"357 848 OFFCURVE",
"328 848 CURVE SMOOTH"
);
}
);
};
components = (
{
name = G;
},
{
name = period;
transform = "{1, 0, 0, 1, 214, 713}";
}
);
layerId = "2DCE43FE-4436-4BBF-8775-653F8291D466";
width = 596;
}
);
leftKerningGroup = C;
rightKerningGroup = G;
unicode = 0120;
},
{
glyphname = Gmacron;
lastChange = "2016-11-22 21:42:25 +0000";
layers = (
{
background = {
paths = (
{
closed = 1;
nodes = (
"152 647 OFFCURVE",
"37 529 OFFCURVE",
"37 307 CURVE SMOOTH",
"37 108 OFFCURVE",
"129 -7 OFFCURVE",
"326 -7 CURVE SMOOTH",
"387 -7 OFFCURVE",
"451 4 OFFCURVE",
"538 31 CURVE",
"534 172 LINE",
"536 259 LINE",
"455 253 LINE",
"457 160 LINE",
"454 89 LINE",
"397 71 OFFCURVE",
"366 66 OFFCURVE",
"330 66 CURVE SMOOTH",
"191 66 OFFCURVE",
"126 140 OFFCURVE",
"126 311 CURVE SMOOTH",
"126 492 OFFCURVE",
"199 575 OFFCURVE",
"338 575 CURVE SMOOTH",
"398 575 OFFCURVE",
"447 559 OFFCURVE",
"512 519 CURVE",
"522 521 LINE",
"540 602 LINE",
"477 634 OFFCURVE",
"417 647 OFFCURVE",
"351 647 CURVE SMOOTH"
);
},
{
closed = 1;
nodes = (
"466 819 LINE",
"183 819 LINE",
"179 770 LINE",
"185 763 LINE",
"468 763 LINE",
"473 813 LINE"
);
}
);
};
components = (
{
name = G;
},
{
name = macroncomb;
transform = "{1, 0, 0, 1, 520, 185}";
}
);
layerId = UUID0;
width = 603;
},
{
components = (
{
name = G;
},
{
name = macroncomb;
transform = "{1, 0, 0, 1, 520, 182}";
}
);
layerId = "FC8172F8-A6F4-4E62-B6CE-F5E7C4B552CE";
width = 600;
},
{
background = {
paths = (
{
closed = 1;
nodes = (
"152 647 OFFCURVE",
"37 529 OFFCURVE",
"37 307 CURVE SMOOTH",
"37 108 OFFCURVE",
"129 -7 OFFCURVE",
"326 -7 CURVE SMOOTH",
"387 -7 OFFCURVE",
"451 4 OFFCURVE",
"538 31 CURVE",
"534 172 LINE",
"536 259 LINE",
"455 253 LINE",
"457 160 LINE",
"454 89 LINE",
"397 71 OFFCURVE",
"366 66 OFFCURVE",
"330 66 CURVE SMOOTH",
"191 66 OFFCURVE",
"126 140 OFFCURVE",
"126 311 CURVE SMOOTH",
"126 492 OFFCURVE",
"199 575 OFFCURVE",
"338 575 CURVE SMOOTH",
"398 575 OFFCURVE",
"447 559 OFFCURVE",
"512 519 CURVE",
"522 521 LINE",
"540 602 LINE",
"477 634 OFFCURVE",
"417 647 OFFCURVE",
"351 647 CURVE SMOOTH"
);
},
{
closed = 1;
nodes = (
"466 819 LINE",
"183 819 LINE",
"179 770 LINE",
"185 763 LINE",
"468 763 LINE",
"473 813 LINE"
);
}
);
};
components = (
{
name = G;
},
{
name = macroncomb;
transform = "{1, 0, 0, 1, 521, 175}";
}
);
layerId = "2DCE43FE-4436-4BBF-8775-653F8291D466";
width = 596;
}
);
unicode = 1E20;
},
